<svg width="45" height="45" xmlns="http://www.w3.org/2000/svg" data-name="Слой 1">

 <g>
  <title>Layer 1</title>
  <g id="svg_29">
   <path id="svg_1" fill="#222221" d="m19.51011,37.74c-4.34,0 -7.74,-1.50999 -7.74,-3.42s3.4,-3.42 7.74,-3.42s7.78,1.5 7.78,3.42s-3.44,3.42 -7.78,3.42zm0,-6.2c-4.25,0 -7.1,1.43 -7.1,2.78s2.88,2.78 7.1,2.78s7.1,-1.44 7.1,-2.78s-2.86,-2.78 -7.1,-2.78z" class="cls-1"/>
   <path id="svg_2" fill="#222221" d="m19.51011,22.01a11.29,11.29 0 0 1 3.37,0.29a5.85,5.85 0 0 1 1.61,0.65a2,2 0 0 1 1.07,1.45a2,2 0 0 1 -1,1.55a6.41,6.41 0 0 1 -1.61,0.72a12.39,12.39 0 0 1 -6.83,0a6.2,6.2 0 0 1 -1.6,-0.72a1.94,1.94 0 0 1 -1,-1.55a2,2 0 0 1 1.08,-1.48a5.67,5.67 0 0 1 1.6,-0.65a11.36,11.36 0 0 1 3.38,-0.29a13,13 0 0 0 -3.29,0.59a5.64,5.64 0 0 0 -1.47,0.68a1.55,1.55 0 0 0 -0.8,1.15a1.54,1.54 0 0 0 0.84,1.09a5.65,5.65 0 0 0 1.47,0.62a12.21,12.21 0 0 0 3.25,0.4a12.27,12.27 0 0 0 3.25,-0.4a5.65,5.65 0 0 0 1.47,-0.62a1.59,1.59 0 0 0 0.77,-1.09a1.58,1.58 0 0 0 -0.8,-1.15a5.71,5.71 0 0 0 -1.48,-0.68a12.49,12.49 0 0 0 -3.28,-0.56z" class="cls-1"/>
   <path id="svg_3" fill="#222221" d="m26.74012,40.84l-0.15,0l0,-0.75a6.53,6.53 0 0 0 4.72,-2a3.47,3.47 0 0 0 0.98,-2.86a2.34,2.34 0 0 0 -1,-1.73a4.54,4.54 0 0 0 -3.27,-0.1l-0.24,-0.72a5.31,5.31 0 0 1 3.88,0.23a3.06,3.06 0 0 1 1.36,2.26001a4.17,4.17 0 0 1 -1.13,3.44a7.24,7.24 0 0 1 -5.15,2.23z" class="cls-1"/>
   <path id="svg_4" fill="#222221" d="m28.29012,37.92l-0.33,0l0.08,-0.63a1.57,1.57 0 0 0 1.45,-0.51a1.13,1.13 0 0 0 0.3,-0.94c-0.19,-0.68 -1.44,-0.39 -1.45,-0.39l-0.15,-0.62c0.69,-0.17 1.94,-0.18 2.22,0.85a1.73,1.73 0 0 1 -0.44,1.52a2.24,2.24 0 0 1 -1.68,0.72z" class="cls-1"/>
   <path id="svg_5" fill="#222221" d="m22.29012,34.81a6.11,6.11 0 0 1 -3,0.69a6,6 0 0 1 -3,-0.69c2.06,0.07 3.94,0.07 6,0z" class="cls-1"/>
   <rect id="svg_6" fill="#222221" height="11.63" width="0.64" y="12.8" x="13.38012" class="cls-1"/>
   <rect id="svg_7" fill="#222221" height="11.63" width="0.64" y="12.8" x="24.99012" class="cls-1"/>
   <path id="svg_8" fill="#222221" d="m19.51011,21.28c-2.8,0 -4.91,-1 -4.91,-2.23l0.69,0c0,0.75 1.75,1.59 4.27,1.59s4.27,-0.84 4.27,-1.59l0.64,0c-0.05,1.27 -2.18,2.23 -4.96,2.23z" class="cls-1"/>
   <path id="svg_9" fill="#222221" d="m19.51011,14.8c-2.8,0 -4.91,-1 -4.91,-2.24l0.69,0c0,0.76 1.75,1.6 4.27,1.6s4.27,-0.84 4.27,-1.6l0.64,0c-0.05,1.28 -2.18,2.24 -4.96,2.24z" class="cls-1"/>
   <path id="svg_10" fill="#222221" d="m19.51011,9.4c-4.27,0 -7.61,-1.47 -7.61,-3.36l0.63,0c0,1.32 2.81,2.73 7,2.73s7,-1.41 7,-2.73l0.64,0c-0.05,1.87 -3.39,3.36 -7.66,3.36z" class="cls-1"/>
   <path id="svg_11" fill="#222221" d="m19.51011,7.83c-4.27,0 -7.61,-1.48 -7.61,-3.37s3.39,-3.36 7.61,-3.36s7.61,1.48 7.61,3.36s-3.34,3.37 -7.61,3.37zm0,-6.09c-4.17,0 -7,1.41 -7,2.72s2.81,2.73 7,2.73s7,-1.41 7,-2.73s-2.83,-2.72 -7,-2.72z" class="cls-1"/>
   <rect id="svg_12" fill="#222221" height="4.75" width="0.64" y="14.29" x="14.60012" class="cls-1"/>
   <rect id="svg_13" fill="#222221" height="4.17" width="0.62" y="8.38" x="14.61012" class="cls-1"/>
   <rect id="svg_14" fill="#222221" height="4.75" width="0.64" y="14.29" x="23.78012" class="cls-1"/>
   <rect id="svg_15" fill="#222221" height="4.17" width="0.62" y="8.38" x="23.79012" class="cls-1"/>
   <rect id="svg_16" fill="#222221" height="1.55" width="0.64" y="4.46" x="11.90012" class="cls-1"/>
   <rect id="svg_17" fill="#222221" height="1.55" width="0.64" y="4.46" x="26.48012" class="cls-1"/>
   <path id="svg_18" fill="#222221" d="m19.51011,15.55c-3.44,0 -6.13,-1.21 -6.13,-2.75c0,-0.66 0.48,-1.27 1.39,-1.76l0.3,0.56c-0.68,0.36 -1.05,0.79 -1.05,1.2c0,1 2.25,2.11 5.49,2.11s5.48,-1.11 5.48,-2.11c0,-0.41 -0.37,-0.84 -1,-1.2l0.3,-0.56c0.91,0.48 1.38,1.1 1.38,1.76c-0.04,1.54 -2.73,2.75 -6.16,2.75z" class="cls-1"/>
   <path id="svg_19" fill="#222221" d="m18.82012,32.52c-0.49,0 -1,0.06 -1.45,0.13a7.75,7.75 0 0 0 -1.77,0.43a2.34,2.34 0 0 0 -1.39,1.11a2.43,2.43 0 0 1 1.46,-0.92001a10,10 0 0 1 1.74,-0.25999q0.86,0 1.71,0a0.69,0.69 0 0 1 -0.3,-0.49001z" class="cls-1"/>
   <path id="svg_20" fill="#222221" d="m24.91011,33.92a1.36,1.36 0 0 0 -0.36,-0.42a4.69,4.69 0 0 0 -1.75,-0.74a11.3,11.3 0 0 0 -1.81,-0.27c-0.27,0 -0.53,0 -0.79,0a0.69,0.69 0 0 1 -0.37,0.53c0.37,0 0.74,0 1.11,0.08a8.5,8.5 0 0 1 3.27,0.85c0.21,0.15 0.34,0.3 0.29,0.45a1,1 0 0 1 -0.49,0.52a7.58,7.58 0 0 1 -1.61,0.72001a5.58,5.58 0 0 0 1.78,-0.39a1.42,1.42 0 0 0 0.77,-0.69a0.75,0.75 0 0 0 -0.04,-0.64z" class="cls-1"/>
   <path id="svg_21" fill="#222221" d="m20.05012,29.54a0.69,0.69 0 0 1 -1.09,0c-4.88,0.15 -8.63,2.19 -8.63,4.78l0,1.22a8.37,8.37 0 0 0 8.36,8.36l1.6,0a8.37,8.37 0 0 0 8.36,-8.36l0,-1.22c0.03,-2.59 -3.72,-4.63 -8.6,-4.78zm7.88,6a7.62,7.62 0 0 1 -7.64,7.61l-1.6,0a7.63,7.63 0 0 1 -7.61,-7.61l0,-1.22c0,-2.19 3.86,-4 8.43,-4s8.42,1.85 8.42,4l0,1.22z" class="cls-1"/>
   <path id="svg_22" fill="#222221" d="m19.51011,30.07a1,1 0 1 1 1,-1a1,1 0 0 1 -1,1zm0,-1.43a0.45,0.45 0 0 0 -0.46,0.46a0.46,0.46 0 0 0 0.46,0.46a0.47,0.47 0 0 0 0.46,-0.46a0.46,0.46 0 0 0 -0.46,-0.46z" class="cls-1"/>
   <path id="svg_23" fill="#222221" d="m19.51011,33.4a1,1 0 0 1 0,-1.94a1,1 0 1 1 0,1.94zm0,-1.43a0.46,0.46 0 0 0 -0.46,0.46a0.45,0.45 0 0 0 0.46,0.46a0.46,0.46 0 0 0 0.46,-0.46a0.47,0.47 0 0 0 -0.46,-0.5l0,0.04z" class="cls-1"/>
   <path id="svg_24" fill="#222221" d="m19.51011,17.13a8,8 0 0 1 2.67,0.2a4.36,4.36 0 0 1 1.27,0.52a1.53,1.53 0 0 1 0.84,1.2a1.53,1.53 0 0 1 -0.84,1.19a4.11,4.11 0 0 1 -1.27,0.52a8,8 0 0 1 -2.67,0.2a11.85,11.85 0 0 0 2.59,-0.49a5.81,5.81 0 0 0 1.19,-0.53a1.24,1.24 0 0 0 0.64,-0.89a1.23,1.23 0 0 0 -0.64,-0.9a5.3,5.3 0 0 0 -1.16,-0.53a11.85,11.85 0 0 0 -2.62,-0.49z" class="cls-1"/>
   <path id="svg_25" fill="#222221" d="m19.51011,17.13a11.63,11.63 0 0 0 -2.59,0.49a5.17,5.17 0 0 0 -1.17,0.53a1.23,1.23 0 0 0 -0.64,0.9a1.24,1.24 0 0 0 0.64,0.89a5.65,5.65 0 0 0 1.17,0.53a11.63,11.63 0 0 0 2.59,0.49a8.08,8.08 0 0 1 -2.68,-0.2a4.11,4.11 0 0 1 -1.27,-0.52a1.57,1.57 0 0 1 -0.84,-1.19a1.57,1.57 0 0 1 0.84,-1.2a4.36,4.36 0 0 1 1.27,-0.52a8.08,8.08 0 0 1 2.68,-0.2z" class="cls-1"/>
   <path id="svg_26" fill="#222221" d="m31.70012,20.95a0.38,0.38 0 0 1 -0.38,-0.38l0,-8.72a0.38,0.38 0 0 1 0.38,-0.38a0.37,0.37 0 0 1 0.37,0.38l0,8.72a0.37,0.37 0 0 1 -0.37,0.38z" class="cls-1"/>
   <path id="svg_27" fill="#222221" d="m31.70012,20.95a0.4,0.4 0 0 1 -0.27,-0.11l-2.59,-2.6a0.37,0.37 0 0 1 0,-0.53a0.39,0.39 0 0 1 0.53,0l2.33,2.33l2.33,-2.33a0.37,0.37 0 0 1 0.53,0.53l-2.6,2.6a0.38,0.38 0 0 1 -0.26,0.11z" class="cls-1"/>
   <path id="svg_28" fill="#222221" d="m19.51011,27.18c-3.44,0 -6.13,-1.21 -6.13,-2.75l0.64,0c0,1 2.25,2.11 5.49,2.11s5.48,-1.14 5.48,-2.14l0.64,0c0,1.57 -2.69,2.78 -6.12,2.78z" class="cls-1"/>
  </g>
 </g>
</svg>