<svg width="40" height="40" xmlns="http://www.w3.org/2000/svg" data-name="Слой 1">

 <g>
  <title>Layer 1</title>
  <g id="svg_6">
   <path id="svg_1" d="m19.79728,17.55c-4.33,0 -7.73,1.51 -7.73,3.42s3.4,3.42 7.73,3.42s7.74,-1.5 7.74,-3.42s-3.4,-3.42 -7.74,-3.42zm0,6.2c-4.24,0 -7.09,-1.43 -7.09,-2.78s2.85,-2.78 7.09,-2.78s7.1,1.44 7.1,2.78s-2.85,2.76 -7.1,2.76l0,0.02z"/>
   <path id="svg_2" d="m33.30729,21.76a3.05,3.05 0 0 0 -1.35,-2.21a5,5 0 0 0 -3.61,-0.3c-1.24,-1.69 -4.21,-2.88 -7.85,-3c0,-0.05 0,-0.11 0,-0.17a3.61,3.61 0 0 0 -4.07,-2.83c-0.61,0.07 -1.22,0.18 -1.82,0.27l-0.23,0a3.09,3.09 0 0 1 1.48,-1.75l-0.4,-1c-0.29,0.2 -0.57,0.37 -0.81,0.57a9.13,9.13 0 0 0 -0.69,0.7s0,0 0,0a3.77,3.77 0 0 0 -2.11,-1.89c-0.64,-0.26 -1.32,-0.43 -2,-0.64l-0.17,-0.06l-0.06,0l0.24,1.48a5.34,5.34 0 0 0 0.85,2.21s0,0 0,0c-0.27,0 -0.53,0 -0.79,0.06a3.5,3.5 0 0 0 -2.75,2.1a6.11,6.11 0 0 0 -0.5,2.83a9.64,9.64 0 0 0 1.52,5a5.29,5.29 0 0 0 1.91,1.85a2.63,2.63 0 0 0 1.18,0.35a8.39,8.39 0 0 0 7.71,5.22l1.63,0a8.35,8.35 0 0 0 6.46,-3.07a7.21,7.21 0 0 0 5.11,-2.28a4.17,4.17 0 0 0 1.12,-3.44zm-4.33,0.25c0.38,0 1,0 1.14,0.44a1.09,1.09 0 0 1 -0.29,0.94a1.55,1.55 0 0 1 -1,0.5a8.8,8.8 0 0 0 0.18,-1.72l-0.03,-0.16zm-18.44,-11.46a5.4,5.4 0 0 1 2,1.06a2.87,2.87 0 0 1 1,2.23a2.85,2.85 0 0 1 -1.11,-0.29a3.07,3.07 0 0 1 -1.41,-1.66c-0.22,-0.42 -0.33,-0.86 -0.48,-1.34zm0.15,13.84a4,4 0 0 1 -1.63,-1.39a8.87,8.87 0 0 1 -1.63,-5.1a5.33,5.33 0 0 1 0.42,-2.23a2.55,2.55 0 0 1 2.58,-1.6a16.42,16.42 0 0 1 1.85,0.24a7.59,7.59 0 0 0 2.23,0.08c0.71,-0.09 1.4,-0.21 2.11,-0.31a2.71,2.71 0 0 1 2.11,0.53a2.9,2.9 0 0 1 1,1.56c-5.09,0 -9.06,2.12 -9.06,4.78l0,1.22a8.3,8.3 0 0 0 0.33,2.3a1.31,1.31 0 0 1 -0.31,-0.06l0,-0.02zm9.93,5.37l-1.63,0a7.63,7.63 0 0 1 -6.95,-4.51l0,0c-0.11,-0.27 -0.22,-0.53 -0.31,-0.81l0,0a7.51,7.51 0 0 1 -0.3,-2.27l0,-1.22c0,-2.18 3.86,-4 8.42,-4l0.06,0l0.8,0l0,0c4.18,0.21 7.57,2 7.57,4l0,1.22a7.62,7.62 0 0 1 -7.66,7.61l0,-0.02zm7,-3.1a8.42,8.42 0 0 0 1,-2.13a2.2,2.2 0 0 0 1.68,-0.74a1.73,1.73 0 0 0 0.43,-1.52a1.48,1.48 0 0 0 -1.76,-0.92l0,-0.4a2.82,2.82 0 0 0 -0.23,-1.07a4,4 0 0 1 2.81,0.26a2.32,2.32 0 0 1 1,1.73a3.47,3.47 0 0 1 -0.94,2.82a6.45,6.45 0 0 1 -3.96,1.99l-0.03,-0.02z"/>
   <path id="svg_3" d="m24.83728,20.14a4.49,4.49 0 0 0 -1.74,-0.74a11.26,11.26 0 0 0 -1.82,-0.27a21.77,21.77 0 0 0 -3.61,0.15a8.34,8.34 0 0 0 -1.77,0.44a2.3,2.3 0 0 0 -1.39,1.1a2.41,2.41 0 0 1 1.46,-0.91a9.15,9.15 0 0 1 1.73,-0.26a20.77,20.77 0 0 1 3.53,0.08a8.69,8.69 0 0 1 3.28,0.86c0.21,0.15 0.33,0.3 0.29,0.45a1.13,1.13 0 0 1 -0.49,0.52a7.79,7.79 0 0 1 -1.61,0.71a5.32,5.32 0 0 0 1.78,-0.39a1.38,1.38 0 0 0 0.77,-0.69a0.77,0.77 0 0 0 0,-0.63a1.27,1.27 0 0 0 -0.41,-0.42z"/>
   <path id="svg_4" d="m16.59728,21.45a6.11,6.11 0 0 0 3,0.69a6.05,6.05 0 0 0 3,-0.69c-2.07,0.1 -3.95,0.1 -6,0z"/>
   <path id="svg_5" d="m8.70728,16.16c-0.51,0.94 -0.19,2.62 0.09,2.67a5.16,5.16 0 0 1 2,-3.85a1.92,1.92 0 0 0 -2.09,1.18z"/>
  </g>
 </g>
</svg>