<svg width="40" height="40" xmlns="http://www.w3.org/2000/svg" data-name="Слой 1">

 <g>
  <title>Layer 1</title>
  <g id="svg_18">
   <path id="svg_1" fill="#222221" d="m19.975,21.81277c-3.11,0 -5.45,-1.06 -5.45,-2.46l0.64,0c0,0.86 2,1.82 4.81,1.82s4.81,-1 4.81,-1.82l0.64,0c0,1.4 -2.34,2.46 -5.45,2.46z" class="cls-1"/>
   <rect id="svg_2" fill="#222221" height="3.18" width="0.64" y="16.17276" x="14.525" class="cls-1"/>
   <rect id="svg_3" fill="#222221" height="3.18" width="0.64" y="16.17276" x="24.785" class="cls-1"/>
   <path id="svg_4" fill="#222221" d="m19.975,17.75277c-2,0 -4.17,-0.53 -4.25,-1.52l-3,-5.91l0.4,-0.2l3.05,6.05c0,0.47 1.44,1.12 3.8,1.12s3.79,-0.65 3.79,-1.12l0,-0.1l3,-6l0.4,0.2l-3,5.91c-0.02,1.04 -2.17,1.57 -4.19,1.57z" class="cls-1"/>
   <path id="svg_5" fill="#222221" d="m19.975,10.10276c-4.27,0 -7.61,-1.47 -7.61,-3.36s3.34,-3.37 7.61,-3.37s7.61,1.48 7.61,3.37s-3.34,3.36 -7.61,3.36zm0,-6.09c-4.17,0 -7,1.41 -7,2.73s2.79,2.73 7,2.73s7,-1.42 7,-2.73s-2.83,-2.73 -7,-2.73z" class="cls-1"/>
   <polygon id="svg_6" fill="#222221" points="25.404998779296875,10.682764053344727 26.825000762939453,7.38276481628418 27.224998474121094,7.592765808105469 25.404998779296875,10.682764053344727 " class="cls-1"/>
   <path id="svg_7" fill="#222221" d="m19.995,36.62277a9.32,9.32 0 0 1 -4.23,-0.87001c-0.18,-0.09 -4.71,-2.36 -4.71,-6.11s4.41,-9 4.6,-9.21l0.58,0.48c0,0.06 -4.43,5.35 -4.43,8.73s4.26,5.42 4.31,5.45a8.79,8.79 0 0 0 3.88,0.78a8.82,8.82 0 0 0 3.84,-0.78s4.31,-2.17 4.31,-5.45s-4.38,-8.67 -4.38,-8.73l0.58,-0.48c0.19,0.23 4.6,5.56 4.6,9.21s-4.53,6 -4.72,6.12a9.42,9.42 0 0 1 -4.23,0.86z" class="cls-1"/>
   <polygon id="svg_8" fill="#222221" points="13.125,7.38276481628418 14.545000076293945,10.682764053344727 12.724998474121094,7.592765808105469 13.125,7.38276481628418 " class="cls-1"/>
   <polygon id="svg_9" fill="#222221" points="17.21500015258789,15.932764053344727 14.814998626708984,11.712764739990234 15.21500015258789,11.512765884399414 17.21500015258789,15.932764053344727 " class="cls-1"/>
   <polygon id="svg_10" fill="#222221" points="22.755001068115234,15.932764053344727 24.744998931884766,11.512765884399414 25.145000457763672,11.712764739990234 22.755001068115234,15.932764053344727 " class="cls-1"/>
   <path id="svg_11" fill="#222221" d="m19.975,12.84277c-4.27,0 -7.61,-1.48 -7.61,-3.37a2,2 0 0 1 0.77,-1.51l0.43,0.47a1.45,1.45 0 0 0 -0.56,1c0,1.32 2.8,2.73 7,2.73s7,-1.41 7,-2.73a1.39,1.39 0 0 0 -0.52,-1l0.44,-0.46a2,2 0 0 1 0.66,1.5c0,1.89 -3.34,3.37 -7.61,3.37z" class="cls-1"/>
   <path id="svg_12" fill="#222221" d="m13.705,29.64276a2.75,2.75 0 0 1 1.66,-1.32a9.72,9.72 0 0 1 2.11,-0.52c0.72,-0.1 1.44,-0.15 2.16,-0.18a19.64,19.64 0 0 1 2.17,0a13.35,13.35 0 0 1 2.17,0.31a5.63,5.63 0 0 1 2.09,0.89a1.67,1.67 0 0 1 0.44,0.5a0.92,0.92 0 0 1 0,0.76a1.72,1.72 0 0 1 -0.92,0.82a6.39,6.39 0 0 1 -2.13,0.48a10.54,10.54 0 0 0 1.93,-0.85c0.28,-0.18 0.55,-0.42 0.59,-0.63s-0.1,-0.36 -0.35,-0.54a10.18,10.18 0 0 0 -3.92,-1a23.79,23.79 0 0 0 -4.22,-0.11a12.16,12.16 0 0 0 -2.08,0.32a2.84,2.84 0 0 0 -1.7,1.07z" class="cls-1"/>
   <path id="svg_13" fill="#222221" d="m23.345,30.02276a7.26,7.26 0 0 1 -3.57,0.82a7.16,7.16 0 0 1 -3.57,-0.82c1.23,0 2.39,0.06 3.57,0.06s2.34,-0.03 3.57,-0.06z" class="cls-1"/>
   <path id="svg_14" fill="#222221" d="m19.975,18.64276c-3.11,0 -5.45,-1.06 -5.45,-2.47a1.61,1.61 0 0 1 0.71,-1.25l0.4,0.5a1.05,1.05 0 0 0 -0.47,0.75c0,0.87 2,1.83 4.81,1.83s4.79,-0.96 4.79,-1.83a1.05,1.05 0 0 0 -0.47,-0.75l0.4,-0.5a1.64,1.64 0 0 1 0.71,1.25c0.02,1.41 -2.32,2.47 -5.43,2.47z" class="cls-1"/>
   <path id="svg_15" fill="#222221" d="m19.975,24.54276a1,1 0 1 1 1,-1a1,1 0 0 1 -1,1zm0,-1.43a0.46,0.46 0 0 0 -0.46,0.46a0.46,0.46 0 0 0 0.92,0a0.46,0.46 0 0 0 -0.46,-0.46z" class="cls-1"/>
   <path id="svg_16" fill="#222221" d="m19.975,27.15277a1,1 0 0 1 0,-1.94a1,1 0 0 1 0,1.94zm0,-1.43a0.47,0.47 0 0 0 -0.46,0.46a0.46,0.46 0 0 0 0.92,0a0.47,0.47 0 0 0 -0.46,-0.46z" class="cls-1"/>
   <path id="svg_17" fill="#222221" d="m27.275,27.47276a9,9 0 0 0 -2.35,-1a17,17 0 0 0 -4.26,-0.48s0,0 0,0.06a18,18 0 0 1 4.15,0.77a8.56,8.56 0 0 1 2.19,1a2.33,2.33 0 0 1 1.22,1.74a2.35,2.35 0 0 1 -1.27,1.67a8.21,8.21 0 0 1 -2.19,0.93a18,18 0 0 1 -4.8,0.6a18.12,18.12 0 0 1 -4.81,-0.6a8.29,8.29 0 0 1 -2.18,-0.93a2.38,2.38 0 0 1 -1.21,-1.59a2.33,2.33 0 0 1 1.22,-1.74a8.56,8.56 0 0 1 2.19,-1a18,18 0 0 1 4.15,-0.77s0,0 0,-0.06a17,17 0 0 0 -4.26,0.48a9,9 0 0 0 -2.35,1a2.81,2.81 0 0 0 -1.53,2.14a2.22,2.22 0 0 0 0.48,1.33a4,4 0 0 0 1,0.88a8.73,8.73 0 0 0 2.34,1a18.46,18.46 0 0 0 5,0.7a18.86,18.86 0 0 0 5,-0.7a9.05,9.05 0 0 0 2.34,-1a2.79,2.79 0 0 0 1.42,-2.26a2.81,2.81 0 0 0 -1.49,-2.17z" class="cls-1"/>
  </g>
 </g>
</svg>