<svg width="40" height="40" xmlns="http://www.w3.org/2000/svg" data-name="Слой 1">

 <g>
  <title>Layer 1</title>
  <g id="svg_16">
   <path id="svg_1" fill="#222221" d="m16.61,14.495a0.69,0.69 0 0 1 0.27,-0.64a2,2 0 0 1 0.6,-0.36a3.78,3.78 0 0 1 1.33,-0.25a3.66,3.66 0 0 1 1.34,0.25a2,2 0 0 1 0.59,0.36a0.68,0.68 0 0 1 0.27,0.64a0.63,0.63 0 0 0 -0.44,-0.37a3.4,3.4 0 0 0 -0.57,-0.15a8.89,8.89 0 0 0 -2.38,0a3.4,3.4 0 0 0 -0.57,0.15a0.63,0.63 0 0 0 -0.44,0.37z" class="cls-1"/>
   <path id="svg_2" fill="#222221" d="m25.48,32.165a1.7,1.7 0 0 1 -0.8,1.38a5.55,5.55 0 0 1 -1.48,0.74a10.62,10.62 0 0 1 -6.44,0a5.55,5.55 0 0 1 -1.49,-0.74a1.7,1.7 0 0 1 -0.8,-1.38a1.7,1.7 0 0 0 1,1.12a6.12,6.12 0 0 0 1.45,0.52a14.12,14.12 0 0 0 6.16,0a6.12,6.12 0 0 0 1.45,-0.52a1.7,1.7 0 0 0 0.95,-1.12z" class="cls-1"/>
   <path id="svg_3" fill="#222221" d="m21.57,11.075l0,0.65c2.17,0.28 3.59,1.1 3.59,1.87c0,0.93 -2.13,2 -5.18,2s-5.18,-1 -5.18,-2s2.13,-2 5.18,-2l0.34,0l0,-0.64l-0.34,0c-3.26,0 -5.82,1.15 -5.82,2.62s2.56,2.61 5.82,2.61s5.82,-1.15 5.82,-2.61c0,-1.2 -1.77,-2.2 -4.23,-2.5z" class="cls-1"/>
   <path id="svg_4" fill="#222221" d="m21.57,10.095l0,0.65c2.62,0.35 4.61,1.51 4.61,2.85l0,19.17a4.47,4.47 0 0 1 -4.47,4.46l-3.44,0a4.47,4.47 0 0 1 -4.47,-4.46l0,-19.17c0,-1.6 2.84,-2.95 6.2,-2.95l0.34,0l0,-0.63l-0.34,0c-3.84,0 -6.84,1.57 -6.84,3.59l0,19.16a5.11,5.11 0 0 0 5.11,5.1l3.46,0a5.11,5.11 0 0 0 5.11,-5.1l0,-19.17c-0.02,-1.73 -2.23,-3.15 -5.27,-3.5z" class="cls-1"/>
   <path id="svg_5" fill="#222221" d="m21.92,12.505l-0.52,0l0,-9.47l-0.73,0l0,9.41l-0.52,0l0,-9.67a0.26,0.26 0 0 1 0.26,-0.25l1.25,0a0.26,0.26 0 0 1 0.26,0.25l0,9.73z" class="cls-1"/>
   <ellipse id="svg_6" fill="#222221" ry="0.4" rx="0.62" cy="2.775" cx="21.03" class="cls-1"/>
   <path id="svg_7" fill="#222221" d="m21.03,3.445c-0.49,0 -0.88,-0.29 -0.88,-0.66s0.39,-0.65 0.88,-0.65s0.89,0.29 0.89,0.65s-0.39,0.66 -0.89,0.66zm0,-0.79c-0.23,0 -0.36,0.1 -0.36,0.13s0.13,0.14 0.36,0.14s0.36,-0.1 0.37,-0.14s-0.13,-0.14 -0.37,-0.14l0,0.01z" class="cls-1"/>
   <path id="svg_8" fill="#222221" d="m14.48,15.055c0.14,1.31 0.2,2.62 0.25,3.92s0.05,2.62 0.07,3.93s0,2.61 -0.07,3.92s-0.11,2.62 -0.25,3.92c-0.13,-1.3 -0.21,-2.61 -0.21,-3.92s0,-2.62 -0.07,-3.92s0,-2.62 0.08,-3.93s0.07,-2.61 0.2,-3.92z" class="cls-1"/>
   <path id="svg_9" fill="#222221" d="m15.43,16.175c0.14,1.3 0.2,2.61 0.25,3.92s0.05,2.62 0.08,3.92s0,2.62 -0.08,3.93s-0.11,2.61 -0.25,3.92c-0.13,-1.31 -0.19,-2.61 -0.24,-3.92s-0.05,-2.62 -0.08,-3.93s0,-2.61 0.08,-3.92s0.08,-2.65 0.24,-3.92z" class="cls-1"/>
   <path id="svg_10" fill="#222221" d="m16.61,16.845c0.13,1.3 0.19,2.61 0.24,3.92s0.05,2.62 0.08,3.92s0,2.62 -0.07,3.93s-0.12,2.61 -0.25,3.92c-0.14,-1.31 -0.2,-2.61 -0.25,-3.92s-0.09,-2.62 -0.09,-3.93s0,-2.61 0.07,-3.92s0.13,-2.62 0.27,-3.92z" class="cls-1"/>
   <path id="svg_11" fill="#222221" d="m25.08,22.445a26.7,26.7 0 0 1 0.32,4.37a26.86,26.86 0 0 1 -0.32,4.37a25.79,25.79 0 0 1 -0.32,-4.37a25.64,25.64 0 0 1 0.32,-4.37z" class="cls-1"/>
   <path id="svg_12" fill="#222221" d="m23.35,23.795a25.71,25.71 0 0 1 0.32,4.37a24.73,24.73 0 0 1 -0.32,4.37a26.78,26.78 0 0 1 -0.32,-4.37a26.78,26.78 0 0 1 0.32,-4.37z" class="cls-1"/>
   <path id="svg_13" fill="#222221" d="m17.95,17.125c0.13,1.3 0.19,2.61 0.24,3.92s0,2.62 0.08,3.92s0,2.62 -0.07,3.93s-0.12,2.61 -0.25,3.92c-0.14,-1.31 -0.2,-2.62 -0.25,-3.92s-0.05,-2.62 -0.07,-3.93s0,-2.61 0.07,-3.92s0.11,-2.6 0.25,-3.92z" class="cls-1"/>
   <path id="svg_14" fill="#222221" d="m19.46,17.125c0.13,1.3 0.19,2.61 0.24,3.92s0.05,2.62 0.08,3.92s0,2.62 -0.08,3.93s-0.11,2.61 -0.24,3.92c-0.14,-1.31 -0.2,-2.62 -0.25,-3.92s-0.05,-2.62 -0.08,-3.93s0,-2.61 0.08,-3.92s0.11,-2.6 0.25,-3.92z" class="cls-1"/>
   <path id="svg_15" fill="#222221" d="m15.67,14.155a1.3,1.3 0 0 1 0.6,-1.11a4,4 0 0 1 1.16,-0.6a7.59,7.59 0 0 1 2.54,-0.41a7.85,7.85 0 0 1 2.54,0.4a4.29,4.29 0 0 1 1.16,0.61a1.3,1.3 0 0 1 0.6,1.11a1.32,1.32 0 0 0 -0.78,-0.85a4.85,4.85 0 0 0 -1.13,-0.38a11.64,11.64 0 0 0 -4.8,0a4.85,4.85 0 0 0 -1.13,0.38a1.32,1.32 0 0 0 -0.76,0.85z" class="cls-1"/>
  </g>
 </g>
</svg>