<svg width="40" height="40" xmlns="http://www.w3.org/2000/svg" data-name="Слой 1">

 <g>
  <title>Layer 1</title>
  <g id="svg_12">
   <path id="svg_1" fill="#222221" d="m24.82,16.025a1.5,1.5 0 0 1 -0.7,1.23a4.58,4.58 0 0 1 -1.3,0.67a9.45,9.45 0 0 1 -5.7,0a4.58,4.58 0 0 1 -1.3,-0.67a1.5,1.5 0 0 1 -0.7,-1.23a1.45,1.45 0 0 0 0.87,1a5.47,5.47 0 0 0 1.27,0.42a12.81,12.81 0 0 0 5.42,0a5.47,5.47 0 0 0 1.27,-0.45a1.45,1.45 0 0 0 0.87,-0.97z" class="cls-1"/>
   <path id="svg_2" fill="#222221" d="m21.65,13.445l0,0.66c2,0.34 3.5,1.25 3.5,2.29l0,15.71a3.72,3.72 0 0 1 -3.72,3.71l-2.92,0a3.72,3.72 0 0 1 -3.72,-3.71l0,-15.76c0,-1.32 2.37,-2.43 5.18,-2.43l0.43,0l0,-0.65l-0.43,0c-3.26,0 -5.82,1.35 -5.82,3.07l0,15.77a4.36,4.36 0 0 0 4.36,4.34l2.92,0a4.36,4.36 0 0 0 4.36,-4.35l0,-15.75c0,-1.41 -1.72,-2.57 -4.14,-2.9z" class="cls-1"/>
   <path id="svg_3" fill="#222221" d="m21.65,11.085l0,0.65c2.11,0.29 3.5,1.11 3.5,1.86c0,0.93 -2.13,2 -5.18,2s-5.18,-1 -5.18,-2s2.13,-2 5.18,-2l0.43,0l0,-0.65l-0.43,0c-3.26,0 -5.82,1.15 -5.82,2.62s2.56,2.61 5.82,2.61s5.82,-1.15 5.82,-2.61c0,-1.18 -1.72,-2.12 -4.14,-2.48z" class="cls-1"/>
   <path id="svg_4" fill="#222221" d="m21.65,10.115l0,0.64c2.57,0.36 4.52,1.51 4.52,2.84l0,19.17a4.46,4.46 0 0 1 -4.46,4.46l-3.45,0a4.46,4.46 0 0 1 -4.46,-4.46l0,-19.17c0,-1.6 2.84,-2.95 6.2,-2.95l0.43,0l0,-0.64l-0.43,0c-3.84,0 -6.84,1.57 -6.84,3.59l0,19.17a5.11,5.11 0 0 0 5.1,5.1l3.48,0a5.11,5.11 0 0 0 5.1,-5.1l0,-19.17c-0.03,-1.71 -2.2,-3.1 -5.19,-3.48z" class="cls-1"/>
   <path id="svg_5" fill="#222221" d="m21.02,14.985c-0.49,0 -0.88,-0.29 -0.88,-0.66l0,-11.55a0.26,0.26 0 0 1 0.26,-0.25l1.25,0a0.26,0.26 0 0 1 0.26,0.25l0,11.55c0,0.37 -0.39,0.66 -0.89,0.66zm-0.36,-11.95l0,11.29s0.13,0.14 0.36,0.14a0.43,0.43 0 0 0 0.37,-0.14l0,-11.29l-0.73,0z" class="cls-1"/>
   <ellipse id="svg_6" fill="#222221" ry="0.4" rx="0.62" cy="2.775" cx="21.02" class="cls-1"/>
   <path id="svg_7" fill="#222221" d="m21.02,3.445c-0.49,0 -0.88,-0.29 -0.88,-0.66s0.39,-0.65 0.88,-0.65s0.89,0.29 0.89,0.65s-0.39,0.66 -0.89,0.66zm0,-0.79c-0.23,0 -0.36,0.1 -0.36,0.13s0.13,0.14 0.36,0.14s0.36,-0.1 0.37,-0.14s-0.13,-0.14 -0.37,-0.14l0,0.01z" class="cls-1"/>
   <path id="svg_8" fill="#222221" d="m19.97,30.625l-1.52,-1.52a4.35,4.35 0 0 1 0,-6.14l1.52,-1.52l1.52,1.52a4.35,4.35 0 0 1 0,6.14l-1.52,1.52zm0,-8.28l-1.07,1.1a3.72,3.72 0 0 0 0,5.24l1.07,1.06l1.07,-1.06a3.72,3.72 0 0 0 0,-5.24l-1.07,-1.1z" class="cls-1"/>
   <rect id="svg_9" fill="#222221" height="5.85" width="0.64" y="24.315" x="19.65" class="cls-1"/>
   <polygon id="svg_10" fill="#222221" points="20.219999313354492,28.22499656677246 19.71999740600586,27.82499885559082 20.96999740600586,26.264997482299805 21.46999740600586,26.66499900817871 20.219999313354492,28.22499656677246 " class="cls-1"/>
   <rect id="svg_11" fill="#222221" transform="rotate(-47.06 -31.21 21.005)" height="1.65" width="0.64" y="60.315" x="-0.43" class="cls-1"/>
  </g>
 </g>
</svg>