<svg width="40" height="40" xmlns="http://www.w3.org/2000/svg" data-name="Слой 1">

 <g>
  <title>Layer 1</title>
  <g id="svg_16">
   <path id="svg_1" fill="#222221" d="m26.48968,12.495a1.79,1.79 0 0 1 0.62,-1.41a4.27,4.27 0 0 1 1.34,-0.84a8.44,8.44 0 0 1 6.15,0a4.27,4.27 0 0 1 1.34,0.84a1.79,1.79 0 0 1 0.62,1.41a1.75,1.75 0 0 0 -0.82,-1.17a4.92,4.92 0 0 0 -1.31,-0.62a10.75,10.75 0 0 0 -5.81,0a4.78,4.78 0 0 0 -1.31,0.62a1.75,1.75 0 0 0 -0.82,1.17z" class="cls-1"/>
   <path id="svg_2" fill="#222221" d="m23.68968,22.605l-0.06,-0.39a6.68,6.68 0 0 0 -0.36,-1.41a7.18,7.18 0 0 0 -0.71,-1.38l-0.23,-0.33l2.46,-1a1.51,1.51 0 0 0 0.8,-1.33l0,-0.17a1,1 0 0 1 0.64,-0.94l0.72,-0.13a1.13,1.13 0 0 1 0.64,0.12l0,0a2.15,2.15 0 0 1 1.12,1.88l0,0.4a3.36,3.36 0 0 1 -1.09,2.43a9.24,9.24 0 0 1 -2.74,1.74l-1.19,0.51zm-0.39,-3.17a7.91,7.91 0 0 1 0.57,1.17a6.47,6.47 0 0 1 0.32,1.12l0.45,-0.17a8.76,8.76 0 0 0 2.54,-1.61a2.75,2.75 0 0 0 0.89,-2l0,-0.4a1.48,1.48 0 0 0 -0.79,-1.31a0.46,0.46 0 0 0 -0.26,-0.06l-0.61,0.11a0.39,0.39 0 0 0 -0.18,0.33l0,0.19a2.16,2.16 0 0 1 -1.14,1.9l-0.19,0.1l-1.6,0.63z" class="cls-1"/>
   <path id="svg_3" fill="#222221" d="m25.90968,16.655a1.9,1.9 0 0 1 -0.56,1.69a2.79,2.79 0 0 1 -0.51,0.36l0,0l-1.9,0.83l0.14,-0.43a6.48,6.48 0 0 1 0.8,1.49l-0.4,-0.18l1.69,-0.61a8.56,8.56 0 0 0 1.6,-0.81a1.79,1.79 0 0 0 0.84,-1.36a1.58,1.58 0 0 0 -0.65,-1.55a1.67,1.67 0 0 1 1,1.55a2.12,2.12 0 0 1 -0.86,1.78a7.37,7.37 0 0 1 -1.67,1c-0.57,0.24 -1.16,0.47 -1.74,0.69l-0.29,0.11l-0.11,-0.3a9,9 0 0 0 -0.69,-1.39l-0.2,-0.3l0.33,-0.12c0.65,-0.24 1.3,-0.46 2,-0.67l0,0a2,2 0 0 0 0.88,-0.64a2,2 0 0 0 0.3,-1.14z" class="cls-1"/>
   <path id="svg_4" fill="#222221" d="m3.73968,31.305a1.37,1.37 0 0 1 -1,-0.57a5.3,5.3 0 0 1 -0.92,-1.62c-0.49,-1.28 -0.58,-2.73 0.18,-3l16.65,-6.46a1.43,1.43 0 0 0 0.8,-0.85a1.19,1.19 0 0 1 0.68,-0.75l0.67,-0.25a1.63,1.63 0 0 1 1.69,0.63a6.32,6.32 0 0 1 1.34,2.19l0,0a6.41,6.41 0 0 1 0.46,2.54c-0.05,0.83 -0.35,1.4 -0.86,1.59l-0.68,0.25a1.2,1.2 0 0 1 -1,-0.09a1.46,1.46 0 0 0 -1.18,-0.1l-16.58,6.44a0.79,0.79 0 0 1 -0.25,0.05zm17.47,-12.95a0.32,0.32 0 0 0 -0.14,0l-0.68,0.25a0.62,0.62 0 0 0 -0.32,0.39a2,2 0 0 1 -1.16,1.21l-16.65,6.49c-0.16,0.07 -0.3,0.91 0.19,2.2a4.58,4.58 0 0 0 0.8,1.41c0.27,0.32 0.47,0.37 0.51,0.35l16.65,-6.45a2.06,2.06 0 0 1 1.69,0.12a0.64,0.64 0 0 0 0.47,0.07l0.68,-0.26c0.24,-0.09 0.41,-0.48 0.44,-1a5.64,5.64 0 0 0 -0.42,-2.33a5.73,5.73 0 0 0 -1.19,-2a1.42,1.42 0 0 0 -0.87,-0.45z" class="cls-1"/>
   <path id="svg_5" fill="#222221" d="m2.65968,26.715c0.17,-0.14 0.43,0 0.61,0.05a2,2 0 0 1 0.48,0.39a3.59,3.59 0 0 1 0.61,1a3.38,3.38 0 0 1 0.22,1.18a1.84,1.84 0 0 1 -0.09,0.61c-0.08,0.19 -0.2,0.43 -0.43,0.45a0.56,0.56 0 0 0 0.12,-0.49a3.15,3.15 0 0 0 -0.09,-0.52a9,9 0 0 0 -0.33,-1a8.35,8.35 0 0 0 -0.42,-1a4.12,4.12 0 0 0 -0.27,-0.45a0.53,0.53 0 0 0 -0.41,-0.22z" class="cls-1"/>
   <path id="svg_6" fill="#222221" d="m20.61968,18.905c0.24,-0.16 0.57,0 0.8,0.12a2.72,2.72 0 0 1 0.62,0.55a5.07,5.07 0 0 1 0.81,1.41a4.94,4.94 0 0 1 0.32,1.58a2.94,2.94 0 0 1 -0.09,0.83c-0.09,0.25 -0.24,0.57 -0.53,0.61a0.77,0.77 0 0 0 0.22,-0.66a5.9,5.9 0 0 0 -0.09,-0.72a10.09,10.09 0 0 0 -0.43,-1.42a9.56,9.56 0 0 0 -0.62,-1.34a4.07,4.07 0 0 0 -0.41,-0.61a0.76,0.76 0 0 0 -0.6,-0.35z" class="cls-1"/>
   <path id="svg_7" fill="#222221" d="m31.51968,16.285c-3.63,0 -6.47,-1.66 -6.47,-3.79s2.84,-3.8 6.47,-3.8s6.48,1.67 6.48,3.8s-2.84,3.79 -6.48,3.79zm0,-6.95c-3.16,0 -5.83,1.45 -5.83,3.16s2.67,3.15 5.83,3.15s5.84,-1.44 5.84,-3.15s-2.67,-3.16 -5.84,-3.16z" class="cls-1"/>
   <path id="svg_8" fill="#222221" d="m37.41968,15.555l-0.74,0a0.32,0.32 0 0 1 -0.32,-0.32l0,-0.84a0.29,0.29 0 0 1 0.11,-0.24a2.81,2.81 0 0 0 0.89,-1.66c0,-0.07 0,-0.13 0,-0.2a0.31,0.31 0 0 1 0.07,-0.26a0.34,0.34 0 0 1 0.35,-0.1c0.65,0.23 0.78,0.38 0.78,0.6l0,0.79a3.4,3.4 0 0 1 -0.89999,2.13a0.29,0.29 0 0 1 -0.24001,0.1zm-0.42,-0.64l0.27,0a2.69,2.69 0 0 0 0.64,-1.59l0,-0.26a3.52,3.52 0 0 1 -0.91,1.46l0,0.39z" class="cls-1"/>
   <path id="svg_9" fill="#222221" d="m25.68968,13.895l-1.13,0l-0.06,-0.24a2.48,2.48 0 0 1 1,-2.61l1.48,-1l-1,1.47a2,2 0 0 0 -0.26,1l-0.03,1.38z" class="cls-1"/>
   <path id="svg_10" fill="#222221" d="m32.99968,23.655a1,1 0 0 1 -0.61,-0.22a1.47,1.47 0 0 1 -0.45,-1.08l0.64,0a0.87,0.87 0 0 0 0.21,0.62l0.11,-0.67l0.14,-0.07a1.28,1.28 0 0 1 1,-0.11a1.12,1.12 0 0 1 0.28,0.16a4.57,4.57 0 0 0 -0.43,-2.76a19.23,19.23 0 0 1 -2.37,0.28a10.56,10.56 0 0 1 -2.59,-0.32l0.1,-0.63a10.17,10.17 0 0 0 2.49,0.31a21.77,21.77 0 0 0 2.49,-0.36l0.21,0l0.12,0.18a5.1,5.1 0 0 1 0.46,3.82l0,0.14l-0.62,0.26l-0.13,-0.29a0.4,0.4 0 0 0 -0.22001,-0.24a0.61,0.61 0 0 0 -0.34999,0l-0.14,0.91l-0.24,0l-0.1,0.07z" class="cls-1"/>
   <path id="svg_11" fill="#222221" d="m32.99968,23.655a1,1 0 0 1 -0.61,-0.22a1.47,1.47 0 0 1 -0.45,-1.08c-0.09,-1.23 -0.74,-1.36 -1,-1.41c-1.49,-0.31 -2.29,-0.93 -2.31,-1.8l0,-0.34l0.36,0a9.63,9.63 0 0 0 2.89,0.29l0.23,0l0.23,0.08l0.06,0.08a5.88,5.88 0 0 1 1.06,3.27l-0.17,1.09l-0.24,0l-0.05,0.04zm-3.5,-4.08a3.2,3.2 0 0 0 1.62,0.75a1.9,1.9 0 0 1 1.45,2a1,1 0 0 0 0.22,0.65l0.07,-0.47a5.1,5.1 0 0 0 -0.86,-2.72l0,0a9.68,9.68 0 0 1 -2.5,-0.21z" class="cls-1"/>
   <path id="svg_12" fill="#222221" d="m31.51968,19.805a10.61,10.61 0 0 1 -3.23,-0.5l0.2,-0.61a9.62,9.62 0 0 0 3,0.47c3.17,0 5.84,-1.45 5.84,-3.16l0,-0.41l-1,0l0,-1.2l0.64,0l0,0.52l0.27,0c0,-0.05 0.09,-0.11 0.15001,-0.2l0.57999,-0.84l0,2.09c0.03,2.13 -2.80999,3.84 -6.45,3.84z" class="cls-1"/>
   <path id="svg_13" fill="#222221" d="m25.57968,17.495a2.56,2.56 0 0 1 -0.53,-1.53l0,-3.47c0,-2.13 2.84,-3.8 6.47,-3.8s6.48,1.67 6.48,3.8l-0.64,0c0,-1.71 -2.67,-3.16 -5.84,-3.16s-5.83,1.47 -5.83,3.16l0,3.47a1.86,1.86 0 0 0 0.41,1.15l-0.52,0.38z" class="cls-1"/>
   <path id="svg_14" fill="#222221" d="m34.38968,13.175a22.49,22.49 0 0 0 -5.62,0a4.76,4.76 0 0 1 1.36,-0.51a6.52,6.52 0 0 1 1.46,-0.15a5.57,5.57 0 0 1 2.8,0.66z" class="cls-1"/>
   <path id="svg_15" fill="#222221" d="m27.30968,13.865a7.84,7.84 0 0 0 2.08,0.65a13.49,13.49 0 0 0 4.27,0a7.84,7.84 0 0 0 2.07999,-0.65a4.59,4.59 0 0 1 -2,1.13a7.87,7.87 0 0 1 -4.51,0a4.54,4.54 0 0 1 -1.92,-1.13z" class="cls-1"/>
  </g>
 </g>
</svg>