<svg width="40" height="40" xmlns="http://www.w3.org/2000/svg" data-name="Слой 1">

 <g>
  <title>Layer 1</title>
  <g id="svg_23">
   <path id="svg_1" fill="#222221" d="m19.00089,13.015c-4.8,0 -9.89,-1.15 -9.89,-3.29l0.68,0c0,1.25 3.81,2.65 9.26,2.65s9.26,-1.4 9.26,-2.65l0.64001,0c-0.05,2.14 -5.16,3.29 -9.95,3.29z" class="cls-1"/>
   <path id="svg_2" fill="#222221" d="m19.00089,36.955c-4.8,0 -9.89,-1.15 -9.89,-3.28001l0.68,0c0,1.25 3.81,2.64 9.26,2.64s9.26,-1.39 9.26,-2.64l0.64001,0c-0.05,2.13 -5.16,3.28001 -9.95,3.28001z" class="cls-1"/>
   <path id="svg_3" fill="#222221" d="m19.00089,23.315a14.09,14.09 0 0 1 3,0.15a7,7 0 0 1 1.49,0.41a2.72,2.72 0 0 1 0.71,0.38a1,1 0 0 1 0.47001,0.76a1.08,1.08 0 0 1 -0.45001,0.79a3.12,3.12 0 0 1 -0.7,0.41a8.07,8.07 0 0 1 -1.5,0.45a15.26,15.26 0 0 1 -6.12,0a7.29,7.29 0 0 1 -1.49,-0.45a3.42,3.42 0 0 1 -0.62,-0.41a1,1 0 0 1 -0.44,-0.79a1,1 0 0 1 0.47,-0.76a2.66,2.66 0 0 1 0.7,-0.38a7.34,7.34 0 0 1 1.49,-0.41a14.09,14.09 0 0 1 3,-0.15a16.67,16.67 0 0 0 -3,0.4a7.48,7.48 0 0 0 -1.41,0.45c-0.42,0.19 -0.91,0.51 -0.91,0.85s0.51,0.62 0.93,0.79a7.6,7.6 0 0 0 1.41,0.41a15.61,15.61 0 0 0 3,0.25a15.47,15.47 0 0 0 3,-0.25a7.18,7.18 0 0 0 1.35,-0.41c0.41999,-0.17 0.91,-0.46 0.94,-0.79s-0.49,-0.66 -0.91,-0.85a7.57,7.57 0 0 0 -1.41999,-0.45a16.55,16.55 0 0 0 -2.99,-0.4z" class="cls-1"/>
   <path id="svg_4" fill="#222221" d="m19.00089,33.075c-3,0 -6,-0.71 -6,-2.07l0,-0.87l0.64,0l0,0.87c0,0.58 2.08,1.43 5.34,1.43s5.35,-0.85 5.35,-1.43l0,-0.87l0.64,0l0,0.87c0.02,1.36 -2.99,2.07 -5.97,2.07z" class="cls-1"/>
   <path id="svg_5" fill="#222221" d="m19.00089,31.635c-3.41,0 -7,-0.83 -7,-2.39l0,-0.08l1.79,-6.64a7.15,7.15 0 0 0 0.24,-1.84l0,-1.58l0.64,0l0,1.58a7.48,7.48 0 0 1 -0.27,2l-1.75,6.59c0.08,0.73 2.49,1.73 6.39,1.73s6.32,-1 6.4,-1.73l-1.76,-6.59a8,8 0 0 1 -0.26,-2l0,-2.07l0.64,0l0,2.07a7.15,7.15 0 0 0 0.24,1.84l1.78001,6.72c-0.04,1.56 -3.67001,2.39 -7.08,2.39z" class="cls-1"/>
   <path id="svg_6" fill="#222221" d="m19.00089,17.415c-1,0 -2.16,-0.22 -2.27,-0.83l-2.05,-4l0.57,-0.29l2.11,4.21a3.48,3.48 0 0 0 1.64,0.29a2.82,2.82 0 0 0 1.66,-0.34l0,-0.09l2.13,-4.1l0.57,0.29l-2.08,4c-0.11,0.64 -1.27,0.86 -2.28,0.86z" class="cls-1"/>
   <path id="svg_7" fill="#222221" d="m24.61089,24.015l-0.62,-0.21s1.1,-3.91 1.27,-4.69a2.43,2.43 0 0 1 1.53,-1.71a1.21,1.21 0 0 1 1.55,0.68l1.63,4.91a0.39,0.39 0 0 0 0.25999,-0.1s-0.93,-3.09 -1.63,-4.9a1.57,1.57 0 0 0 -0.82,-1a1.6,1.6 0 0 0 -1.1,0l-1.89,0.93l-0.27,-0.58l1.92001,-0.87a2.16,2.16 0 0 1 1.61,0a2.21,2.21 0 0 1 1.18,1.33c0.71001,1.84 1.62,4.91 1.63,4.95a0.67,0.67 0 0 1 -0.47,0.84a0.72,0.72 0 0 1 -1,-0.27l-1.65,-5s-0.28,-0.52 -0.7,-0.34a1.78,1.78 0 0 0 -1.2,1.31c-0.13,0.79 -1.18999,4.56 -1.23,4.72z" class="cls-1"/>
   <path id="svg_8" fill="#222221" d="m28.41088,17.555a2.41,2.41 0 0 0 -1.57,-1.2a1.65,1.65 0 0 0 -0.88,0.08l-1.17,0.53l-0.27,-0.58l1.17001,-0.53a2.37,2.37 0 0 1 1.26999,-0.13a3,3 0 0 1 2,1.6l-0.55,0.23z" class="cls-1"/>
   <path id="svg_9" fill="#222221" d="m19.00089,18.805c-3,0 -6,-0.71 -6,-2.07c0,-1.2 2.32,-1.71 3.32,-1.87l0.1,0.63c-2,0.33 -2.78,0.92 -2.78,1.24c0,0.59 2.08,1.43 5.34,1.43s5.35,-0.84 5.35,-1.43c0,-0.32 -0.74001,-0.91 -2.78,-1.24l0.1,-0.63c1,0.16 3.32,0.67 3.32,1.87c0.02,1.39 -2.99,2.07 -5.97,2.07z" class="cls-1"/>
   <path id="svg_10" fill="#222221" d="m19.00089,10.245c-4.8,0 -9.89,-1.15 -9.89,-3.28l0.68,0c0,1.25 3.81,2.64 9.26,2.64s9.26,-1.39 9.26,-2.64l0.64001,0c-0.05,2.13 -5.16,3.28 -9.95,3.28z" class="cls-1"/>
   <path id="svg_11" fill="#222221" d="m28.90089,6.325l-0.64,0c0,-1.25 -3.8,-2.65 -9.26,-2.65s-9.21,1.4 -9.21,2.65l-0.63,0c0,-2.13 5.09,-3.28 9.89,-3.28s9.85,1.15 9.85,3.28z" class="cls-1"/>
   <rect id="svg_12" fill="#222221" height="3.41" width="0.64" y="6.325" x="9.11089" class="cls-1"/>
   <rect id="svg_13" fill="#222221" height="2.09" width="0.64" y="31.755" x="9.11089" class="cls-1"/>
   <rect id="svg_14" fill="#222221" height="2.09" width="0.64" y="31.755" x="28.26089" class="cls-1"/>
   <rect id="svg_15" fill="#222221" height="3.41" width="0.64" y="6.325" x="28.26089" class="cls-1"/>
   <path id="svg_16" fill="#222221" d="m19.00089,35.035c-4.8,0 -9.89,-1.15 -9.89,-3.28c0,-1 1.1,-1.83 3.2,-2.45l0.18,0.61c-1.7,0.51 -2.7,1.2 -2.7,1.89c0,1.25 3.81,2.64 9.26,2.64s9.21,-1.44 9.21,-2.64c0,-0.65 -1,-1.34 -2.78,-1.85l0.17999,-0.61c2.13,0.56 3.24001,1.46 3.24001,2.46c0,2.08 -5.11,3.23 -9.9,3.23z" class="cls-1"/>
   <path id="svg_17" fill="#222221" d="m10.10089,31.045l-0.59,-0.24l0.92,-2.24a7.24,7.24 0 0 0 0.55,-2.8l0,-14.28l0.64,0l0,14.32a7.89,7.89 0 0 1 -0.6,3l-0.92,2.24z" class="cls-1"/>
   <rect id="svg_18" fill="#222221" height="4.46" width="0.64" y="11.485" x="26.37089" class="cls-1"/>
   <path id="svg_19" fill="#222221" d="m27.89089,31.045l-0.92,-2.24a7.89,7.89 0 0 1 -0.6,-3l0,-8l0.64,0l0,8a7.24,7.24 0 0 0 0.55,2.8l0.92,2.2l-0.59,0.24z" class="cls-1"/>
   <path id="svg_20" fill="#222221" d="m13.68089,19.805l-0.12,0a0.49,0.49 0 0 1 -0.35,-0.23c-0.07,-0.09 -0.26,-0.37 -0.05,-1.37a0.53,0.53 0 0 0 0,-0.16a1,1 0 0 1 -0.1,-0.42l0,-0.92l0.64,0l0,0.87a0.31,0.31 0 0 0 0,0.13a0.93,0.93 0 0 1 0.1,0.58a2.08,2.08 0 0 0 -0.07,0.83a1.87,1.87 0 0 0 0.23,-0.17a1.43,1.43 0 0 1 1.13,-0.43l0,0.05l0,-0.06l0.1,0a14.19,14.19 0 0 0 3.81,0.46c3.26,0 5.35,-0.85 5.35,-1.43l0,-0.83l0.64,0l0,0.87c0,1.36 -3,2.07 -6,2.07a14.4,14.4 0 0 1 -4,-0.5a0.86,0.86 0 0 0 -0.63,0.29a1.07,1.07 0 0 1 -0.68,0.37z" class="cls-1"/>
   <path id="svg_21" fill="#222221" d="m19.02089,22.305a1,1 0 1 1 1,-1a1,1 0 0 1 -1,1zm0,-1.43a0.46,0.46 0 0 0 0,0.92a0.46,0.46 0 0 0 0,-0.92z" class="cls-1"/>
   <path id="svg_22" fill="#222221" d="m19.02089,24.915a1,1 0 0 1 0,-1.94a1,1 0 1 1 0,1.94zm0,-1.43a0.46,0.46 0 0 0 -0.46,0.46a0.45,0.45 0 0 0 0.46,0.46a0.46,0.46 0 0 0 0.46,-0.46a0.47,0.47 0 0 0 -0.46,-0.46z" class="cls-1"/>
  </g>
 </g>
</svg>