<svg width="451" height="124" xmlns="http://www.w3.org/2000/svg" xmlns:xlink="http://www.w3.org/1999/xlink" xml:space="preserve" version="1.1">
 <g>
  <title>Layer 1</title>
  <defs transform="translate(1 -66) translate(1 0) translate(0 16) translate(0 12) translate(0 31) translate(15 47) translate(-17 -119) translate(0 1) translate(0 113) translate(0 148) translate(1 -144) translate(0 -78) translate(3 -43) translate(-3 0)">
   <rect height="871.82" width="623.62" y="-14.7" x="-14.17" id="SVGID_1_"/>
  </defs>
  <clipPath transform="translate(1 -66) translate(1 0) translate(0 16) translate(0 12) translate(0 31) translate(15 47) translate(-17 -119) translate(0 1) translate(0 113) translate(0 148) translate(1 -144) translate(0 -78) translate(3 -43) translate(-3 0)" id="SVGID_2_">
   <use x="1" y="-82" id="svg_3" xlink:href="#SVGID_1_"/>
  </clipPath>
  <g id="svg_18">
   <path id="svg_19" fill="#F7C852" d="m182.29294,157.51125c-3.88998,-0.91998 -7.27002,-1.33002 -9.10001,-1.51001c0.14999,-1.67999 0.29999,-3.44 0.45999,-5.26001c4.39001,-0.13995 18.56,-0.76001 24.72,-2.88c7.33002,-2.51996 30.03,-11.52997 30.03,-11.52997s-15.95999,1.27997 -24.54999,2.63c-7.07001,1.10999 -24.06,6.31 -29.88,8.13c0.16,-1.94 0.33002,-3.94 0.5,-6c5.64001,-1.03003 20.79001,-3.94 27.49002,-6.63c8.32999,-3.34003 20.62,-12.54999 20.62,-12.54999s-13.53,8.39996 -20.5,8.64996c-6.97,0.25 -12.08002,-0.33002 -18.64999,2.47998c-4.10001,1.75 -7.03,3.22003 -8.64001,4.08002c0.20001,-2.51001 0.41,-5.09998 0.61002,-7.76996c4.5,-0.07001 17.63998,-0.46002 23.66,-2.53003c7.31998,-2.52002 30.10999,-9.95001 30.10999,-9.95001s-12.84,2.13 -22.29999,2.12c-7.97,-0.01001 -25.81,5.36005 -31.21002,7.04999c0.09,-1.27997 0.19,-2.57996 0.28,-3.88995c4.27002,-0.5 18.20001,-2.29004 24.56,-4.91003c7.56003,-3.12 32.53,-15.38 32.53,-15.38s-13.56998,3.57001 -23.41998,4.61005c-8.38,0.88 -27.79001,9.47998 -33.39999,12.01996c0.14999,-2.12 0.29999,-4.26996 0.44998,-6.45001c2.86002,-0.66998 11.99002,-2.87 17.22,-4.88995c6.25,-2.42004 14.79001,-5.85004 21.66,-7.17004c6.87,-1.31995 18.41,-2.73999 18.41,-2.73999s-28.29001,-0.17999 -37.78,3.06c-7.5,2.56 -16.10001,7.70001 -19.37,9.75c0.18997,-2.79999 0.37997,-5.65997 0.56,-8.56c4.06,-0.66998 16.67999,-3.03998 24.67999,-7.53998c9.64001,-5.41998 30.20001,-22.28998 30.20001,-22.28998s-12.23001,7.69 -21.56,11.84998c-8.21002,3.65997 -28.43002,13.35999 -33.18002,15.63c0.14001,-2.16998 0.27002,-4.35999 0.40002,-6.57001c4.85999,-1.22998 20.95999,-5.53998 28.41,-10.21997c8.82999,-5.55005 26.47998,-17.53003 26.47998,-17.53003s-19.22998,7.59003 -30.26001,12.13c-9.04999,3.72998 -20.62997,10.42999 -24.47998,12.71002c0.10999,-2.17004 0.20999,-4.27002 0.26999,-6.31c2.79001,-1.51001 16.31,-8.87006 23.5,-14.41003c8.05002,-6.20001 23.03,-21.08002 23.03,-21.08002s-16.28,9.75 -26.19,16.78003c-8.34,5.90997 -17.54999,13.79999 -20.26999,16.15997c0.07001,-3.07001 0.09,-5.97998 0.04999,-8.73999c3.02002,-1.37 11.20001,-5.35999 18.31,-11.40997c8.92001,-7.58002 18.67001,-17.77002 18.67001,-17.77002s-12.54001,6.71002 -20.91,13.29999c-6.16,4.85004 -12.94998,10.65002 -16.12,13.39001c-0.05002,-2.20001 -0.13,-4.29999 -0.24002,-6.29999c2.85001,-1.87 10.86002,-7.28003 16.20001,-12.48004c6.58002,-6.41998 15.22,-16.85999 15.22,-16.85999s-6.82001,6.15002 -14.97998,11.28003c-6.55002,4.12 -13.94,12.45996 -16.59003,15.57996c-0.15997,-2.34998 -0.35999,-4.53998 -0.57999,-6.60999c2.45001,-1.67999 10.37,-7.26996 12.88,-10.78998c2.97998,-4.19 12.32999,-16.92999 12.32999,-16.92999s-10.06,9.20996 -15.09,13.81c-3.63,3.33002 -8.12,9.10999 -10.32999,12.07001c-0.22,-1.82001 -0.46002,-3.53003 -0.72,-5.13c3.10999,-2.13 12.69998,-8.85004 14.04999,-11.63c1.62,-3.33002 10.57001,-15.03003 10.57001,-15.03003s-7.95001,8.64001 -13.57001,13.88c-4.04001,3.77002 -8.94998,8.42999 -11.38998,10.76001c-0.25,-1.41998 -0.51001,-2.73999 -0.78,-3.96997c1.56,-1.69 7.42999,-8.04004 10.31998,-10.94c3.34,-3.36005 9.31,-11.73004 9.31,-11.73004s-5.40997,5.15002 -9.07999,8.90002c-2.97,3.03998 -8.81,9.71997 -10.92001,12.15002c-0.22998,-0.99005 -0.47,-1.91003 -0.70999,-2.77002c1.51001,-1.40002 7.67999,-7.21002 10.06,-10.66003c2.71002,-3.94995 7.17001,-12.88995 7.17001,-12.88995s-5.45001,6.15997 -9.66,11.76996c-3.26999,4.36005 -6.63,8.67999 -7.95999,10.38c-0.24002,-0.82001 -0.48001,-1.56 -0.71002,-2.22998c1.13,-1.25 3.90002,-4.57001 5.60001,-8.64001c2.16,-5.19 5.06,-12.33002 5.06,-12.33002s-4.94998,3.95001 -7.87,10.22003c-1.98001,4.26001 -2.79001,7.92999 -3.10001,9.84997c-0.85999,-2.39996 -1.56,-3.77997 -1.85001,-4.32001c0.54001,-0.75 2.22,-3.32996 2.90002,-7.34998c0.81998,-4.84003 1.00998,-10.27002 1.00998,-10.27002s-4.06,3.42999 -4.00998,6.89002c0.04999,3.46002 -0.13,5.28003 -0.13,5.28003s-0.44,-3.78003 -2.41,-7.63c-1.95999,-3.85004 -6.75,-7.04999 -6.75,-7.04999s2.69,9.60999 4.54001,12.38995c1.50998,2.29004 3.06998,5.04004 3.94998,6.64001c-0.75998,-0.79999 -2.09,-2.09998 -3.94,-3.53998c-3.03998,-2.37 -6.84998,-3.66003 -6.84998,-3.66003s1.98999,3.64001 5.19998,5.56c3.23999,1.92999 3.44,1.76001 5.88,3.21002c0.22,1.38 1.34,4.77997 1.69,7.33002c-1.20001,-1.71002 -3.76999,-5.06 -7.10001,-7.56c-4.66998,-3.51001 -12.62,-8.79004 -12.62,-8.79004s7.79001,8.83002 12,11.29999c3.20999,1.88 6.44,4.47003 7.79999,5.60003c0.17001,1.27002 0.36002,2.67999 0.54001,4.17999c-1.66,-1.96002 -4.54999,-5.19 -7.13,-7.09003c-3.88998,-2.85998 -4.35999,-2.52997 -9.23999,-5.94995c-4.88,-3.42004 -10.32001,-8.94 -10.32001,-8.94s3.38,8.67999 6.95001,10.57001c3.57001,1.88995 6.22,5.62994 11.09,8.17999c3.35001,1.75995 7.01001,4.29999 8.94998,5.69995c0.17001,1.42004 0.33002,2.92004 0.49002,4.49005c-2.34,-2 -7.28,-6.05005 -11.70999,-8.63c-6.04001,-3.52002 -19.94,-9.86999 -19.94,-9.86999s11.81998,9.50995 16.32999,12.09997c3.79999,2.17999 12.84,7.59003 15.59,9.23999c0.17999,1.95001 0.35001,4 0.51001,6.10999c-2.78,-2.81 -8.86002,-8.79999 -13.39001,-12.06995c-6.06,-4.38 -19.56,-12.65002 -19.56,-12.65002s11.28,12.73999 17.89999,17c5.25,3.38 12.47,8.37 15.24002,10.28998c0.14999,2.31 0.28,4.70001 0.38998,7.14001c-2.51999,-2.92999 -10.82999,-12.46002 -15.09,-15.67999c-5.06,-3.83002 -19.85999,-12.76001 -19.85999,-12.76001s12.87,13.52002 17.84,17.15002c4.31,3.13995 14.54001,11.63995 17.20999,13.85999c0.07001,2.25 0.12,4.52997 0.13998,6.83997c-3.54999,-2.85999 -13.31998,-10.83997 -16.69,-14.77997c-4.14999,-4.85999 -5.17999,-3.53003 -10.22,-7.87c-5.03998,-4.34003 -11.94,-11.45001 -11.94,-11.45001s4.89001,10.12 8.92001,13.03998c4.04001,2.92004 5.89999,8.49005 10.64001,12.15002c7.5,5.81 15.89999,10.09003 19.28998,11.72998c-0.00998,2.28003 -0.04999,4.57001 -0.13,6.87c-3.00998,-2.81995 -14.09,-13.10999 -18.5,-16.27997c-5.12,-3.67999 -22.64999,-14 -22.64999,-14s8.93002,7.20001 12.83002,10.92999c3.89999,3.72998 4.89999,8.75 11.32999,12.59003c5.01001,2.98999 13.39999,7.47998 16.87003,9.32996c-0.06,1.23999 -0.13,2.48999 -0.21002,3.73004c-0.09,1.23999 -0.17999,2.51996 -0.26999,3.84998c-2.41,-2.10999 -7.62,-6.48999 -13.17999,-10c-7.61002,-4.79999 -12.55002,-4.46002 -18.5,-9.15002c-5.94,-4.67999 -12.95003,-12.87 -12.95003,-12.87s4.88002,11.5 10.68001,14.75c5.80002,3.25 12.15002,5.52002 15.21002,8.75c3.06,3.23004 4.87997,5.65002 9.37997,7.37c3.13,1.20001 7.10001,2.38 9.22,3c-0.22998,3.08002 -0.5,6.36005 -0.78,9.78003c-2.60999,-2.66998 -12.35999,-12.52002 -18.42999,-16.77002c-7.04999,-4.94 -26.39999,-13.20001 -26.39999,-13.20001s12.47,8.73004 17.98999,13.60004c5.53,4.87 9.47,9.82001 14.85001,12.39001c3.95999,1.89996 9.29001,4.59998 11.82001,5.88995c-0.17999,2.19 -0.38,4.43005 -0.58002,6.71002c-3.59,-3.09003 -13.44,-11.52997 -18.67999,-15.62c-6.47998,-5.06 -25.88998,-17.65002 -25.88998,-17.65002s13,10.48004 15.82999,14.32001c2.83002,3.83002 8.38,10.42999 14.67001,14.21002c4.76999,2.87 11.07999,6.13 13.84,7.53998c-0.24002,2.66003 -0.48001,5.35004 -0.72,8.04004c-2.70001,-2.68005 -10.47,-10.18005 -17.27002,-14.60004c-8.39999,-5.45001 -30.50999,-13.22998 -30.50999,-13.22998s10.41001,4.67999 16.22001,10.16998c5.79999,5.48999 14.69,13.70001 20.56998,16.29999c3.95001,1.75 8.30002,3.49005 10.72,4.44c-0.15997,1.67999 -0.31,3.36005 -0.47,5.03003c-2.75998,-1.97998 -9.26001,-6.54004 -15.81,-10.22003c-8.63,-4.84998 -35.77,-18.33997 -35.77,-18.33997s17.06998,13.81 24.4,19.31c7.32001,5.5 11.70999,7.07001 26.89999,12.23999c-0.19998,2.06 -0.38998,4.10999 -0.57999,6.13c-1.31,-1.58002 -4.67001,-4.12 -13.08002,-7.62c-15.41,-6.41998 -35.32001,-10.09003 -35.32001,-10.09003s11.43003,4.72003 17.02003,8.07001c4.91,2.94 25.97,11 31.07001,12.94c-0.17001,1.75 -0.34003,3.47998 -0.5,5.16998c-1.74002,-1.84998 -5.76001,-5.40997 -12.68002,-7.81c-9.70999,-3.38 -26.94,2.57001 -26.94,2.57001s16.56003,-3.27997 21.93002,-0.70996c5.37,2.56995 4.92999,4.63995 9.03,6.03998c2.76999,0.95001 6.38998,1.73999 8.44,2.15997c-0.19,1.97003 -0.31,2.81 -0.49002,4.65002c-2.59,-1.92999 -9.75,-4.37 -15.97998,-4.21002c-7.99002,0.21002 -12.36002,3.5 -12.36002,3.5s6.05002,-0.08997 12.07001,1.70001c4.81,1.42999 13.01001,1.19 16.10001,1.04004c-1.33002,13.53998 -2.33002,23.13995 -2.33002,23.13995l4.70001,-2.83997c0,0 0.91,-8.57001 2.17999,-22.72003c2.77002,1.39001 10.07001,4.81 17,5.84003c8.78,1.29999 24.55002,-0.39001 24.55002,-0.39001s-12.64001,-0.20001 -17.73001,-1.28998c-5.14001,-1.20001 -8.73001,-3.95001 -14.56,-5.33002z" class="st8"/>
  </g>
  <g id="svg_20">
   <path id="svg_21" fill="#306054" d="m367.41293,65.82124c0,0 -6.62,3.09998 -10.32996,8.71997c-3.71008,5.62006 5.60999,13.40002 1.38995,16.49005c-4.22003,3.08997 -6.16998,-9.74005 -6.16998,-9.74005s-8.79999,9.18005 -7.41003,15.43005c1.38,6.25 12.12006,7.44 10.96002,13.64996c-1.15997,6.21002 -12.38,-3.58997 -12.38,-3.58997s-4.14001,8.28998 -0.51996,15.58997c3.62,7.29004 10.14996,0.58002 9,6.79004c-1.15002,6.20996 -8.5,-0.63 -8.5,-0.63s0.27997,6.27997 5.00995,9.89996s16.97998,2.45001 16.97998,2.45001s2.91003,-1.33002 -4.40997,5.37c-3.97003,3.64001 -13.06,6.41998 -13.06,6.41998l0.73999,2.96002c0,0 5.58002,-1.59003 12.30005,-6.28998c6.70996,-4.71002 7.73993,-6 7.73993,-6s-4.11993,9.64996 -0.10999,22.88995c1.95001,6.44 11.29004,5.43005 11.29004,5.43005s-8.44006,-14.22003 -3.41003,-15.79004c5.03003,-1.57001 4.59003,6.48999 8.91998,15.64001c4.33002,9.15002 19.49005,-1.19 19.49005,-1.19s-10.42004,-5.94 -9,-10.60999c1.41998,-4.67004 9.72998,5.19 15.66998,8.44c5.94,3.26001 13.15997,-6.76001 13.15997,-6.76001s-17.27002,-7.10004 -16.56995,-9.97998c0.69995,-2.89001 15.85999,3.94 21.20996,6.10999c5.35999,2.16998 10.51001,-11.21002 10.51001,-11.21002s-15.32001,-1.92999 -15.21997,-6.45996c0.09998,-4.53003 10.32001,0.40997 17.96997,-2c7.65997,-2.42004 6.79004,-13.98004 6.79004,-13.98004s-12.54004,6.10004 -15.42004,1.77002c-2.88,-4.33002 2.98999,-0.91998 14.77997,-5.06c6.94,-2.42999 4.03003,-13.90002 4.03003,-13.90002s-6.64996,4.72003 -11.83997,0.78003c-5.18005,-3.94 5.35999,-7.66003 9.28998,-9.20001c3.92999,-1.53998 -0.42004,-11.23999 -0.42004,-11.23999s-15.64996,9.69 -17.63995,5.45001c-1.99005,-4.25 6.89996,-1.21002 13.25,-8.42004c3.40997,-3.85999 -2.31,-7.98999 -2.31,-7.98999s-2.36005,3.95001 -9.93005,8.10004c-2.66992,1.46997 -4.19995,2.75 -7.90997,0.52997c-3.69995,-2.21002 6.83002,-5.40002 9.82001,-7.41998c7.76001,-5.26001 0.64001,-6.87 -2.42999,-9.98004c-3.07001,-3.10999 -1.57996,-7.25 -5.76996,-7.44995c-7.61005,-0.35004 -7.22003,17.59998 -13.24005,9.63c-2.54999,-3.37 1.44,-13.39001 1.44,-13.39001s-5.14996,-2.22998 -8.34003,0.15997c-5.95996,4.48999 -0.80994,13.07001 -6.89996,12.13c-6.09003,-0.94 -0.85999,-10 -0.85999,-10s-1.31006,-1.38 -7.43005,0.77002c-6.11993,2.14996 -2.35999,7.95001 -4.03992,7.59998c-6.11005,-1.26001 -0.28003,-8.35999 -0.28003,-8.35999s-4.42004,-0.42999 -10.29999,2.71002c-5.87006,3.13995 0.31995,11.63995 -3.48004,12.91998c-6.53998,2.21002 -6.10999,-8.19 -6.10999,-8.19zm30.83997,28.12c-3.88995,-1.17999 -2.82996,-16.21002 2.16003,-14.85999c4.98004,1.34998 2.63,16.31 -2.16003,14.85999zm-12.41992,-9.37c4.80994,-0.64001 5.75,22.81 2.47998,22.81c-3.27002,-0.01996 -6.22998,-22.32001 -2.47998,-22.81zm20.28992,12.70001c-0.98999,-3.72998 19.02002,-4.90002 19.22003,-0.72003c0.22003,4.40002 -18.22998,4.45001 -19.22003,0.72003zm-6.75,25.37c0.27002,-4.65997 29.57007,-0.25 27.96002,3.20001c-1.39996,3.01001 -28.22998,1.45996 -27.96002,-3.20001zm-4.03998,11.44c1.73004,-1.92999 23.13007,5.14001 20.89001,7.34998c-3.26996,3.26001 -22.60999,-5.41998 -20.89001,-7.34998zm19.65997,-22.40002c2.03003,-5.59998 17.68005,-6.37 18.14001,-2.22998c0.52002,4.75 -20.16998,7.83002 -18.14001,2.22998zm-15.65997,-3.23999c-0.01996,-4.25 15.16003,-4.12 12.73004,1.03003c-2.52002,5.37 -12.71002,3.22998 -12.73004,-1.03003zm-37.58002,-6.73999c2.55005,-1.82001 8.79004,15.16998 7.04004,15.88c-4.01001,1.60999 -11.78998,-12.48999 -7.04004,-15.88zm9.63007,-18.82001c4.13995,0.56 6.88995,26.42999 3.13995,26.92999c-3.73999,0.5 -6.50995,-27.38 -3.13995,-26.92999zm15.85992,-9.97998c2.30005,0.78003 2.92999,11.34998 -1.82001,9.5c-4.74994,-1.85004 -1.95996,-10.78003 1.82001,-9.5z" class="st2"/>
  </g>
  <g id="svg_22">
   <path id="svg_23" fill="#3C7361" d="m153.75293,80.07124c0.48001,-0.42999 3.03,-1.62 4.35001,-1.96002c-0.20001,0.05005 -1.20999,-2.77997 -1.31,-3.07001c-0.17999,-0.52997 -0.31,-1.06995 -0.48001,-1.59998c-0.13998,-0.42999 -0.42999,-0.76001 -0.56,-1.20001c-0.72,0.28003 -1.35001,0.75 -1.98001,1.20001c-1.44998,1.03003 -2.97998,1.94 -4.57999,2.72998c-1.13,0.56 -2.32001,1.06 -3.57001,1.27002c-0.62,0.10999 -1.22,0.10999 -1.85001,0.07001c-0.16998,-0.01001 -1.69998,0.06 -0.91998,-0.47003c0.13,-0.07996 0.28,-0.10999 0.42999,-0.12994c2.47,-0.42004 4.33002,-2.39001 6.47,-3.69c1.53,-0.93005 3.30002,-1.59003 4.42999,-2.98004c-0.38998,-1.72998 -1.23999,-3.33997 -2.28998,-4.76996c-0.71002,-0.97003 -1.51001,-1.87 -2.33002,-2.74005c-0.63998,-0.67999 -1.32001,-1.84998 -2.14999,-2.29999c-0.64999,-0.34998 -1.44,-0.02997 -2.10001,0.29004c-1.79001,0.88 -3.54999,1.82996 -5.41,2.54999c-1.09,0.41998 -2.22,0.76996 -3.37,0.96997c-0.66,0.12 -2.60999,0.63 -3.07001,-0.01996c1.35001,-1.05005 2.99002,-1.88 4.45001,-2.80005c1.51999,-0.94995 3.06,-1.87 4.70001,-2.59998c1.19998,-0.53998 2.44998,-0.96997 3.59998,-1.62c0.12003,-0.07001 0.24002,-0.14001 0.30002,-0.26001c0.06,-0.10999 0.06,-0.25 0.04999,-0.38c-0.07999,-0.79999 -0.47,-1.53998 -0.88,-2.23999c-1.41998,-2.41998 -3.22998,-4.46997 -5.06998,-6.57001c-0.04001,-0.04999 -0.09003,-0.09998 -0.14001,-0.13c-0.23999,-0.14001 -0.51999,0.10004 -0.69,0.32001c-1.10999,1.38 -2.19998,2.78003 -3.51001,3.97003c-0.89999,0.81995 -1.90997,1.53998 -3.03,2.03998c-0.89999,0.40002 -2.63998,0.59998 -1.47998,-0.84003c2.07999,-2.57996 4.41,-4.95996 6.92999,-7.10999c0.17001,-0.14001 0.34,-0.28998 0.42001,-0.48999c0.09,-0.22998 0.03998,-0.5 -0.02002,-0.73999c-0.47,-1.90002 -1.47998,-3.60999 -2.62,-5.17999c-1.16,-1.59003 -2.32001,-3.15002 -3.56,-4.67999c-0.97,-1.20001 -1.92999,-2.41003 -2.85999,-3.63c-1.21002,-1.59002 -2.36002,-3.22003 -3.56004,-4.81c-0.59998,-0.79004 -1.22,-1.58002 -1.85999,-2.34003c-0.29001,-0.34998 -0.61002,-0.85999 -0.98999,-1.12c-0.13,-0.09003 -0.66,-0.41998 -0.80002,-0.32001c-0.06,0.03998 -0.07999,0.09998 -0.10999,0.16003c-0.52002,1.28998 -0.31,2.73999 -0.42999,4.12994c-0.13,1.45001 -0.62003,2.85004 -1.17001,4.20001c-0.54999,1.35998 -1.23001,2.77002 -2.45999,3.57c-0.65002,0.41998 -0.77002,-0.59998 -0.77002,-1.04999c-0.03,-2.27002 0.28,-4.52002 0.43002,-6.78998c0.09998,-1.52002 0.12,-3.08002 -0.34003,-4.53003c-0.78,-2.47998 -2.81998,-4.33002 -4.92999,-5.84998c-2.32999,-1.67004 -4.81,-2.89001 -7.37,-4.15002c-2.49002,-1.22998 -4.83002,-3.07001 -6.88,-4.91998c-1.45999,-1.32001 -2.82001,-2.75 -4.06,-4.28003c-0.26999,-0.32996 -1.12,-1.70001 -1.63998,-0.96997c-0.20001,0.28998 -0.15002,0.67999 -0.10001,1.02997c0.54001,3.48999 0.10001,7.06 -0.38,10.56c-0.63,4.54004 -1.34,9.09003 -2.5,13.53003c-0.47,1.79999 -1.00998,3.59998 -1.17001,5.45001c-0.22998,2.79999 0.85001,5.22998 2.29001,7.57996c1.26999,2.09003 3.10001,3.84003 5.23001,5.03003c1.09,0.60999 2.26001,1.07001 3.31,1.76001c0.72998,0.47998 1.91,1.77997 2.04999,2.63995c0.15002,0.93005 -0.89999,1.23004 -1.70999,1.71002c-0.81,0.47998 -1.81,0.54999 -2.74002,0.44c-2.02997,-0.25 -3.85999,-1.33002 -5.60999,-2.40002c-1.03,-0.62994 -2.04999,-1.25995 -3.06,-1.91998c-0.92999,-0.59998 -1.97998,-1.02997 -3.03,-1.40997c-0.25,-0.09003 -0.60001,-0.14001 -0.70999,0.10999c-0.04001,0.09998 -0.02002,0.21997 0.00998,0.33002c0.28,0.91998 1.09,1.56 1.77002,2.23999c1.16,1.15997 2.04001,2.58002 2.89999,3.97998c1.02002,1.66003 2.03,3.32001 3.05002,4.98004c1.41,2.29999 2.42996,4.57996 3.01999,7.21997c0.56998,2.51001 0.85999,5.08002 1.31,7.60999c0.20999,1.16003 0.44,2.32001 0.76001,3.46002c0.24997,0.89001 0.44,1.77002 1.49997,2c0.32004,0.07001 0.64001,0.02002 0.96002,-0.03998c3.35001,-0.60004 6.44,-2.23004 9.78998,-2.83002c0.94003,-0.16998 2.20001,-0.48004 2.96002,0.08997c0.50998,0.38 0.57999,1.25 0.79001,1.85004c0.51999,1.51996 1.12997,3.89001 -0.47003,4.96997c-0.74997,0.51001 -1.69,0.64001 -2.59998,0.75c-1.32001,0.15002 -2.65002,0.26001 -3.98001,0.23004c-1.20999,-0.02002 -2.42001,-0.16003 -3.56,-0.56c-0.95999,-0.34003 -1.85001,-0.87006 -2.73001,-1.40002c-0.56,-0.34003 -1.13,-0.67999 -1.69,-1.01001c-0.13,-0.08002 -0.26999,-0.15997 -0.41998,-0.15997c-0.37,0 -0.57001,0.44995 -0.60001,0.82001c-0.14999,1.51996 0.74002,2.90997 1.34,4.31995c1.01001,2.38 1.39001,5.07001 1.94,7.59003c0.26001,1.15997 0.78,2.25 1.13998,3.39001c0.39001,1.22998 0.69,2.47998 0.90002,3.75c0.23999,1.41998 0.36002,2.85999 0.37,4.29999c0.00998,1.15002 0,2.45001 0.85001,3.22998c0.56,0.52002 1.37,0.67004 2.14001,0.70001c5.25998,0.26001 10.20999,-3.44 15.42999,-2.76001c0.60999,0.08002 1.31998,0.26001 1.57999,0.88c0.19,0.45001 -0.09,0.84003 -0.10999,1.29999c-0.05002,1.41003 -0.53,2.40002 -1.70001,3.25c-0.89999,0.65002 -1.95001,1.07001 -2.98999,1.48004c-1.15002,0.45996 -2.31,0.91998 -3.54001,1.07996c-1.56,0.21002 -3.14001,-0.07996 -4.71002,0c-0.75998,0.04004 -1.51999,0.16003 -2.26996,0.08002c-0.82004,-0.08002 -1.73004,-0.37 -2.42001,0.09003c-0.12,0.07996 -0.23001,0.19 -0.25003,0.32996c-0.00998,0.09003 0.02002,0.19 0.05002,0.28003c0.67999,2 2.12003,3.59998 3.39001,5.25c0.60999,0.78998 1.10001,1.58002 1.55997,2.45001c0.53003,1.01001 1.5,1.92999 2.20004,2.82996c0.09,0.11005 0.18997,0.23004 0.31998,0.27002c0.10001,0.03003 0.20999,0.01001 0.31,-0.01001c3.95001,-0.70001 7.81,-1.87 11.48001,-3.47998c1.06,-0.46002 2.12,-0.97003 3.27,-1.10999c0.81,-0.10004 1.57001,1.01001 0.62,2.03998c-2.25999,2.45001 -5.35999,3.95001 -8.55,4.88c-1.67001,0.48999 -3.38,0.85999 -5.10001,1.07001c-0.86002,0.09998 -1.73999,0.09998 -2.59998,0.20001c-0.88004,0.09998 -1.81003,-0.09003 -2.69,-0.19c0.19998,0.72998 0.63998,1.37 1.09,1.98999c3.15997,4.31 7.23999,7.90997 11.81,10.67999c0.65997,0.40002 1.34,0.79999 2.06998,1.04999c0.53,0.17999 1.12003,0.14001 1.67001,0.23999c1.39999,0.25 2.84,0.10004 4.22001,-0.16998c4.54001,-0.88 8.94,-3.14001 11.69,-6.85999c0.41998,-0.57001 0.88,-0.89001 1.39999,-1.58002c0.51999,-0.67999 1.39001,0.94 1.25,1.47003c0.29999,3.70996 0.69,7.41998 1.17001,11.10999c0.03,0.22998 0.06,0.46997 0.18997,0.66998c0.15002,0.23999 0.42001,0.38 0.68002,0.5c1.35999,0.59998 2.91998,0.72003 4.35001,0.34003c0.10999,-0.03003 0.22998,-0.07001 0.29999,-0.15002c0.07999,-0.09003 0.10999,-0.22998 0.12,-0.34998c0.72,-5.99005 -4.07999,-11.69 -3.10001,-17.65002c4.02002,-1.58002 8.53,-1.22998 12.73001,-2.20001c0.85999,-0.20001 1.73001,-0.45996 2.45001,-0.97998c2.37,-1.70001 2.87997,-5.21002 3.59998,-7.82001c0.10001,-0.34998 0.19,-0.75 0.03,-1.08002c-0.47,-0.04999 -0.91998,0.19 -1.34,0.41003c-0.51999,0.26001 -4.16,1.95996 -3.69998,0.42999c0.19998,-0.69 1.16,-1.34003 1.70999,-1.73999c0.70001,-0.51001 1.48001,-0.92004 2.29999,-1.20001c0.37,-0.13 0.79001,-0.26001 0.99002,-0.59998c0.09998,-0.16003 0.12,-0.36005 0.14999,-0.55005c0.28,-2.13 0.22,-4.27997 0.16,-6.42999c-0.09,-2.94 -0.04001,-5.91998 -0.35001,-8.84998c-0.01999,-0.16003 -0.04001,-0.34003 -0.16,-0.45001c-0.13998,-0.13 -0.35999,-0.12 -0.54999,-0.08002c-0.58002,0.13 -1.07001,0.48999 -1.53,0.85004c-1.94,1.5 -3.76001,3.13995 -5.67001,4.66998c-0.95999,0.77002 -1.95001,1.52002 -2.98001,2.20001c-0.47998,0.32001 -2.75,2.10999 -2.53998,0.56c0.03998,-0.28003 0.19,-0.53003 0.34,-0.77002c1.41,-2.22998 3.31,-4.10999 5.19,-5.96002c2.35001,-2.31 4.85001,-4.70996 8.01999,-5.59998c-0.07001,-0.96997 -0.66998,-1.82001 -1.20999,-2.63c-1.19,-1.77997 -2.22,-3.66998 -3.17001,-5.58997c-0.95999,-1.94 -1.94998,-3.78003 -3.07999,-5.63c-0.17001,-0.28003 -0.38,-0.59003 -0.70001,-0.67999c-0.22998,-0.06 -0.47998,0.00995 -0.70999,0.07996c-1.17001,0.36005 -2.34,0.72003 -3.51001,1.08002c-0.41,0.13 -2.23999,-0.20001 -1.34,-1z" class="st5"/>
  </g>
  <g id="svg_24">
   <path id="svg_25" fill="#79932D" d="m70.11294,105.32124c3.70999,3.67999 11.93997,-19.46997 11.93997,-19.46997s6.37003,2 13.46002,13.94995c-0.82001,8.82001 -11.92999,8.42999 -10.42001,14.39001c3.63,14.31 14.35001,-4.67999 14.73001,-2.58002c2.57999,14.13 -2.51999,29.74005 -16.10999,31.92004c-2.70001,0.42999 -8.61002,0.44 -12.36002,-3.40002c1.51001,-0.13 1.60999,-0.46997 4.54999,-1.70001c4.29999,-1.79999 4.98001,-3.48999 0.03003,-1.51996c-3.18002,1.25995 -4.20001,1.35999 -6.08002,1.33997c-0.51001,-0.73999 -1.03,-1.5 -1.57001,-2.29999c2.91,-1.37 6.72,-3.10999 11.35001,-6.90002c5.94,-4.87 5.06,-4.71997 -0.75,-0.77997c-4.63,3.14001 -9.37,3.96997 -12.44,4.89996c-1.34,-2.03998 -2.72,-4.21997 -4.14,-6.47998c1.10001,-0.98999 1.95,-2.06 4.86,-5.76001c4.32001,-5.48999 2.62,-5.64001 -1.39001,-0.95996c-2.83998,3.31 -3.84999,3.72998 -4.96999,4.31c-2.60001,-4.21002 -5.27,-8.66003 -7.89999,-13.10004c0.98999,-0.82996 1.67999,-1.76001 3.45999,-4.62c2.35001,-3.76001 0.95,-3.96997 -1.50999,-0.78998c-1.67,2.15997 -2.01001,2.89001 -3.24001,3.44c-3.53999,-6.03003 -7.19,-12.62 -10.12,-17.79999c0.45999,-0.55005 1.66,-1.04004 2.42999,-3.97003c0.94,-3.58997 0.49001,-3.84998 -0.95,-0.47998c-1.06999,2.51001 -1.53,3.20996 -2.02,3.39996c-5.21999,-9.23999 -8.98,-16.02997 -8.98,-16.02997s5.81,11.37 13.17,25.76001c-1.65999,0.08997 -3.48999,0.72998 -7.58,-0.09003c-4.73,-0.96002 -5.62,-0.75 -1.39,1.02002c3.64,1.51996 7.69,1.17999 10.04001,1.16998c2.59,5.06 5.34,10.42999 8.06999,15.77002c-2.03999,0.47998 -2.98,1.01001 -8.2,1.38c-7.00999,0.47998 -6.72,1.71997 1.45,1.81c6.07001,0.07001 5.29001,-0.34003 8,-0.75c1.90001,3.71997 3.79001,7.38995 5.59001,10.90997c-3.39,1.58002 -6.04001,2.70001 -10.18001,3.45001c-5.35001,0.96997 -8.47,3.71997 0.64999,1.79999c7.12001,-1.5 8.15001,-1.58002 10.99001,-2.41998c0.63,1.21997 1.23,2.40997 1.83,3.57001c0.14001,0.26996 0.27002,0.53998 0.39999,0.81c-2.03999,1.91998 -3.34999,3.20996 -8.43999,5.92999c-7.07001,3.77997 -5.52,5.08002 1.09,1.64001c4.73,-2.46002 6.12999,-3.61005 8.27,-5.51001c0.25998,0.64001 0.5,1.27002 0.70999,1.89001c-0.60999,2.51996 -1.06998,4.33997 -2.62,6.00995c-1.81,1.96002 -2.26001,4.22003 1.16,0.58002c1.44998,-1.54999 2.06,-2.14001 2.42999,-2.76001c3.34,19.70001 -22.75999,26.06 -39.75999,14.29004c-0.5,-0.34003 25.93999,-7.16003 15.51999,-14.38c-4.18999,-2.90002 -11.48,9.46997 -18.00999,8.08997c-13.92999,-2.94 -18.89,-24.32001 -18.89,-24.32001s18.46001,7.71002 19.74001,1.41003c1.28,-6.29999 -7.06001,0.37 -18.49001,-6.19c-9.64,-5.53003 -3.73,-27.25 -3.73,-27.25s-0.20001,4.76001 5.34,9.34998c4.98,4.12 16.10001,6.13 18.50999,1.76001c3.12001,-5.65997 -13.44,-0.52002 -18.34,-14.27997c-2.81,-7.88 6.28,-13.83002 10.72,-19.5c4.44,-5.66003 5.25999,-12.79004 5.25999,-12.79004s3.5,0.88 11.19,3.13c7.69,2.23999 14.77,-0.56 18.19,4.89001c3.42,5.45001 -4.2,18.66998 0.37,18.75c4.57001,0.08002 4.07001,-17.73999 4.07001,-17.73999s3.77,1.08002 12.09998,4.77997c11.47003,5.08002 -6.03,24.11005 -1.08997,29.02002z" class="st3"/>
  </g>
  <g id="svg_32">
   <path id="svg_33" fill="#74AA9F" d="m218.50293,136.47127c-0.39999,3.39001 -0.79999,6.77997 -1.19998,10.16998c-0.15002,1.28003 -0.30002,2.56 -0.5,3.83002c-0.80002,5.08002 -2.41,10.04999 -2.65002,15.17999c-0.00998,0.22003 0,0.48999 0.19,0.59998c0.12,0.07001 0.27002,0.05005 0.39999,0.04004c1.36002,-0.17999 2.71002,-0.35004 4.07001,-0.53003c0.11002,-0.00995 0.23001,-0.02997 0.31,-0.10999c0.10001,-0.08997 0.13,-0.21997 0.14999,-0.34998c0.43002,-2.54004 0.24002,-5.14001 0.35001,-7.71002c0.07001,-1.5 0.24002,-2.98999 0.41,-4.47998c0.66,-5.70001 1.32001,-11.39001 1.97,-17.09003c0.01001,-0.04999 0.01001,-0.09998 0.05002,-0.14001c0.06,-0.04999 0.14999,-0.01996 0.20999,0.01001c1.22998,0.57001 1.82999,1.75 2.85999,2.57001c1.16,0.91998 2.39999,1.72003 3.71002,2.41003c2.60999,1.35999 5.48999,2.21997 8.42999,2.41998c4.91,0.33997 9.97998,-1.20001 13.70999,-4.41998c3.42999,-2.96002 5.57001,-7.10004 7.45999,-11.22003c0.58002,-1.26001 1.14001,-2.54999 1.32001,-3.92999c0.03,-0.26001 -2.29001,0.21997 -2.47,0.26001c-0.89999,0.21997 -1.82999,0.38 -2.72998,0.58997c-1.85001,0.42999 -3.69,0.90002 -5.54001,1.34003c-3.64999,0.85999 -7.38,1.59998 -11.14999,1.51001c-0.26001,-0.01001 -3.96002,-0.08002 -3.10001,-1.82001c0.12,-0.23999 1.35999,-1.47998 1.85999,-1.82001c3.25,-2.20001 6.97,-3.65002 10.81,-4.47003c2.28,-0.48999 4.61002,-0.75995 6.94,-0.85999c1.17001,-0.04999 2.34,-0.06 3.51001,-0.02997c1.07001,0.01996 1.94,0.32001 2.98999,0.52997c0.11002,0.02002 0.24002,0.04004 0.34,-0.01001c0.08002,-0.03998 0.12003,-0.12 0.17001,-0.19c0.34,-0.62 0.41,-1.33997 0.42999,-2.03998c0.06,-1.60999 -0.04999,-3.21997 -0.03,-4.83002c0.07001,-4.81 1.37,-9.50995 1.98999,-14.27997c-0.01999,0.15997 -1.34998,0.83997 -1.53998,1c-0.54001,0.44 -1.02002,0.97998 -1.54001,1.45001c-1.09,0.95996 -2.26001,1.83997 -3.45001,2.67999c-2.73999,1.95001 -5.62,3.73999 -8.75998,4.95996c-3.13,1.22003 -6.54001,1.87 -9.88,1.47003c-0.67999,-0.08002 -1.42001,-0.23999 -1.83002,-0.78998c-0.56998,-0.77002 -0.19998,-1.87006 0.32001,-2.66003c0.81,-1.22998 1.92001,-2.22998 3.07001,-3.15997c3.42999,-2.79004 7.20999,-5.14001 11.23001,-6.97003c1.81,-0.83002 3.70999,-1.56 5.69,-1.83997c1.98999,-0.28003 3.89999,0.02997 5.88998,0.03998c-0.57001,-2.31 -1.12,-4.62 -1.51001,-6.96002c-0.34,-2.07001 -0.54999,-4.14996 -0.75,-6.23999c-0.37997,-3.83002 -0.75998,-7.65997 -1.13998,-11.48999c0.03,0.27002 -0.98999,1.22998 -1.17999,1.46997c-0.41,0.52002 -0.82001,1.05005 -1.23001,1.58002c-0.69,0.90002 -1.42999,1.73004 -2.01999,2.69c-1.25,2.04004 -2.98001,3.72998 -4.80002,5.25c-3.69,3.06 -7.87,5.52002 -12.35001,7.25c-0.28998,0.10999 -0.66998,0.20001 -0.87997,-0.02997c-0.13,-0.15002 -0.12003,-0.38 -0.10001,-0.58002c0.13,-1.03003 0.50998,-2.01001 1,-2.91998c0.82001,-1.54004 1.91998,-2.92004 3.01999,-4.27002c3.58002,-4.40997 7.44,-8.88 12.61002,-11.22998c0.72,-0.33002 1.47,-0.63 2.06,-1.17999c0.44998,-0.41003 1.10001,-1.02002 1.38998,-1.54004c0.33002,-0.60999 0.02002,-1.35999 -0.28998,-1.97998c-1.51001,-3.01001 -3.03003,-6.03998 -5.08002,-8.72003c-1.73001,2.35004 -3.07999,4.89001 -5.31,6.84003c-2.19,1.91998 -4.81,3.32001 -7.54999,4.28998c-0.32001,0.11005 -0.65002,0.22003 -0.99002,0.21002c-1.44998,-0.03998 -0.73999,-1.83002 -0.29999,-2.54999c2.57001,-4.23999 5.91998,-8.19 10.37,-10.38c0.17001,-0.08002 0.34,-0.15997 0.45999,-0.29999c0.37,-0.39001 0.21002,-1.04999 -0.13998,-1.45001c-0.80002,-0.91003 -2.05002,-1.60999 -3.03,-2.32001c-1.17999,-0.85999 -2.36002,-1.71997 -3.55002,-2.57001c-1.03,-0.75 -2.12,-1.57001 -2.56998,-2.76001c-0.31,-0.82996 -0.27002,-1.75 -0.28,-2.63995c-0.01001,-1.59003 -0.06003,-3.38 -0.59003,-4.88c-0.03,-0.09003 -0.06998,-0.18005 -0.14999,-0.23004c-0.13998,-0.08002 -0.32001,0.03003 -0.44,0.14001c-1.44,1.27997 -2.67999,2.77002 -4.10999,4.04999c-1.98001,1.76001 -4.30002,3.09003 -6.60001,4.41003c-1.20999,0.69 -2.42999,1.38995 -3.67999,2c-1.20999,0.58997 -2.84,0.48999 -3.72,1.53998c-0.88,1.04999 3.94998,8.25 5.09,12.22003c0.51999,1.81995 0.73001,3.71997 0.87,5.60999c0.05002,0.66998 -0.91,3.25 -1.60999,3.21997c-0.80002,-0.03998 -1.59,-0.5 -2.19,-1c-0.71002,-0.59998 -1.28,-1.34998 -1.89999,-2.04999c-1.16,-1.33002 -2.5,-2.51001 -3.49002,-3.96997c-1.28,-1.88 -1.91998,-4.12 -2.54001,-6.31c-0.38998,-1.40002 -0.78998,-2.81 -0.81,-4.26001c-0.00998,-0.52002 0.01001,-1.09003 -0.32999,-1.48004c-0.10001,-0.10999 -2.20999,2.51001 -2.57001,3.11005c-0.75,1.26001 -1.59,2.45996 -2.50998,3.60999c-1.83002,2.28998 -3.97,4.33002 -6.34003,6.04999c1.5,2.69 3.12003,5.35999 5.31,7.53998c1.79001,1.78003 4.02002,3 5.83002,4.74005c1.82001,1.73999 3.26999,3.79999 4.63,5.89996c0.34,0.53003 1.06,2.88 0.91998,3.48999c-0.88,3.66003 -3.95999,1.23004 -5.63,0.43005c-2.23999,-1.06006 -4.26999,-2.53003 -6.03998,-4.26001c-2.49002,-2.42004 -4.48001,-5.31 -6.12,-8.37c-0.39001,-0.74005 -0.77002,-1.49005 -1.01001,-2.29004c-0.23999,-0.78998 -0.34,-1.60999 -0.53,-2.40997c-0.20999,-0.91003 -0.51001,-1.79999 -0.91,-2.64001c-0.89999,0.79999 -3.32999,5.73999 -3.64999,6.39001c-1.41,2.82996 -2.82001,5.65997 -4.23001,8.47998c-0.22998,0.46997 -0.47,0.96002 -0.5,1.48999c-0.04001,0.72998 6.89999,6.29999 10.36002,7.84003c2.37,1.06 4.64999,2.34998 6.78,3.83997c1.53,1.07001 3.01999,2.28003 3.94998,3.90002c0.67001,1.15997 1,2.58002 0.77002,3.90997c-0.20001,1.15002 -1.03,2.59003 -1.84,3.42004c-0.41,0.41998 -0.91,0.76996 -1.48001,0.87c-0.67999,0.12 -1.36002,-0.12 -2,-0.38c-3.80002,-1.59003 -7.01999,-4.33002 -9.70001,-7.46002c-3.35001,-3.90997 -5.88,-8.40997 -8.64999,-12.71997c-0.20999,-0.32001 -0.42999,-0.65002 -0.76001,-0.83002c-0.03998,3.33997 -0.48999,6.67999 -1.32999,9.90997c-0.67001,2.57001 -1.59,5.06 -2.32001,7.61005c-0.60999,2.12 -0.87,4.14996 -0.10001,6.25995c0.74002,2.04004 2.13,3.82001 3.80002,5.19c2.54001,2.10004 5.66,3.35004 8.73999,4.51001s6.23001,2.28003 8.92999,4.17004c0.49002,0.33997 0.97,0.71997 1.27002,1.22998c0.91998,1.52997 0.38998,4.34998 -1.52002,4.79999c-2.23999,0.53003 -4.57999,-0.23999 -6.62,-1.29999c-5.22998,-2.72998 -9.20999,-7.34998 -14.13998,-10.57001c-0.83002,-0.53998 -3.71002,-3.22998 -4.47,-3.21002c0.60999,3.37006 1.91998,6.56 3.22,9.72003c1.67999,4.08002 3.38,8.20001 5.95999,11.77997c1.32001,1.82001 2.87,3.5 4.73999,4.75c2.88,1.93005 6.41,2.77002 9.87,2.67004c3.45999,-0.10004 6.86002,-1.12 9.97,-2.65002c1.99002,-0.98004 3.65002,-1.88 5.79001,-2.31z" class="st4"/>
  </g>
  <g id="svg_34">
   <path id="svg_35" fill="#CCCE4B" d="m309.29294,165.51125c-3.88998,-0.91998 -7.27002,-1.33002 -9.10001,-1.51001c0.14999,-1.67999 0.29999,-3.44 0.45999,-5.26001c4.39001,-0.13995 18.56,-0.76001 24.71997,-2.88c7.33002,-2.51996 30.03003,-11.52997 30.03003,-11.52997s-15.96002,1.27997 -24.54999,2.63c-7.07001,1.10999 -24.06,6.31 -29.88,8.13c0.16,-1.94 0.33002,-3.94 0.5,-6c5.64001,-1.03003 20.78998,-3.94 27.49005,-6.63c8.32996,-3.34003 20.62,-12.54999 20.62,-12.54999s-13.53003,8.39996 -20.5,8.64996c-6.97003,0.25 -12.08002,-0.33002 -18.65002,2.47998c-4.10001,1.75 -7.03,3.22003 -8.64001,4.08002c0.20001,-2.51001 0.41,-5.09998 0.61002,-7.76996c4.50003,-0.07001 17.63998,-0.46002 23.66,-2.53003c7.32001,-2.52002 30.10999,-9.95001 30.10999,-9.95001s-12.84003,2.13 -22.29999,2.12c-7.96997,-0.01001 -25.81,5.36005 -31.21002,7.04999c0.09,-1.27997 0.19,-2.57996 0.28,-3.88995c4.27005,-0.5 18.20004,-2.29004 24.56003,-4.91003c7.56,-3.12 32.52997,-15.38 32.52997,-15.38s-13.56995,3.57001 -23.41998,4.61005c-8.38,0.88 -27.79004,9.47998 -33.39999,12.01996c0.14999,-2.12 0.29999,-4.26996 0.44998,-6.45001c2.86002,-0.66998 11.98999,-2.87 17.21997,-4.88995c6.25,-2.42004 14.79004,-5.85004 21.66003,-7.17004c6.87,-1.31995 18.41003,-2.73999 18.41003,-2.73999s-28.29004,-0.17999 -37.78003,3.06c-7.5,2.56 -16.10004,7.70001 -19.37,9.75c0.18997,-2.79999 0.37997,-5.65997 0.56,-8.56c4.06,-0.66998 16.67999,-3.03998 24.67999,-7.53998c9.64001,-5.41998 30.20001,-22.28998 30.20001,-22.28998s-12.22998,7.69 -21.56,11.84998c-8.21002,3.65997 -28.43005,13.35999 -33.18002,15.63c0.14001,-2.16998 0.27002,-4.35999 0.40002,-6.57001c4.85995,-1.22998 20.95999,-5.53998 28.41,-10.21997c8.83002,-5.55005 26.47998,-17.53003 26.47998,-17.53003s-19.22998,7.59003 -30.26001,12.13c-9.04999,3.72998 -20.62994,10.42999 -24.47998,12.71002c0.10999,-2.17004 0.20999,-4.27002 0.26999,-6.31c2.79001,-1.51001 16.31003,-8.87006 23.49997,-14.41003c8.05005,-6.20001 23.03003,-21.08002 23.03003,-21.08002s-16.27997,9.75 -26.19,16.78003c-8.34003,5.90997 -17.54999,13.79999 -20.26999,16.15997c0.07001,-3.07001 0.09,-5.97998 0.04999,-8.73999c3.02005,-1.37 11.19998,-5.35999 18.30997,-11.40997c8.92004,-7.58002 18.67004,-17.77002 18.67004,-17.77002s-12.54004,6.71002 -20.91003,13.29999c-6.15997,4.85004 -12.94995,10.65002 -16.11996,13.39001c-0.05002,-2.20001 -0.13,-4.29999 -0.24002,-6.29999c2.85004,-1.87 10.86005,-7.28003 16.20001,-12.48004c6.58002,-6.41998 15.22003,-16.85999 15.22003,-16.85999s-6.82007,6.15002 -14.97998,11.28003c-6.55005,4.12 -13.94006,12.45996 -16.59006,15.57996c-0.15997,-2.34998 -0.35999,-4.53998 -0.57999,-6.60999c2.45001,-1.67999 10.37,-7.26996 12.88,-10.78998c2.97998,-4.19 12.33002,-16.92999 12.33002,-16.92999s-10.06,9.20996 -15.09003,13.81c-3.63,3.33002 -8.12,9.10999 -10.32999,12.07001c-0.22,-1.82001 -0.46002,-3.53003 -0.72,-5.13c3.10999,-2.13 12.70001,-8.85004 14.04999,-11.63c1.62,-3.33002 10.57001,-15.03003 10.57001,-15.03003s-7.95001,8.64001 -13.57001,13.88c-4.03998,3.77002 -8.94998,8.42999 -11.38998,10.76001c-0.25,-1.41998 -0.51001,-2.73999 -0.78,-3.96997c1.56,-1.69 7.42999,-8.04004 10.32001,-10.94c3.33997,-3.36005 9.31,-11.73004 9.31,-11.73004s-5.40997,5.15002 -9.08002,8.90002c-2.96997,3.03998 -8.81,9.71997 -10.92001,12.15002c-0.22998,-0.99005 -0.47,-1.91003 -0.70999,-2.77002c1.51001,-1.40002 7.67999,-7.21002 10.06,-10.66003c2.71002,-3.94995 7.16998,-12.88995 7.16998,-12.88995s-5.45001,6.15997 -9.65997,11.76996c-3.26999,4.36004 -6.63,8.67999 -7.95999,10.38c-0.24002,-0.82001 -0.48001,-1.56 -0.71002,-2.22998c1.13,-1.25 3.90002,-4.57001 5.60001,-8.64001c2.16003,-5.19 5.06,-12.33002 5.06,-12.33002s-4.94998,3.95001 -7.87,10.22003c-1.98001,4.26001 -2.79001,7.92999 -3.10001,9.84997c-0.85999,-2.39996 -1.56,-3.77997 -1.85001,-4.32001c0.54001,-0.75 2.22,-3.32996 2.90002,-7.34997c0.81998,-4.84003 1.00998,-10.27002 1.00998,-10.27002s-4.06,3.42999 -4.00998,6.89001c0.04999,3.46002 -0.13,5.28003 -0.13,5.28003s-0.44,-3.78003 -2.41,-7.63c-1.95999,-3.85004 -6.75,-7.04999 -6.75,-7.04999s2.69,9.60999 4.54001,12.38996c1.50998,2.29004 3.06998,5.04004 3.94998,6.64001c-0.75998,-0.79999 -2.09,-2.09998 -3.94,-3.53998c-3.03998,-2.36999 -6.84998,-3.66003 -6.84998,-3.66003s1.98999,3.64001 5.19998,5.56c3.23999,1.92999 3.44,1.76001 5.88,3.21002c0.22,1.38 1.34,4.77997 1.69,7.33002c-1.20001,-1.71002 -3.76999,-5.06 -7.10001,-7.56c-4.66998,-3.51001 -12.62,-8.79004 -12.62,-8.79004s7.79001,8.83002 12,11.29999c3.20999,1.88 6.44,4.47003 7.79999,5.60004c0.17001,1.27002 0.36002,2.67999 0.54001,4.17999c-1.66,-1.96002 -4.54999,-5.19 -7.13,-7.09003c-3.88998,-2.85999 -4.35999,-2.52997 -9.23999,-5.94995c-4.88,-3.42004 -10.32001,-8.94 -10.32001,-8.94s3.38,8.67999 6.95001,10.57001c3.57001,1.88995 6.22,5.62994 11.09,8.17999c3.35001,1.75995 7.01001,4.29999 8.94998,5.69995c0.17001,1.42004 0.33002,2.92004 0.49002,4.49005c-2.34,-2 -7.28,-6.05005 -11.70999,-8.63c-6.04001,-3.52002 -19.94,-9.87 -19.94,-9.87s11.81998,9.50995 16.32999,12.09998c3.79999,2.17999 12.84,7.59003 15.59,9.23999c0.17999,1.95001 0.35001,4 0.51001,6.10999c-2.78,-2.81 -8.86002,-8.79999 -13.39001,-12.06995c-6.06,-4.38 -19.56,-12.65002 -19.56,-12.65002s11.28,12.73999 17.89999,17c5.25,3.38 12.47,8.37 15.24002,10.28998c0.14999,2.31 0.28,4.70001 0.38998,7.14001c-2.51999,-2.92999 -10.82999,-12.46002 -15.09,-15.67999c-5.06,-3.83002 -19.85999,-12.76001 -19.85999,-12.76001s12.87,13.52002 17.84,17.15002c4.31,3.13995 14.54001,11.63995 17.20999,13.85999c0.07001,2.25 0.12,4.52997 0.13998,6.83997c-3.54999,-2.85999 -13.31998,-10.83997 -16.69,-14.77997c-4.14999,-4.85999 -5.17999,-3.53003 -10.22,-7.87c-5.03998,-4.34003 -11.94,-11.45001 -11.94,-11.45001s4.89001,10.12 8.92001,13.03998c4.04001,2.92004 5.89999,8.49005 10.64001,12.15002c7.5,5.81 15.89999,10.09003 19.28998,11.72998c-0.00998,2.28003 -0.04999,4.57001 -0.13,6.87c-3.00998,-2.81995 -14.09,-13.10999 -18.5,-16.27997c-5.12,-3.67999 -22.64999,-14 -22.64999,-14s8.93002,7.20001 12.83002,10.92999c3.89999,3.72998 4.89999,8.75 11.32999,12.59003c5.01001,2.98999 13.39999,7.47998 16.87003,9.32996c-0.06,1.23999 -0.13,2.48999 -0.21002,3.73004c-0.09,1.23999 -0.17999,2.51996 -0.26999,3.84998c-2.41,-2.10999 -7.62,-6.48999 -13.17999,-10c-7.61002,-4.79999 -12.55002,-4.46002 -18.5,-9.15002c-5.94,-4.67999 -12.95001,-12.87 -12.95001,-12.87s4.88,11.5 10.67999,14.75c5.80002,3.25 12.15002,5.52002 15.21002,8.75c3.06,3.23004 4.87997,5.65002 9.37997,7.37c3.13,1.20001 7.10001,2.38 9.22,3c-0.22998,3.08002 -0.5,6.36005 -0.78,9.78003c-2.60999,-2.66998 -12.35999,-12.52002 -18.42999,-16.77002c-7.04999,-4.94 -26.39999,-13.20001 -26.39999,-13.20001s12.47,8.73004 17.98999,13.60004c5.53,4.87 9.47,9.82001 14.85001,12.39001c3.95999,1.89996 9.29001,4.59998 11.82001,5.88995c-0.17999,2.19 -0.38,4.43005 -0.58002,6.71002c-3.59,-3.09003 -13.44,-11.52997 -18.67999,-15.62c-6.47998,-5.06 -25.88998,-17.65002 -25.88998,-17.65002s13,10.48004 15.82999,14.32001c2.83002,3.83002 8.38,10.42999 14.67001,14.21002c4.76999,2.87 11.07999,6.13 13.84,7.53998c-0.24002,2.66003 -0.48001,5.35004 -0.72,8.04004c-2.70001,-2.68005 -10.47,-10.18005 -17.27002,-14.60004c-8.39999,-5.45001 -30.50998,-13.22998 -30.50998,-13.22998s10.41,4.67999 16.22,10.16998c5.79999,5.48999 14.69,13.70001 20.56998,16.29999c3.95001,1.75 8.30002,3.49005 10.72,4.44c-0.15997,1.67999 -0.31,3.36005 -0.47,5.03003c-2.75998,-1.97998 -9.26001,-6.54004 -15.81,-10.22003c-8.63,-4.84998 -35.76999,-18.33997 -35.76999,-18.33997s17.06998,13.81 24.39999,19.31c7.32001,5.5 11.70999,7.07001 26.89999,12.23999c-0.19998,2.06 -0.38998,4.10999 -0.57999,6.13c-1.31,-1.58002 -4.67001,-4.12 -13.08002,-7.62c-15.41,-6.41998 -35.32001,-10.09003 -35.32001,-10.09003s11.43002,4.72003 17.02002,8.07001c4.91,2.94 25.97,11 31.07001,12.94c-0.17001,1.75 -0.34003,3.47998 -0.5,5.16998c-1.74002,-1.84998 -5.76001,-5.40997 -12.68002,-7.81c-9.70999,-3.38 -26.94,2.57001 -26.94,2.57001s16.56003,-3.27997 21.93002,-0.70996c5.37,2.56995 4.92999,4.63995 9.03,6.03998c2.76999,0.95001 6.38998,1.73999 8.44,2.15997c-0.19,1.97003 -0.31,2.81 -0.49002,4.65002c-2.59,-1.92999 -9.75,-4.37 -15.97998,-4.21002c-7.99002,0.21002 -12.36002,3.5 -12.36002,3.5s6.05002,-0.08997 12.07001,1.70001c4.81,1.42999 13.01001,1.19 16.10001,1.04004c-1.33002,13.53998 -2.33002,23.13995 -2.33002,23.13995l4.70001,-2.83997c0,0 0.91,-8.57001 2.17999,-22.72003c2.77002,1.39001 10.07001,4.81 17,5.84003c8.77997,1.29999 24.55005,-0.39001 24.55005,-0.39001s-12.64001,-0.20001 -17.73004,-1.28998c-5.14001,-1.20001 -8.73004,-3.95001 -14.56,-5.33002z" class="st7"/>
  </g>
  <g id="svg_36">
   <path id="svg_37" fill="#74AA9F" d="m110.65292,148.14125c1.97003,-0.46002 3.68002,-0.67999 4.60004,-0.77002c-0.08002,-0.84998 -0.15002,-1.73999 -0.23001,-2.65997c-2.22,-0.07001 -9.38998,-0.39001 -12.5,-1.46002c-3.70999,-1.27997 -15.19,-5.82996 -15.19,-5.82996s8.06998,0.64996 12.42001,1.32996c3.57999,0.56 12.16998,3.19 15.10999,4.11005c-0.07999,-0.98004 -0.16998,-1.99005 -0.25,-3.03003c-2.85001,-0.52002 -10.52002,-1.98999 -13.91,-3.35999c-4.20999,-1.69 -10.42999,-6.35004 -10.42999,-6.35004s6.84,4.25 10.37,4.37c3.53,0.13 6.11002,-0.16998 9.43997,1.25c2.07001,0.89001 3.55002,1.63 4.37,2.06c-0.09998,-1.26996 -0.20996,-2.57996 -0.31,-3.92999c-2.27997,-0.03998 -8.91998,-0.22998 -11.97,-1.27997c-3.70999,-1.27002 -15.22998,-5.03003 -15.22998,-5.03003s6.5,1.08002 11.28,1.07001c4.03,0 13.06003,2.71002 15.79001,3.56c-0.05002,-0.64996 -0.10001,-1.29999 -0.13998,-1.96997c-2.16,-0.25 -9.21002,-1.16003 -12.42004,-2.48999c-3.81998,-1.58002 -16.45996,-7.78003 -16.45996,-7.78003s6.85999,1.81 11.85001,2.33002c4.23999,0.45001 14.05997,4.78998 16.89999,6.08002c-0.08002,-1.07001 -0.15002,-2.16003 -0.23001,-3.27002c-1.44,-0.34003 -6.06998,-1.45001 -8.70999,-2.47003c-3.16,-1.21997 -7.48001,-2.95996 -10.95001,-3.63c-3.46997,-0.66998 -9.31,-1.38995 -9.31,-1.38995s14.31,-0.09003 19.10999,1.54999c3.80002,1.28998 8.14001,3.89996 9.80002,4.92999c-0.10001,-1.41998 -0.19,-2.85999 -0.28,-4.33002c-2.06,-0.33997 -8.44,-1.53998 -12.48999,-3.81c-4.88,-2.73999 -15.27002,-11.27997 -15.27002,-11.27997s6.19,3.88995 10.89999,6c4.14999,1.84998 14.38004,6.76001 16.78,7.90997c-0.06998,-1.09998 -0.13998,-2.20001 -0.19998,-3.32001c-2.46002,-0.62 -10.60001,-2.79999 -14.37,-5.16998c-4.47,-2.81 -13.39001,-8.87 -13.39001,-8.87s9.73001,3.83997 15.29999,6.14001c4.58002,1.88995 10.44003,5.27997 12.38004,6.42999c-0.06,-1.10004 -0.10001,-2.16003 -0.14001,-3.19c-1.41,-0.76001 -8.25,-4.48999 -11.88,-7.29004c-4.07001,-3.13995 -11.64999,-10.66998 -11.64999,-10.66998s8.24002,4.92999 13.25,8.48999c4.22,2.99005 8.88,6.98004 10.25,8.17004c-0.04001,-1.55005 -0.04001,-3.03003 -0.03,-4.42004c-1.53,-0.69 -5.66,-2.70996 -9.26001,-5.76996c-4.50998,-3.84003 -9.44,-8.98999 -9.44,-8.98999s6.34003,3.39996 10.58002,6.72998c3.10999,2.45001 6.54999,5.39001 8.15997,6.77002c0.03003,-1.11005 0.07001,-2.17004 0.12003,-3.19c-1.44,-0.94 -5.48999,-3.68005 -8.19,-6.31c-3.32999,-3.25 -7.69998,-8.53003 -7.69998,-8.53003s3.44998,3.10999 7.57996,5.71002c3.31003,2.07996 7.05002,6.29999 8.39001,7.88c0.08002,-1.19 0.17999,-2.30005 0.29001,-3.34003c-1.24002,-0.84998 -5.25,-3.67999 -6.51999,-5.46002c-1.51001,-2.12 -6.23999,-8.57001 -6.23999,-8.57001s5.09,4.66003 7.62997,6.99005c1.84,1.67999 4.11002,4.60999 5.22,6.09998c0.10999,-0.91998 0.22998,-1.78998 0.35999,-2.59003c-1.56998,-1.07996 -6.41998,-4.46997 -7.10999,-5.87994c-0.82001,-1.69 -5.34,-7.60004 -5.34,-7.60004s4.01999,4.37 6.85999,7.02002c2.04001,1.90997 4.53003,4.26001 5.76001,5.44c0.13,-0.72003 0.26001,-1.38 0.38998,-2.01001c-0.78998,-0.85999 -3.75998,-4.07001 -5.21997,-5.53003c-1.69,-1.69995 -4.71002,-5.92999 -4.71002,-5.92999s2.73999,2.60004 4.59003,4.5c1.49997,1.54004 4.45999,4.92004 5.51999,6.14001c0.12,-0.5 0.23999,-0.96997 0.36002,-1.40002c-0.76001,-0.70996 -3.89001,-3.64996 -5.09003,-5.38995c-1.37,-2 -3.63,-6.52002 -3.63,-6.52002s2.76001,3.12 4.89001,5.95001c1.66,2.20996 3.34998,4.39001 4.03,5.25c0.12,-0.41003 0.24002,-0.79004 0.36002,-1.13c-0.57001,-0.63 -1.97,-2.31 -2.83002,-4.37c-1.09,-2.62 -2.56,-6.22998 -2.56,-6.22998s2.5,2 3.98001,5.16998c1,2.14996 1.41,4.01001 1.56998,4.97998c0.43002,-1.21002 0.79001,-1.90997 0.94,-2.17999c-0.28,-0.38 -1.12,-1.67999 -1.46997,-3.71997c-0.42004,-2.45001 -0.51001,-5.19 -0.51001,-5.19s2.04999,1.72998 2.02997,3.47998c-0.02997,1.75 0.07004,2.66998 0.07004,2.66998s0.22,-1.90997 1.22,-3.85999c0.98999,-1.95001 3.41998,-3.57001 3.41998,-3.57001s-1.35999,4.85999 -2.29001,6.27002c-0.76999,1.15997 -1.54999,2.54999 -2,3.35999c0.38,-0.40997 1.05002,-1.06 1.99002,-1.78998c1.53998,-1.20001 3.45999,-1.85004 3.45999,-1.85004s-1,1.84003 -2.63,2.81c-1.64001,0.98004 -1.74002,0.89001 -2.98001,1.62c-0.10999,0.70001 -0.67999,2.42004 -0.84998,3.71002c0.60999,-0.87 1.90997,-2.56 3.58997,-3.83002c2.36002,-1.76996 6.38004,-4.45001 6.38004,-4.45001s-3.94,4.47003 -6.07001,5.72003c-1.62003,0.95001 -3.26001,2.26001 -3.94,2.83002c-0.09,0.63995 -0.18002,1.35999 -0.26999,2.12c0.83997,-0.98999 2.29999,-2.62 3.60999,-3.59003c1.97,-1.45001 2.20999,-1.27997 4.67001,-3.01001c2.47,-1.72998 5.21998,-4.51996 5.21998,-4.51996s-1.71,4.38995 -3.52,5.34998c-1.81,0.95001 -3.14999,2.84998 -5.60999,4.14001c-1.70001,0.89001 -3.54001,2.16998 -4.53003,2.88c-0.07999,0.71997 -0.16998,1.47998 -0.25,2.26996c1.18002,-1.00995 3.68002,-3.06 5.92001,-4.35999c3.06,-1.77997 10.09,-4.98999 10.09,-4.98999s-5.97999,4.81 -8.25999,6.12c-1.92001,1.09998 -6.50003,3.84003 -7.88004,4.66998c-0.08997,0.99005 -0.17996,2.02002 -0.25998,3.09003c1.41,-1.41998 4.47998,-4.45001 6.77002,-6.10999c3.06,-2.22003 9.9,-6.40002 9.9,-6.40002s-5.70002,6.45001 -9.05003,8.59998c-2.66,1.71002 -6.31,4.23004 -7.70999,5.21002c-0.07999,1.16998 -0.13998,2.38 -0.19,3.60999c1.27002,-1.47998 5.47998,-6.29999 7.63,-7.92999c2.56,-1.94 10.05,-6.45996 10.05,-6.45996s-6.51002,6.83997 -9.02,8.66998c-2.18002,1.58997 -7.36002,5.89001 -8.69998,7.01001c-0.04004,1.13995 -0.06003,2.28998 -0.07004,3.45996c1.79001,-1.44995 6.74002,-5.47998 8.44003,-7.47998c2.09998,-2.46002 2.62,-1.78998 5.16998,-3.97998c2.55003,-2.19 6.03999,-5.79004 6.03999,-5.79004s-2.46997,5.12 -4.50998,6.60004c-2.04002,1.47998 -2.97999,4.28998 -5.38001,6.14996c-3.79999,2.94 -8.04001,5.11005 -9.76001,5.92999c0,1.15002 0.03,2.31006 0.07004,3.47003c1.51996,-1.42999 7.12997,-6.63 9.35999,-8.23999c2.59,-1.85999 11.46,-7.08002 11.46,-7.08002s-4.51999,3.64001 -6.49001,5.53003c-1.96999,1.88995 -2.48,4.42999 -5.73,6.37c-2.53,1.51001 -6.78,3.77997 -8.53998,4.71997c0.03,0.63 0.06998,1.26001 0.10999,1.89001c0.03998,0.63 0.09,1.27997 0.14001,1.95001c1.21997,-1.07001 3.85999,-3.28003 6.66998,-5.06c3.84998,-2.42999 6.35001,-2.26001 9.35999,-4.63c3,-2.37 6.55002,-6.51001 6.55002,-6.51001s-2.47,5.81 -5.39999,7.46002c-2.92999,1.64996 -6.15003,2.78998 -7.70002,4.42999c-1.54999,1.63995 -2.47,2.85999 -4.74002,3.72998c-1.57999,0.60999 -3.58997,1.21002 -4.65997,1.52002c0.12,1.56 0.25,3.21997 0.38998,4.94c1.32001,-1.35004 6.25,-6.34003 9.32001,-8.48004c3.57001,-2.5 13.35001,-6.67999 13.35001,-6.67999s-6.31,4.41998 -9.10002,6.88c-2.79998,2.46002 -4.78997,4.97003 -7.51,6.27002c-2.01001,0.95996 -4.69998,2.33002 -5.97998,2.97998c0.09,1.10999 0.18997,2.23999 0.29001,3.39001c1.81998,-1.56 6.79999,-5.83002 9.44998,-7.90002c3.28001,-2.56 13.10001,-8.92999 13.10001,-8.92999s-6.57999,5.29999 -8.01001,7.23999c-1.42999,1.94 -4.24,5.28003 -7.42002,7.19c-2.40997,1.45001 -5.59998,3.10004 -7,3.81c0.12003,1.34003 0.24002,2.70001 0.37003,4.07001c1.37,-1.35999 5.29999,-5.14996 8.73999,-7.38c4.25001,-2.76001 15.43003,-6.69 15.43003,-6.69s-5.27002,2.37 -8.20001,5.14001c-2.94,2.78003 -7.43,6.92999 -10.41001,8.25c-2,0.88 -4.19998,1.76001 -5.42001,2.23999c0.08002,0.85004 0.16,1.70001 0.23999,2.54004c1.40002,-1 4.69,-3.31 8,-5.17004c4.36001,-2.44995 18.09003,-9.27997 18.09003,-9.27997s-8.64001,6.98999 -12.34003,9.76996c-3.70997,2.78003 -5.91999,3.58002 -13.60999,6.19c0.10001,1.04004 0.20001,2.08002 0.29001,3.10004c0.66,-0.79999 2.36002,-2.08002 6.62,-3.85999c7.80003,-3.25 17.87,-5.11005 17.87,-5.11005s-5.78,2.39001 -8.60999,4.08002c-2.48001,1.48999 -13.14002,5.56 -15.71003,6.53998c0.09,0.89001 0.17001,1.76001 0.25003,2.61005c0.88,-0.94 2.90997,-2.73999 6.40997,-3.95001c4.91,-1.71002 13.63001,1.29999 13.63001,1.29999s-8.38,-1.65997 -11.09,-0.35999c-2.72,1.29999 -2.48999,2.34998 -4.56998,3.04999c-1.40002,0.47998 -3.23004,0.88 -4.27002,1.09003c0.09998,1 0.14999,1.41998 0.25,2.34998c1.31,-0.96997 4.92999,-2.21002 8.08002,-2.13c4.03997,0.10999 6.25001,1.77002 6.25001,1.77002s-3.06001,-0.04004 -6.10001,0.85999c-2.44003,0.71997 -6.58002,0.59998 -8.14001,0.52002c0.68002,6.84998 1.18002,11.70996 1.18002,11.70996l-2.38,-1.44c0,0 -0.46002,-4.33997 -1.10004,-11.48999c-1.39999,0.70001 -5.09,2.42999 -8.59998,2.95001c-4.44,0.65997 -12.41998,-0.20001 -12.41998,-0.20001s6.38998,-0.09998 8.96997,-0.64996c2.53,-0.51001 4.35001,-1.90002 7.29999,-2.59003z" class="st4"/>
  </g>
 </g>
</svg>