<svg width="595.28" height="110" xmlns="http://www.w3.org/2000/svg" xmlns:xlink="http://www.w3.org/1999/xlink" xml:space="preserve" version="1.1">
 <title>Drawing</title>
 <g>
  <title>Layer 1</title>
  <defs>
   <rect height="871.82" width="623.62" y="-14.7" x="-14.17" id="SVGID_1_"/>
  </defs>
  <clipPath id="SVGID_2_">
   <use id="svg_3" xlink:href="#SVGID_1_"/>
  </clipPath>
  <g id="svg_1">
   <g id="svg_18">
    <path id="svg_19" fill="#F7C852" d="m337.74994,150.65997c-3.88998,-0.91998 -7.27002,-1.33002 -9.10001,-1.51001c0.14999,-1.67999 0.29999,-3.44 0.45999,-5.26001c4.39001,-0.13995 18.56,-0.76001 24.72,-2.88c7.33005,-2.51996 30.03,-11.52997 30.03,-11.52997s-15.95996,1.27997 -24.54999,2.63c-7.07001,1.10999 -24.06,6.31 -29.88,8.12999c0.16,-1.94 0.33002,-3.94 0.5,-6c5.64001,-1.03003 20.79001,-3.94 27.49005,-6.63c8.32996,-3.34003 20.62,-12.54999 20.62,-12.54999s-13.53003,8.39996 -20.5,8.64996c-6.97003,0.25 -12.08005,-0.33002 -18.65002,2.47998c-4.10001,1.75 -7.03,3.22002 -8.64001,4.08001c0.20001,-2.51 0.41,-5.09998 0.61005,-7.76995c4.5,-0.07001 17.63995,-0.46002 23.66,-2.53003c7.31998,-2.52002 30.10995,-9.95001 30.10995,-9.95001s-12.83997,2.13 -22.29993,2.12c-7.97003,-0.01002 -25.81003,5.36005 -31.21005,7.04999c0.09,-1.27997 0.19,-2.57996 0.28,-3.88995c4.27002,-0.5 18.20001,-2.29004 24.56,-4.91003c7.56006,-3.12 32.53003,-15.38 32.53003,-15.38s-13.57001,3.57001 -23.42004,4.61005c-8.37994,0.88 -27.78998,9.47998 -33.39993,12.01996c0.14996,-2.12 0.29999,-4.26996 0.44995,-6.45001c2.86005,-0.66998 11.99002,-2.87 17.22,-4.88995c6.25,-2.42004 14.79001,-5.85004 21.65997,-7.17004c6.87006,-1.31995 18.41003,-2.73999 18.41003,-2.73999s-28.29004,-0.17999 -37.78,3.06001c-7.5,2.56006 -16.10001,7.7 -19.37,9.75c0.18994,-2.8 0.37994,-5.65991 0.56,-8.56001c4.06,-0.66998 16.67996,-3.03998 24.67996,-7.53998c9.64001,-5.41998 30.20001,-22.28998 30.20001,-22.28998s-12.22998,7.69 -21.56,11.84998c-8.21002,3.65997 -28.43002,13.36005 -33.18002,15.63c0.14001,-2.16998 0.27002,-4.35999 0.40002,-6.57001c4.85999,-1.22998 20.95999,-5.53999 28.41,-10.21997c8.82996,-5.55006 26.47998,-17.53003 26.47998,-17.53003s-19.22998,7.59003 -30.26001,12.13c-9.04999,3.72998 -20.62997,10.42999 -24.47998,12.71002c0.10999,-2.17004 0.20999,-4.27002 0.26999,-6.31001c2.79001,-1.51001 16.31,-8.87006 23.50003,-14.41003c8.04999,-6.20001 23.02997,-21.08002 23.02997,-21.08002s-16.28003,9.75 -26.19,16.78003c-8.34,5.90997 -17.54999,13.79999 -20.26999,16.15997c0.07001,-3.07001 0.09,-5.97998 0.04999,-8.73999c3.02002,-1.37 11.20001,-5.35999 18.31,-11.40997c8.92001,-7.58002 18.67001,-17.77002 18.67001,-17.77002s-12.53998,6.71002 -20.91,13.29999c-6.15997,4.85004 -12.94995,10.65002 -16.12,13.39001c-0.05002,-2.20001 -0.13,-4.29999 -0.24002,-6.29999c2.85001,-1.87 10.86002,-7.28003 16.20001,-12.48004c6.58002,-6.41998 15.21997,-16.85999 15.21997,-16.85999s-6.82001,6.15002 -14.97995,11.28003c-6.55002,4.12 -13.94,12.45996 -16.59003,15.57996c-0.15997,-2.34998 -0.36002,-4.53998 -0.57999,-6.60999c2.44998,-1.67999 10.37,-7.26996 12.87997,-10.78998c2.97998,-4.19 12.32996,-16.92999 12.32996,-16.92999s-10.05997,9.20996 -15.08997,13.81c-3.62997,3.33002 -8.12,9.10999 -10.33002,12.07001c-0.22,-1.82001 -0.46002,-3.53003 -0.72,-5.13c3.11002,-2.13 12.69998,-8.85004 14.05002,-11.63c1.62003,-3.33002 10.57001,-15.03003 10.57001,-15.03003s-7.94998,8.64001 -13.57001,13.88c-4.04004,3.77002 -8.94998,8.42999 -11.38998,10.76001c-0.25,-1.41998 -0.51001,-2.73999 -0.78,-3.96997c1.56003,-1.69 7.42999,-8.04004 10.32001,-10.94c3.34,-3.36005 9.31,-11.73004 9.31,-11.73004s-5.40997,5.15002 -9.07999,8.90002c-2.97,3.03998 -8.81003,9.71997 -10.92001,12.15002c-0.22998,-0.99005 -0.47,-1.91003 -0.70999,-2.77002c1.51001,-1.40002 7.67999,-7.21002 10.06,-10.66003c2.71002,-3.94995 7.17001,-12.88995 7.17001,-12.88995s-5.45001,6.15997 -9.66,11.76996c-3.26999,4.36005 -6.63,8.67999 -7.95999,10.38c-0.24002,-0.82001 -0.48001,-1.56 -0.71002,-2.22998c1.13,-1.25 3.90002,-4.57001 5.60001,-8.64001c2.16,-5.19 5.06,-12.33002 5.06,-12.33002s-4.94995,3.95001 -7.87,10.22003c-1.98001,4.26001 -2.79001,7.92999 -3.10001,9.84998c-0.85999,-2.39996 -1.56,-3.77997 -1.85001,-4.32001c0.54001,-0.75 2.22,-3.32996 2.90002,-7.34998c0.81998,-4.84003 1.00998,-10.27002 1.00998,-10.27002s-4.06003,3.42999 -4.00998,6.89001c0.04999,3.46002 -0.13,5.28003 -0.13,5.28003s-0.44,-3.78003 -2.41,-7.63c-1.95999,-3.85004 -6.75,-7.04999 -6.75,-7.04999s2.69,9.60999 4.54001,12.38995c1.50998,2.29004 3.06998,5.04004 3.94998,6.64001c-0.75998,-0.79999 -2.09,-2.09998 -3.94,-3.53998c-3.03998,-2.37 -6.84998,-3.66003 -6.84998,-3.66003s1.98999,3.64001 5.19998,5.56c3.23999,1.92999 3.44,1.76001 5.88,3.21002c0.21997,1.38 1.34,4.77997 1.68997,7.33002c-1.19998,-1.71002 -3.76999,-5.06 -7.10004,-7.56c-4.66995,-3.51001 -12.61996,-8.79004 -12.61996,-8.79004s7.79004,8.83002 12,11.29999c3.20999,1.88 6.44,4.47003 7.79999,5.60004c0.16998,1.27002 0.36005,2.67999 0.54001,4.17999c-1.65997,-1.96002 -4.54999,-5.19 -7.12997,-7.09003c-3.88998,-2.85999 -4.36002,-2.52997 -9.23999,-5.94995c-4.88,-3.42004 -10.32001,-8.94 -10.32001,-8.94s3.37997,8.67999 6.94998,10.57001c3.57004,1.88995 6.22,5.62994 11.09003,8.17999c3.35001,1.75995 7.01001,4.29999 8.94998,5.69995c0.16998,1.42004 0.33002,2.92004 0.48999,4.49005c-2.34,-2 -7.28,-6.05005 -11.70996,-8.63c-6.04004,-3.52002 -19.94,-9.87 -19.94,-9.87s11.81998,9.50995 16.32999,12.09998c3.79999,2.17999 12.84,7.59003 15.59,9.23999c0.17999,1.95001 0.35001,4 0.51001,6.10999c-2.78,-2.81 -8.86002,-8.79999 -13.39001,-12.06995c-6.06,-4.38 -19.56,-12.65002 -19.56,-12.65002s11.28,12.73999 17.89999,17c5.25,3.38 12.47,8.37 15.24002,10.28998c0.14999,2.31 0.28,4.70001 0.38998,7.14001c-2.51999,-2.92999 -10.82999,-12.46002 -15.09,-15.67999c-5.06,-3.83002 -19.85999,-12.76001 -19.85999,-12.76001s12.87,13.52002 17.84,17.15002c4.31,3.13995 14.54001,11.63995 17.20999,13.85999c0.07001,2.25 0.12,4.52997 0.13995,6.83997c-3.54999,-2.85999 -13.31998,-10.83997 -16.68997,-14.77997c-4.14999,-4.85999 -5.17999,-3.53003 -10.22,-7.87c-5.03998,-4.34003 -11.94003,-11.45001 -11.94003,-11.45001s4.89001,10.12 8.92001,13.03998c4.04001,2.92004 5.89996,8.49005 10.63998,12.15002c7.5,5.81 15.89999,10.09003 19.28998,11.72998c-0.00998,2.28004 -0.04999,4.57001 -0.12997,6.87c-3.00998,-2.81995 -14.09,-13.10999 -18.5,-16.27997c-5.12003,-3.67999 -22.64996,-14 -22.64996,-14s8.92999,7.20001 12.83002,10.92999c3.89999,3.72998 4.89999,8.75 11.32999,12.59003c5.01001,2.98999 13.39999,7.47998 16.87003,9.32996c-0.06,1.23999 -0.13,2.48999 -0.21002,3.73004c-0.09,1.23999 -0.17999,2.51996 -0.26999,3.84998c-2.41,-2.10999 -7.62,-6.48999 -13.17999,-10c-7.61002,-4.79999 -12.55002,-4.46002 -18.5,-9.15002c-5.94,-4.67999 -12.95001,-12.87 -12.95001,-12.87s4.88,11.5 10.67999,14.75c5.80002,3.25 12.15002,5.52002 15.21002,8.75c3.06,3.23004 4.87997,5.65002 9.37997,7.37c3.13,1.20001 7.10001,2.38 9.22,3c-0.22998,3.08002 -0.5,6.36005 -0.78,9.78004c-2.61002,-2.66998 -12.36002,-12.52003 -18.42999,-16.77003c-7.04999,-4.93999 -26.39999,-13.2 -26.39999,-13.2s12.47,8.73004 17.98999,13.6001c5.53,4.87 9.47,9.82001 14.85001,12.38995c3.95999,1.89996 9.29001,4.60004 11.82001,5.88995c-0.17999,2.19 -0.38,4.43005 -0.58002,6.71002c-3.59,-3.09003 -13.44,-11.52997 -18.67999,-15.62c-6.47998,-5.06 -25.88998,-17.65002 -25.88998,-17.65002s13,10.48004 15.82999,14.32001c2.83005,3.83002 8.38,10.42999 14.67001,14.21002c4.76999,2.87 11.07999,6.13 13.84,7.53998c-0.24002,2.66003 -0.48001,5.35004 -0.72,8.04004c-2.69998,-2.68005 -10.46997,-10.18005 -17.27002,-14.60004c-8.39996,-5.45001 -30.50998,-13.22998 -30.50998,-13.22998s10.41,4.67999 16.22,10.16998c5.79999,5.48999 14.69,13.70001 20.56998,16.3c3.95001,1.75 8.30005,3.49005 10.72003,4.43999c-0.15994,1.67999 -0.31,3.36005 -0.47,5.03004c-2.75998,-1.97998 -9.26001,-6.54005 -15.81003,-10.22003c-8.62994,-4.84998 -35.76996,-18.33997 -35.76996,-18.33997s17.06998,13.81001 24.39996,19.31001c7.32004,5.5 11.70999,7.07001 26.89999,12.23998c-0.19998,2.06 -0.38998,4.11 -0.57999,6.13c-1.31,-1.58002 -4.67001,-4.12 -13.08002,-7.62c-15.41,-6.41998 -35.32001,-10.09003 -35.32001,-10.09003s11.43002,4.72003 17.02002,8.07001c4.91,2.93999 25.97,11.00001 31.07001,12.93999c-0.17001,1.75 -0.34003,3.47998 -0.5,5.16998c-1.74002,-1.84998 -5.76001,-5.40997 -12.68002,-7.81c-9.70999,-3.38 -26.94,2.57001 -26.94,2.57001s16.56003,-3.27997 21.93002,-0.70996c5.37,2.56996 4.92999,4.63995 9.03,6.03998c2.76999,0.95001 6.38998,1.73999 8.44,2.15997c-0.19,1.97003 -0.31,2.81 -0.49002,4.65002c-2.59,-1.92999 -9.75,-4.37 -15.97998,-4.21002c-7.99002,0.21002 -12.36002,3.5 -12.36002,3.5s6.05002,-0.08997 12.07001,1.70001c4.81,1.42999 13.01001,1.19 16.10001,1.04004c-1.33002,13.53998 -2.33002,23.13995 -2.33002,23.13995l4.70001,-2.83998c0,0 0.91,-8.57001 2.17999,-22.72002c2.77002,1.39 10.07001,4.81 17,5.84003c8.78,1.29999 24.55005,-0.39001 24.55005,-0.39001s-12.64008,-0.20001 -17.73004,-1.28998c-5.14001,-1.20001 -8.73001,-3.95001 -14.56,-5.33002z" class="st8"/>
   </g>
   <g id="svg_20">
    <path id="svg_21" fill="#306054" d="m352.86993,58.96997c0,0 -6.62,3.09998 -10.32999,8.71997c-3.71002,5.62006 5.60999,13.40002 1.38998,16.49005c-4.22,3.08997 -6.16998,-9.74005 -6.16998,-9.74005s-8.80002,9.18005 -7.41,15.43005c1.37997,6.25 12.12,7.44 10.95999,13.64996c-1.16,6.21002 -12.38,-3.58997 -12.38,-3.58997s-4.13998,8.28999 -0.51999,15.58997c3.62,7.29004 10.14999,0.58002 9,6.79004c-1.14999,6.20995 -8.5,-0.63 -8.5,-0.63s0.28,6.27997 5.00998,9.89996s16.98001,2.45 16.98001,2.45s2.91,-1.33002 -4.41,5.37001c-3.97,3.64 -13.06,6.41998 -13.06,6.41998l0.73999,2.96001c0,0 5.58002,-1.59003 12.30002,-6.28998c6.70999,-4.71002 7.73999,-6 7.73999,-6s-4.12,9.64996 -0.10999,22.88995c1.94998,6.44 11.28995,5.43005 11.28995,5.43005s-8.44,-14.22003 -3.40997,-15.79004c5.03003,-1.57001 4.59003,6.48999 8.92004,15.64c4.32996,9.15002 19.48993,-1.18999 19.48993,-1.18999s-10.41998,-5.94 -9,-10.61c1.42004,-4.67003 9.73004,5.19 15.67004,8.44c5.94,3.26001 13.15997,-6.76001 13.15997,-6.76001s-17.27002,-7.1001 -16.57001,-9.97998c0.70007,-2.89001 15.86005,3.94 21.21002,6.10999c5.35999,2.16998 10.51001,-11.21001 10.51001,-11.21001s-15.32001,-1.92999 -15.22003,-6.45996c0.10004,-4.53003 10.32007,0.40996 17.97003,-2c7.66003,-2.42004 6.79004,-13.98004 6.79004,-13.98004s-12.54004,6.10004 -15.42004,1.77002c-2.88,-4.33002 2.98999,-0.91998 14.78003,-5.06001c6.93994,-2.42999 4.02997,-13.90002 4.02997,-13.90002s-6.65002,4.72003 -11.84003,0.78003c-5.17993,-3.94 5.36005,-7.66003 9.29004,-9.20001c3.92999,-1.53998 -0.41998,-11.23999 -0.41998,-11.23999s-15.65002,9.69 -17.64001,5.45001c-1.99005,-4.25 6.89996,-1.21002 13.25,-8.42004c3.41003,-3.85999 -2.31,-7.98999 -2.31,-7.98999s-2.35999,3.95 -9.93005,8.10004c-2.66998,1.46997 -4.19995,2.75 -7.90991,0.52997c-3.70007,-2.21002 6.82999,-5.40002 9.81995,-7.41998c7.76004,-5.26001 0.64001,-6.87 -2.42996,-9.98004c-3.07004,-3.10999 -1.58005,-7.25 -5.76996,-7.44995c-7.61008,-0.35004 -7.22003,17.59998 -13.24005,9.63c-2.54999,-3.37 1.43997,-13.39001 1.43997,-13.39001s-5.14999,-2.22998 -8.33997,0.15997c-5.96002,4.48999 -0.81006,13.07001 -6.89999,12.13c-6.09,-0.94 -0.86002,-10 -0.86002,-10s-1.31006,-1.38 -7.43005,0.77002c-6.1199,2.14996 -2.35989,7.95001 -4.03992,7.59998c-6.11005,-1.26001 -0.28003,-8.35999 -0.28003,-8.35999s-4.41998,-0.42999 -10.30005,2.71002c-5.86996,3.13995 0.32007,11.63995 -3.47998,12.91998c-6.53998,2.21002 -6.10999,-8.19 -6.10999,-8.19l0,0.00001zm30.84003,28.12c-3.89001,-1.17999 -2.83002,-16.21002 2.15997,-14.85999c4.97998,1.34998 2.63,16.31 -2.15997,14.85999zm-12.41998,-9.37c4.80994,-0.64001 5.75,22.81 2.47998,22.81c-3.27002,-0.01996 -6.22998,-22.32001 -2.47998,-22.81zm20.28992,12.70001c-0.98999,-3.72998 19.02002,-4.90002 19.22003,-0.72003c0.22003,4.40002 -18.22998,4.45001 -19.22003,0.72003zm-6.74994,25.37c0.26996,-4.65997 29.56998,-0.25 27.95996,3.20001c-1.39999,3.01001 -28.22998,1.45996 -27.95996,-3.20001zm-4.03998,11.44c1.72998,-1.92999 23.13,5.14001 20.88995,7.34998c-3.26996,3.26001 -22.60999,-5.41998 -20.88995,-7.34998zm19.65991,-22.40002c2.03003,-5.59998 17.68005,-6.37 18.14001,-2.22998c0.52002,4.75 -20.16998,7.83002 -18.14001,2.22998zm-15.65991,-3.23999c-0.02002,-4.25 15.15997,-4.12 12.72998,1.03003c-2.52002,5.37 -12.71002,3.22998 -12.72998,-1.03003zm-37.58005,-6.73999c2.55002,-1.82001 8.79001,15.16998 7.04001,15.88c-4.01001,1.60999 -11.79001,-12.48999 -7.04001,-15.88zm9.63,-18.82001c4.13998,0.56001 6.88998,26.42999 3.13998,26.92999c-3.73999,0.5 -6.50998,-27.38 -3.13998,-26.92999zm15.85995,-9.97998c2.30005,0.78003 2.92999,11.34998 -1.81995,9.5c-4.75,-1.85004 -1.96002,-10.78003 1.81995,-9.5z" class="st2"/>
   </g>
   <g id="svg_22">
    <path id="svg_23" fill="#3C7361" d="m282.20993,98.21997c0.48001,-0.42999 3.03,-1.62 4.35001,-1.96002c-0.20001,0.05005 -1.20999,-2.77997 -1.31,-3.07001c-0.17999,-0.52997 -0.31,-1.06995 -0.48001,-1.59998c-0.13998,-0.42999 -0.42999,-0.76001 -0.56,-1.2c-0.72,0.28003 -1.35001,0.75 -1.98001,1.2c-1.44998,1.03003 -2.97998,1.94 -4.57999,2.72998c-1.13,0.56 -2.32001,1.06 -3.57001,1.27002c-0.62,0.10999 -1.22,0.10999 -1.85001,0.07001c-0.16998,-0.01001 -1.69998,0.06 -0.91998,-0.47003c0.13,-0.07996 0.28,-0.10999 0.42999,-0.12994c2.47,-0.42004 4.33002,-2.39001 6.47,-3.68999c1.53,-0.93005 3.30002,-1.59003 4.42999,-2.98004c-0.38998,-1.72998 -1.23999,-3.33997 -2.29001,-4.76996c-0.70999,-0.97003 -1.51001,-1.87 -2.33002,-2.74005c-0.63995,-0.67999 -1.32004,-1.84998 -2.14996,-2.29999c-0.64999,-0.34998 -1.44,-0.02998 -2.10004,0.29004c-1.79004,0.88 -3.55002,1.82996 -5.40997,2.54999c-1.09003,0.41998 -2.22,0.76996 -3.37003,0.96997c-0.66,0.12 -2.61002,0.63 -3.07004,-0.01996c1.35004,-1.05006 2.99002,-1.88 4.45001,-2.80006c1.51999,-0.94994 3.06,-1.87 4.70001,-2.59998c1.19998,-0.53998 2.44998,-0.96997 3.59998,-1.62c0.12006,-0.07001 0.24002,-0.14001 0.30002,-0.26001c0.06003,-0.10999 0.06003,-0.25 0.05002,-0.38c-0.08002,-0.79999 -0.47,-1.53998 -0.87997,-2.23999c-1.41998,-2.41998 -3.22998,-4.46997 -5.07001,-6.57001c-0.04001,-0.05 -0.09006,-0.09998 -0.13998,-0.13c-0.23999,-0.14001 -0.51999,0.10004 -0.69,0.32001c-1.10999,1.38 -2.19998,2.78003 -3.51001,3.97002c-0.89999,0.81995 -1.90997,1.53999 -3.03,2.03999c-0.89999,0.40002 -2.63998,0.59998 -1.47998,-0.84003c2.07999,-2.57996 4.41,-4.95996 6.92999,-7.10999c0.16998,-0.14001 0.34,-0.28998 0.41998,-0.48999c0.09003,-0.22998 0.04001,-0.5 -0.02002,-0.73999c-0.47,-1.90002 -1.47998,-3.60999 -2.62003,-5.17999c-1.15997,-1.59003 -2.32001,-3.15002 -3.56,-4.67999c-0.97,-1.20001 -1.92999,-2.41003 -2.85999,-3.63c-1.21002,-1.59003 -2.36002,-3.22003 -3.56003,-4.81c-0.59998,-0.79004 -1.22,-1.58002 -1.85999,-2.34003c-0.29001,-0.34998 -0.61002,-0.85999 -0.98999,-1.12c-0.13,-0.09003 -0.66,-0.41998 -0.80002,-0.32001c-0.06,0.03998 -0.07999,0.09998 -0.10999,0.16003c-0.52002,1.28998 -0.31,2.73999 -0.42999,4.12994c-0.13,1.45001 -0.62003,2.85004 -1.17001,4.20001c-0.54999,1.35999 -1.23001,2.77002 -2.45999,3.57001c-0.65002,0.41998 -0.77002,-0.59998 -0.77002,-1.04999c-0.03,-2.27002 0.28,-4.52002 0.43002,-6.78998c0.09998,-1.52002 0.12,-3.08002 -0.34003,-4.53003c-0.78,-2.47998 -2.81998,-4.33002 -4.93002,-5.84998c-2.32999,-1.67004 -4.81,-2.89001 -7.37001,-4.15002c-2.49002,-1.22998 -4.82999,-3.07001 -6.87999,-4.91998c-1.45996,-1.32001 -2.81999,-2.75 -4.06001,-4.28003c-0.26999,-0.32996 -1.12,-1.70001 -1.63997,-0.96997c-0.20001,0.28998 -0.14999,0.67999 -0.10002,1.02997c0.53999,3.48999 0.10002,7.06 -0.37996,10.56c-0.63005,4.54004 -1.34004,9.09003 -2.5,13.53003c-0.47003,1.79999 -1.01001,3.59998 -1.17001,5.45001c-0.23001,2.79999 0.84998,5.22998 2.28998,7.57996c1.27002,2.09003 3.10004,3.84003 5.23001,5.03003c1.09,0.60999 2.26001,1.07001 3.31,1.76001c0.73001,0.47998 1.91,1.77997 2.04999,2.63995c0.15002,0.93005 -0.89998,1.23003 -1.70996,1.71001c-0.81003,0.47998 -1.81003,0.55 -2.74005,0.44c-2.02997,-0.25 -3.85999,-1.33002 -5.60999,-2.40002c-1.03,-0.62994 -2.04999,-1.25995 -3.06,-1.91998c-0.92999,-0.59998 -1.97998,-1.02997 -3.03,-1.40997c-0.25,-0.09003 -0.60001,-0.14001 -0.70999,0.10999c-0.04001,0.09998 -0.01999,0.21997 0.01001,0.33002c0.27997,0.91998 1.08997,1.56001 1.76999,2.23999c1.15997,1.15997 2.03998,2.58002 2.89999,3.97998c1.01999,1.66003 2.02997,3.32001 3.04999,4.98004c1.41,2.29999 2.42999,4.57996 3.02002,7.21997c0.56998,2.51001 0.85999,5.08002 1.30997,7.60999c0.21002,1.16003 0.44003,2.32001 0.76001,3.46001c0.25,0.89001 0.44,1.77002 1.5,2c0.32001,0.07001 0.63998,0.02002 0.95999,-0.03998c3.35001,-0.60004 6.44,-2.23004 9.79001,-2.83002c0.94,-0.16998 2.20001,-0.48004 2.95999,0.08997c0.51001,0.38 0.58002,1.25 0.79001,1.85004c0.52002,1.51996 1.13,3.89001 -0.47,4.96997c-0.75,0.51001 -1.69,0.64001 -2.59998,0.75c-1.32001,0.15002 -2.65002,0.26001 -3.98004,0.23003c-1.20996,-0.02002 -2.41998,-0.16003 -3.56,-0.56c-0.95996,-0.34003 -1.84998,-0.87006 -2.72998,-1.40002c-0.56,-0.34003 -1.13,-0.67999 -1.69,-1.01001c-0.13,-0.08002 -0.27002,-0.15997 -0.41998,-0.15997c-0.37003,0 -0.57004,0.44995 -0.60004,0.82001c-0.14996,1.51997 0.74002,2.90997 1.34003,4.31995c1.01001,2.38 1.38998,5.07001 1.93997,7.59003c0.26001,1.15997 0.78003,2.25 1.13998,3.39001c0.39001,1.22998 0.69,2.47998 0.90002,3.75c0.23999,1.41998 0.36002,2.85999 0.37003,4.29999c0.00998,1.15002 0,2.45001 0.84998,3.22998c0.56,0.52002 1.37003,0.67004 2.14001,0.70001c5.25998,0.26001 10.21002,-3.44 15.43002,-2.76001c0.60999,0.08002 1.31998,0.26001 1.57999,0.88c0.19,0.45001 -0.09,0.84003 -0.10999,1.29999c-0.05002,1.41003 -0.53,2.40002 -1.70001,3.25001c-0.89999,0.65001 -1.95001,1.07001 -2.98999,1.48003c-1.15002,0.45996 -2.31,0.91998 -3.54001,1.07997c-1.56,0.21002 -3.14001,-0.07997 -4.71002,0c-0.76001,0.04004 -1.51999,0.16002 -2.26999,0.08002c-0.82001,-0.08002 -1.73001,-0.37 -2.42001,0.09003c-0.12,0.07996 -0.22998,0.19 -0.25,0.32996c-0.00998,0.09004 0.02002,0.19 0.04999,0.28003c0.68002,2 2.12003,3.59999 3.39001,5.25c0.60999,0.78999 1.10001,1.58003 1.56,2.45001c0.53003,1.01001 1.5,1.92999 2.20001,2.82997c0.09,0.11005 0.19,0.23003 0.32001,0.27002c0.09998,0.03003 0.20999,0.01001 0.30997,-0.01001c3.95004,-0.70001 7.81003,-1.87001 11.48004,-3.47998c1.06,-0.46002 2.12,-0.97003 3.26999,-1.11c0.81,-0.10004 1.57001,1.01001 0.62,2.03998c-2.25998,2.45001 -5.35999,3.95001 -8.54999,4.88c-1.67001,0.48999 -3.38,0.85999 -5.10001,1.07001c-0.86002,0.09999 -1.74002,0.09999 -2.60001,0.20001c-0.88,0.09998 -1.81,-0.09003 -2.69,-0.19c0.20001,0.72998 0.64001,1.37001 1.09,1.98999c3.16,4.31 7.24002,7.90997 11.81003,10.67999c0.65997,0.40002 1.34,0.79999 2.06998,1.04999c0.53,0.17999 1.12006,0.14001 1.67001,0.23999c1.39999,0.25 2.84,0.10004 4.22,-0.16998c4.54001,-0.87999 8.94,-3.14 11.69,-6.85999c0.41998,-0.57001 0.88,-0.89001 1.39999,-1.58002c0.51999,-0.67999 1.39001,0.94 1.25,1.47003c0.29999,3.70996 0.69,7.41998 1.17001,11.10999c0.03,0.22998 0.06,0.46997 0.18997,0.66998c0.15002,0.23999 0.42001,0.38 0.68002,0.5c1.35999,0.59998 2.91998,0.72003 4.35001,0.34003c0.10999,-0.03003 0.22998,-0.07001 0.29999,-0.15002c0.07999,-0.09003 0.10999,-0.22998 0.12,-0.34998c0.72,-5.99005 -4.07999,-11.69 -3.10001,-17.65002c4.02002,-1.58002 8.53,-1.22998 12.73001,-2.2c0.85999,-0.20001 1.73001,-0.45996 2.45001,-0.97998c2.37,-1.70001 2.87997,-5.21002 3.59998,-7.82002c0.10001,-0.34998 0.19,-0.75 0.03,-1.08002c-0.47,-0.04999 -0.91998,0.19 -1.34,0.41003c-0.51999,0.26001 -4.16,1.95996 -3.69998,0.42999c0.19998,-0.69 1.16,-1.34003 1.70999,-1.73999c0.70001,-0.51001 1.48001,-0.92004 2.29999,-1.20001c0.37,-0.13 0.79001,-0.26001 0.99002,-0.59998c0.09998,-0.16003 0.12,-0.36006 0.14999,-0.55005c0.28,-2.13 0.22,-4.27998 0.16,-6.42999c-0.09,-2.94 -0.04001,-5.91998 -0.35004,-8.84998c-0.01999,-0.16003 -0.04001,-0.34003 -0.15997,-0.45001c-0.13998,-0.13 -0.36002,-0.12 -0.54999,-0.08002c-0.58005,0.13 -1.07004,0.48999 -1.53,0.85004c-1.94,1.5 -3.76004,3.13995 -5.67001,4.66998c-0.95999,0.77002 -1.95001,1.52002 -2.98001,2.20001c-0.47998,0.32001 -2.75,2.10999 -2.53998,0.56c0.03998,-0.28003 0.19,-0.53003 0.34,-0.77002c1.41,-2.22998 3.31,-4.10999 5.19,-5.96002c2.35001,-2.31 4.85001,-4.70996 8.01999,-5.59998c-0.07001,-0.96997 -0.66998,-1.82001 -1.20999,-2.63c-1.19,-1.77997 -2.22,-3.66998 -3.17001,-5.58997c-0.95999,-1.94 -1.94998,-3.78003 -3.07999,-5.63c-0.17001,-0.28003 -0.38,-0.59003 -0.70001,-0.67999c-0.22998,-0.06001 -0.47998,0.00995 -0.70999,0.07996c-1.17001,0.36005 -2.34,0.72003 -3.51001,1.08002c-0.41,0.13 -2.23999,-0.20001 -1.34,-1l0.00006,0l0.00003,-0.00002z" class="st5"/>
   </g>
   <g id="svg_24">
    <path id="svg_25" fill="#79932D" d="m217.56992,104.46997c3.70999,3.67999 11.94,-19.46997 11.94,-19.46997s6.37,2 13.46002,13.94995c-0.82001,8.82001 -11.93002,8.42999 -10.42004,14.39001c3.63,14.31001 14.35004,-4.67999 14.73004,-2.58002c2.57999,14.13 -2.51999,29.74004 -16.11002,31.92004c-2.70001,0.42999 -8.61002,0.44 -12.35999,-3.40002c1.50995,-0.12999 1.60999,-0.46996 4.54999,-1.7c4.29999,-1.8 4.97998,-3.48999 0.02997,-1.51996c-3.17999,1.25995 -4.19998,1.35999 -6.07996,1.33997c-0.51004,-0.73999 -1.03004,-1.5 -1.57005,-2.29999c2.91,-1.37001 6.72,-3.11 11.35005,-6.90002c5.93996,-4.87 5.06,-4.71997 -0.75003,-0.77997c-4.63,3.14001 -9.37001,3.96997 -12.43997,4.89996c-1.34003,-2.03999 -2.72,-4.21997 -4.14001,-6.47999c1.10001,-0.98999 1.94998,-2.06 4.86002,-5.76001c4.32002,-5.48999 2.62001,-5.64001 -1.39,-0.95996c-2.84004,3.31001 -3.85005,3.72998 -4.97,4.31001c-2.60002,-4.21002 -5.26999,-8.66003 -7.89999,-13.10004c0.98999,-0.82996 1.67999,-1.76001 3.45999,-4.62c2.35001,-3.76001 0.94998,-3.96997 -1.50998,-0.78999c-1.67001,2.15997 -2.01001,2.89001 -3.24002,3.44c-3.54001,-6.03003 -7.19,-12.62 -10.12,-17.79999c0.45998,-0.55005 1.65996,-1.04004 2.42995,-3.97003c0.94,-3.58997 0.49005,-3.84998 -0.94997,-0.47998c-1.06999,2.51001 -1.53001,3.20996 -2.02,3.39996c-5.21999,-9.23999 -8.98,-16.02998 -8.98,-16.02998s5.81,11.37 13.16997,25.76001c-1.65996,0.08997 -3.48996,0.72998 -7.57999,-0.09003c-4.72998,-0.96002 -5.62,-0.75 -1.39001,1.02002c3.64001,1.51996 7.69,1.17999 10.04004,1.16998c2.59001,5.06 5.34001,10.42999 8.06999,15.77002c-2.03998,0.47998 -2.97998,1.01001 -8.19998,1.38c-7.01001,0.47998 -6.72,1.71997 1.45001,1.81c6.07001,0.07001 5.28998,-0.34003 8,-0.75c1.89998,3.71997 3.78998,7.38989 5.59,10.90997c-3.38998,1.58002 -6.04001,2.69995 -10.18002,3.44995c-5.34998,0.96997 -8.46997,3.71997 0.65002,1.80005c7.12,-1.5 8.14999,-1.58008 10.98999,-2.41998c0.62997,1.21997 1.22998,2.40991 1.83002,3.57001c0.13998,0.26996 0.26996,0.53998 0.39996,0.81c-2.03998,1.91998 -3.34999,3.20996 -8.43997,5.92999c-7.07004,3.77997 -5.51999,5.08003 1.09,1.64001c4.72998,-2.46002 6.13,-3.61011 8.26999,-5.51001c0.25998,0.63995 0.5,1.27002 0.70999,1.88995c-0.60999,2.51996 -1.06998,4.34003 -2.62,6.00995c-1.81,1.96002 -2.26001,4.22003 1.16,0.58008c1.45,-1.55005 2.06,-2.14001 2.42995,-2.76007c3.34004,19.70001 -22.75995,26.06006 -39.75995,14.2901c-0.50003,-0.34009 25.93997,-7.16003 15.51996,-14.38c-4.18996,-2.90001 -11.47998,9.46997 -18.00998,8.08998c-13.92998,-2.94 -18.88997,-24.32002 -18.88997,-24.32002s18.45999,7.71002 19.73999,1.41003c1.28,-6.29999 -7.06001,0.37 -18.48999,-6.18999c-9.64001,-5.53003 -3.73001,-27.25 -3.73001,-27.25s-0.20001,4.76001 5.34,9.34998c4.98001,4.12 16.10001,6.13 18.51001,1.76001c3.12,-5.65997 -13.44,-0.52002 -18.34003,-14.27997c-2.81,-7.88 6.28,-13.83002 10.72,-19.5c4.44,-5.66003 5.25998,-12.79004 5.25998,-12.79004s3.5,0.88 11.19003,3.13c7.68996,2.23999 14.76999,-0.56 18.18996,4.88995c3.42001,5.45001 -4.19997,18.66998 0.37001,18.75c4.57001,0.08008 4.07001,-17.73999 4.07001,-17.73999s3.77002,1.08008 12.10001,4.77997c11.47,5.08008 -6.03,24.11011 -1.09,29.02008l0.00003,0l-0.00002,0.00003z" class="st3"/>
   </g>
   <g id="svg_32">
    <path id="svg_33" fill="#74AA9F" d="m283.95993,143.62c-0.39999,3.39001 -0.79999,6.77997 -1.19998,10.16998c-0.15002,1.28003 -0.30002,2.56 -0.5,3.83002c-0.80002,5.08003 -2.41,10.04999 -2.65002,15.17998c-0.00998,0.22003 0,0.48999 0.19,0.59999c0.12,0.07001 0.27002,0.05005 0.39999,0.04004c1.36002,-0.17999 2.71002,-0.35004 4.07001,-0.53003c0.11002,-0.00995 0.23001,-0.02997 0.31,-0.11c0.10001,-0.08997 0.13,-0.21996 0.14999,-0.34998c0.43002,-2.54004 0.24002,-5.14 0.35001,-7.71002c0.07001,-1.5 0.24002,-2.98999 0.41,-4.47998c0.66,-5.7 1.32001,-11.39 1.97,-17.09003c0.01001,-0.04999 0.01001,-0.09998 0.05002,-0.14001c0.06,-0.04999 0.14999,-0.01996 0.20999,0.01001c1.22998,0.57002 1.82999,1.75 2.85999,2.57002c1.16,0.91997 2.39999,1.72003 3.71002,2.41002c2.60999,1.36 5.48999,2.21997 8.42999,2.41998c4.91,0.33997 9.97998,-1.20001 13.70999,-4.41998c3.42999,-2.96001 5.57001,-7.10004 7.45999,-11.22003c0.58002,-1.26001 1.14001,-2.54999 1.32001,-3.92998c0.03,-0.26001 -2.29001,0.21997 -2.47,0.26001c-0.89999,0.21997 -1.82999,0.37999 -2.72998,0.58997c-1.85001,0.42999 -3.69,0.90002 -5.54001,1.34003c-3.64999,0.85999 -7.38,1.59998 -11.14999,1.51001c-0.26001,-0.01001 -3.96002,-0.08002 -3.10001,-1.82001c0.12,-0.23999 1.35999,-1.47998 1.85999,-1.82001c3.25,-2.20001 6.97,-3.65002 10.81,-4.47003c2.28,-0.48999 4.61002,-0.75995 6.94,-0.85999c1.17001,-0.04999 2.34,-0.06 3.51001,-0.02997c1.07001,0.01996 1.94,0.32001 2.98999,0.52997c0.11002,0.02002 0.24002,0.04004 0.34,-0.01001c0.08002,-0.03998 0.12006,-0.12 0.17001,-0.18999c0.34,-0.62 0.41,-1.33997 0.42999,-2.03999c0.06,-1.60999 -0.04999,-3.21997 -0.03,-4.83002c0.07001,-4.81 1.37,-9.50995 1.98999,-14.27997c-0.01999,0.15997 -1.34998,0.83997 -1.53998,1c-0.54001,0.43999 -1.02002,0.97998 -1.54001,1.45c-1.09,0.95996 -2.26001,1.83997 -3.45001,2.67999c-2.73999,1.95001 -5.62,3.73999 -8.75998,4.95996c-3.13,1.22003 -6.54001,1.87 -9.88,1.47003c-0.67999,-0.08002 -1.42001,-0.23999 -1.83002,-0.78999c-0.56998,-0.77002 -0.19998,-1.87006 0.32001,-2.66003c0.81,-1.22998 1.92001,-2.22998 3.07001,-3.15997c3.42999,-2.79004 7.20999,-5.14001 11.23001,-6.97002c1.81,-0.83002 3.70999,-1.56001 5.69,-1.83997c1.98999,-0.28003 3.89999,0.02997 5.88998,0.03998c-0.57001,-2.31 -1.12,-4.62 -1.51001,-6.96001c-0.34,-2.07001 -0.54999,-4.14996 -0.75,-6.23999c-0.37997,-3.83002 -0.75998,-7.65997 -1.13998,-11.48999c0.03,0.27002 -0.98999,1.22998 -1.17999,1.46997c-0.41,0.52002 -0.82001,1.05005 -1.23001,1.58002c-0.69,0.90002 -1.42999,1.73004 -2.01999,2.69c-1.25,2.04004 -2.98001,3.72998 -4.80002,5.25c-3.69,3.06 -7.87,5.52002 -12.35001,7.25c-0.28998,0.10999 -0.66998,0.2 -0.87997,-0.02998c-0.13,-0.15002 -0.12003,-0.38 -0.10001,-0.58002c0.13,-1.03003 0.50998,-2.01001 1,-2.91998c0.82001,-1.54004 1.91998,-2.92004 3.01999,-4.27002c3.58002,-4.40997 7.44,-8.88 12.61002,-11.22998c0.72,-0.33002 1.47,-0.63 2.06,-1.17999c0.44998,-0.41003 1.10004,-1.02002 1.38998,-1.54004c0.33002,-0.60999 0.02002,-1.35999 -0.28998,-1.97998c-1.51001,-3.01001 -3.03003,-6.03999 -5.08002,-8.72003c-1.73001,2.35004 -3.07999,4.89001 -5.31,6.84003c-2.19,1.91998 -4.81,3.32001 -7.54999,4.28999c-0.32001,0.11005 -0.65002,0.22002 -0.99002,0.21001c-1.44998,-0.03998 -0.73999,-1.83002 -0.29999,-2.54999c2.57001,-4.23999 5.91998,-8.19 10.37,-10.38c0.17001,-0.08002 0.34,-0.15997 0.45999,-0.29999c0.37,-0.39001 0.21002,-1.04999 -0.13998,-1.45001c-0.80002,-0.91003 -2.05002,-1.60999 -3.03,-2.32001c-1.17999,-0.85999 -2.36002,-1.71997 -3.55002,-2.57001c-1.03,-0.75 -2.12,-1.57001 -2.56998,-2.76001c-0.31,-0.82996 -0.27002,-1.75 -0.28,-2.63995c-0.01001,-1.59003 -0.06003,-3.38 -0.59003,-4.88c-0.03,-0.09003 -0.06998,-0.18005 -0.14999,-0.23004c-0.13998,-0.08002 -0.32001,0.03003 -0.44,0.14001c-1.44,1.27997 -2.67999,2.77002 -4.10999,4.04999c-1.98001,1.76001 -4.30002,3.09003 -6.60001,4.41003c-1.20999,0.69 -2.42999,1.38995 -3.67999,2c-1.20999,0.58997 -2.84,0.48999 -3.72,1.53998c-0.88,1.04999 3.94998,8.25 5.09,12.22003c0.51999,1.81995 0.73001,3.71997 0.87,5.60999c0.05002,0.66998 -0.91,3.25 -1.60999,3.21997c-0.80002,-0.03998 -1.59,-0.5 -2.19,-1c-0.71002,-0.59998 -1.28,-1.34998 -1.89999,-2.04999c-1.16,-1.33002 -2.5,-2.51001 -3.49002,-3.96997c-1.28,-1.88 -1.91998,-4.12 -2.54001,-6.31c-0.38998,-1.40002 -0.78998,-2.81 -0.81,-4.26001c-0.00998,-0.52002 0.01001,-1.09003 -0.32999,-1.48004c-0.10001,-0.10999 -2.20999,2.51001 -2.57001,3.11005c-0.75,1.26001 -1.59,2.45996 -2.50998,3.60999c-1.83002,2.28998 -3.97,4.33002 -6.34003,6.04999c1.5,2.69 3.12003,5.35999 5.31,7.53998c1.79001,1.78003 4.02002,3 5.83002,4.74005c1.82001,1.73999 3.26999,3.79999 4.63,5.89996c0.34,0.53003 1.06,2.88 0.91998,3.48999c-0.88,3.66003 -3.95999,1.23003 -5.63,0.43005c-2.23999,-1.06006 -4.26999,-2.53003 -6.03998,-4.26001c-2.49002,-2.42004 -4.48001,-5.31 -6.12003,-8.37c-0.38998,-0.74004 -0.77002,-1.49004 -1.01001,-2.29004c-0.23999,-0.78998 -0.34003,-1.60999 -0.53,-2.40997c-0.20999,-0.91003 -0.51001,-1.8 -0.90997,-2.64001c-0.89999,0.8 -3.33002,5.73999 -3.64999,6.39001c-1.41,2.82996 -2.82001,5.65997 -4.23001,8.47998c-0.22998,0.46997 -0.47,0.96001 -0.5,1.48999c-0.04001,0.72998 6.89999,6.29999 10.36002,7.84003c2.37,1.06 4.64999,2.34998 6.78,3.83997c1.53,1.07001 3.01999,2.28003 3.94998,3.90002c0.67001,1.15997 1,2.58002 0.77002,3.90997c-0.20001,1.15002 -1.03,2.59003 -1.84,3.42004c-0.41,0.41998 -0.91,0.76997 -1.48001,0.87c-0.67999,0.12 -1.36005,-0.12 -2,-0.38c-3.80005,-1.59003 -7.01999,-4.33002 -9.70001,-7.46002c-3.35004,-3.90998 -5.88,-8.40998 -8.64999,-12.71997c-0.20999,-0.32001 -0.42999,-0.65002 -0.76001,-0.83002c-0.03998,3.33997 -0.48999,6.67999 -1.32999,9.90997c-0.67001,2.57001 -1.59,5.06001 -2.32001,7.61005c-0.61002,2.12 -0.87003,4.14996 -0.10004,6.25995c0.74002,2.04004 2.12997,3.82001 3.80002,5.19c2.54004,2.10004 5.66,3.35004 8.73999,4.51001s6.23001,2.28003 8.92999,4.17004c0.49002,0.33997 0.97,0.71996 1.27002,1.22997c0.91995,1.52998 0.38995,4.34999 -1.52002,4.8c-2.23999,0.53003 -4.58002,-0.23999 -6.62003,-1.3c-5.22998,-2.72997 -9.20996,-7.34998 -14.13995,-10.57c-0.83005,-0.53999 -3.71002,-3.22998 -4.47,-3.21002c0.61002,3.37006 1.91995,6.56 3.22,9.72002c1.67996,4.08002 3.37997,8.20001 5.95996,11.77997c1.32004,1.82002 2.87003,3.5 4.73999,4.75c2.88,1.93005 6.41,2.77002 9.87003,2.67004c3.45999,-0.10004 6.86005,-1.12 9.97,-2.65002c1.99002,-0.98003 3.64999,-1.87999 5.79001,-2.31l0.00003,0z" class="st4"/>
   </g>
   <g id="svg_34">
    <path id="svg_35" fill="#CCCE4B" d="m337.74994,150.65997c-3.88998,-0.91998 -7.27002,-1.33002 -9.10001,-1.51001c0.14999,-1.67999 0.29999,-3.44 0.45999,-5.26001c4.39001,-0.13995 18.56,-0.76001 24.72,-2.88c7.33005,-2.51996 30.03,-11.52997 30.03,-11.52997s-15.95996,1.27997 -24.54999,2.63c-7.07001,1.10999 -24.06,6.31 -29.88,8.12999c0.16,-1.94 0.33002,-3.94 0.5,-6c5.64001,-1.03003 20.79001,-3.94 27.49005,-6.63c8.32996,-3.34003 20.62,-12.54999 20.62,-12.54999s-13.53003,8.39996 -20.5,8.64996c-6.97003,0.25 -12.08005,-0.33002 -18.65002,2.47998c-4.10001,1.75 -7.03,3.22002 -8.64001,4.08001c0.20001,-2.51 0.41,-5.09998 0.61005,-7.76995c4.5,-0.07001 17.63995,-0.46002 23.66,-2.53003c7.31998,-2.52002 30.10995,-9.95001 30.10995,-9.95001s-12.83997,2.13 -22.29993,2.12c-7.97003,-0.01002 -25.81003,5.36005 -31.21005,7.04999c0.09,-1.27997 0.19,-2.57996 0.28,-3.88995c4.27002,-0.5 18.20001,-2.29004 24.56,-4.91003c7.56006,-3.12 32.53003,-15.38 32.53003,-15.38s-13.57001,3.57001 -23.42004,4.61005c-8.37994,0.88 -27.78998,9.47998 -33.39993,12.01996c0.14996,-2.12 0.29999,-4.26996 0.44995,-6.45001c2.86005,-0.66998 11.99002,-2.87 17.22,-4.88995c6.25,-2.42004 14.79001,-5.85004 21.65997,-7.17004c6.87006,-1.31995 18.41003,-2.73999 18.41003,-2.73999s-28.29004,-0.17999 -37.78,3.06001c-7.5,2.56006 -16.10001,7.7 -19.37,9.75c0.18994,-2.8 0.37994,-5.65991 0.56,-8.56001c4.06,-0.66998 16.67996,-3.03998 24.67996,-7.53998c9.64001,-5.41998 30.20001,-22.28998 30.20001,-22.28998s-12.22998,7.69 -21.56,11.84998c-8.21002,3.65997 -28.43002,13.36005 -33.18002,15.63c0.14001,-2.16998 0.27002,-4.35999 0.40002,-6.57001c4.85999,-1.22998 20.95999,-5.53999 28.41,-10.21997c8.82996,-5.55006 26.47998,-17.53003 26.47998,-17.53003s-19.22998,7.59003 -30.26001,12.13c-9.04999,3.72998 -20.62997,10.42999 -24.47998,12.71002c0.10999,-2.17004 0.20999,-4.27002 0.26999,-6.31001c2.79001,-1.51001 16.31,-8.87006 23.50003,-14.41003c8.04999,-6.20001 23.02997,-21.08002 23.02997,-21.08002s-16.28003,9.75 -26.19,16.78003c-8.34,5.90997 -17.54999,13.79999 -20.26999,16.15997c0.07001,-3.07001 0.09,-5.97998 0.04999,-8.73999c3.02002,-1.37 11.20001,-5.35999 18.31,-11.40997c8.92001,-7.58002 18.67001,-17.77002 18.67001,-17.77002s-12.53998,6.71002 -20.91,13.29999c-6.15997,4.85004 -12.94995,10.65002 -16.12,13.39001c-0.05002,-2.20001 -0.13,-4.29999 -0.24002,-6.29999c2.85001,-1.87 10.86002,-7.28003 16.20001,-12.48004c6.58002,-6.41998 15.21997,-16.85999 15.21997,-16.85999s-6.82001,6.15002 -14.97995,11.28003c-6.55002,4.12 -13.94,12.45996 -16.59003,15.57996c-0.15997,-2.34998 -0.36002,-4.53998 -0.57999,-6.60999c2.44998,-1.67999 10.37,-7.26996 12.87997,-10.78998c2.97998,-4.19 12.32996,-16.92999 12.32996,-16.92999s-10.05997,9.20996 -15.08997,13.81c-3.62997,3.33002 -8.12,9.10999 -10.33002,12.07001c-0.22,-1.82001 -0.46002,-3.53003 -0.72,-5.13c3.11002,-2.13 12.69998,-8.85004 14.05002,-11.63c1.62003,-3.33002 10.57001,-15.03003 10.57001,-15.03003s-7.94998,8.64001 -13.57001,13.88c-4.04004,3.77002 -8.94998,8.42999 -11.38998,10.76001c-0.25,-1.41998 -0.51001,-2.73999 -0.78,-3.96997c1.56003,-1.69 7.42999,-8.04004 10.32001,-10.94c3.34,-3.36005 9.31,-11.73004 9.31,-11.73004s-5.40997,5.15002 -9.07999,8.90002c-2.97,3.03998 -8.81003,9.71997 -10.92001,12.15002c-0.22998,-0.99005 -0.47,-1.91003 -0.70999,-2.77002c1.51001,-1.40002 7.67999,-7.21002 10.06,-10.66003c2.71002,-3.94995 7.17001,-12.88995 7.17001,-12.88995s-5.45001,6.15997 -9.66,11.76996c-3.26999,4.36005 -6.63,8.67999 -7.95999,10.38c-0.24002,-0.82001 -0.48001,-1.56 -0.71002,-2.22998c1.13,-1.25 3.90002,-4.57001 5.60001,-8.64001c2.16,-5.19 5.06,-12.33002 5.06,-12.33002s-4.94995,3.95001 -7.87,10.22003c-1.98001,4.26001 -2.79001,7.92999 -3.10001,9.84998c-0.85999,-2.39996 -1.56,-3.77997 -1.85001,-4.32001c0.54001,-0.75 2.22,-3.32996 2.90002,-7.34998c0.81998,-4.84003 1.00998,-10.27002 1.00998,-10.27002s-4.06003,3.42999 -4.00998,6.89001c0.04999,3.46002 -0.13,5.28003 -0.13,5.28003s-0.44,-3.78003 -2.41,-7.63c-1.95999,-3.85004 -6.75,-7.04999 -6.75,-7.04999s2.69,9.60999 4.54001,12.38995c1.50998,2.29004 3.06998,5.04004 3.94998,6.64001c-0.75998,-0.79999 -2.09,-2.09998 -3.94,-3.53998c-3.03998,-2.37 -6.84998,-3.66003 -6.84998,-3.66003s1.98999,3.64001 5.19998,5.56c3.23999,1.92999 3.44,1.76001 5.88,3.21002c0.21997,1.38 1.34,4.77997 1.68997,7.33002c-1.19998,-1.71002 -3.76999,-5.06 -7.10004,-7.56c-4.66995,-3.51001 -12.61996,-8.79004 -12.61996,-8.79004s7.79004,8.83002 12,11.29999c3.20999,1.88 6.44,4.47003 7.79999,5.60004c0.16998,1.27002 0.36005,2.67999 0.54001,4.17999c-1.65997,-1.96002 -4.54999,-5.19 -7.12997,-7.09003c-3.88998,-2.85999 -4.36002,-2.52997 -9.23999,-5.94995c-4.88,-3.42004 -10.32001,-8.94 -10.32001,-8.94s3.37997,8.67999 6.94998,10.57001c3.57004,1.88995 6.22,5.62994 11.09003,8.17999c3.35001,1.75995 7.01001,4.29999 8.94998,5.69995c0.16998,1.42004 0.33002,2.92004 0.48999,4.49005c-2.34,-2 -7.28,-6.05005 -11.70996,-8.63c-6.04004,-3.52002 -19.94,-9.87 -19.94,-9.87s11.81998,9.50995 16.32999,12.09998c3.79999,2.17999 12.84,7.59003 15.59,9.23999c0.17999,1.95001 0.35001,4 0.51001,6.10999c-2.78,-2.81 -8.86002,-8.79999 -13.39001,-12.06995c-6.06,-4.38 -19.56,-12.65002 -19.56,-12.65002s11.28,12.73999 17.89999,17c5.25,3.38 12.47,8.37 15.24002,10.28998c0.14999,2.31 0.28,4.70001 0.38998,7.14001c-2.51999,-2.92999 -10.82999,-12.46002 -15.09,-15.67999c-5.06,-3.83002 -19.85999,-12.76001 -19.85999,-12.76001s12.87,13.52002 17.84,17.15002c4.31,3.13995 14.54001,11.63995 17.20999,13.85999c0.07001,2.25 0.12,4.52997 0.13995,6.83997c-3.54999,-2.85999 -13.31998,-10.83997 -16.68997,-14.77997c-4.14999,-4.85999 -5.17999,-3.53003 -10.22,-7.87c-5.03998,-4.34003 -11.94003,-11.45001 -11.94003,-11.45001s4.89001,10.12 8.92001,13.03998c4.04001,2.92004 5.89996,8.49005 10.63998,12.15002c7.5,5.81 15.89999,10.09003 19.28998,11.72998c-0.00998,2.28004 -0.04999,4.57001 -0.12997,6.87c-3.00998,-2.81995 -14.09,-13.10999 -18.5,-16.27997c-5.12003,-3.67999 -22.64996,-14 -22.64996,-14s8.92999,7.20001 12.83002,10.92999c3.89999,3.72998 4.89999,8.75 11.32999,12.59003c5.01001,2.98999 13.39999,7.47998 16.87003,9.32996c-0.06,1.23999 -0.13,2.48999 -0.21002,3.73004c-0.09,1.23999 -0.17999,2.51996 -0.26999,3.84998c-2.41,-2.10999 -7.62,-6.48999 -13.17999,-10c-7.61002,-4.79999 -12.55002,-4.46002 -18.5,-9.15002c-5.94,-4.67999 -12.95001,-12.87 -12.95001,-12.87s4.88,11.5 10.67999,14.75c5.80002,3.25 12.15002,5.52002 15.21002,8.75c3.06,3.23004 4.87997,5.65002 9.37997,7.37c3.13,1.20001 7.10001,2.38 9.22,3c-0.22998,3.08002 -0.5,6.36005 -0.78,9.78004c-2.61002,-2.66998 -12.36002,-12.52003 -18.42999,-16.77003c-7.04999,-4.93999 -26.39999,-13.2 -26.39999,-13.2s12.47,8.73004 17.98999,13.6001c5.53,4.87 9.47,9.82001 14.85001,12.38995c3.95999,1.89996 9.29001,4.60004 11.82001,5.88995c-0.17999,2.19 -0.38,4.43005 -0.58002,6.71002c-3.59,-3.09003 -13.44,-11.52997 -18.67999,-15.62c-6.47998,-5.06 -25.88998,-17.65002 -25.88998,-17.65002s13,10.48004 15.82999,14.32001c2.83005,3.83002 8.38,10.42999 14.67001,14.21002c4.76999,2.87 11.07999,6.13 13.84,7.53998c-0.24002,2.66003 -0.48001,5.35004 -0.72,8.04004c-2.69998,-2.68005 -10.46997,-10.18005 -17.27002,-14.60004c-8.39996,-5.45001 -30.50998,-13.22998 -30.50998,-13.22998s10.41,4.67999 16.22,10.16998c5.79999,5.48999 14.69,13.70001 20.56998,16.3c3.95001,1.75 8.30005,3.49005 10.72003,4.43999c-0.15994,1.67999 -0.31,3.36005 -0.47,5.03004c-2.75998,-1.97998 -9.26001,-6.54005 -15.81003,-10.22003c-8.62994,-4.84998 -35.76996,-18.33997 -35.76996,-18.33997s17.06998,13.81001 24.39996,19.31001c7.32004,5.5 11.70999,7.07001 26.89999,12.23998c-0.19998,2.06 -0.38998,4.11 -0.57999,6.13c-1.31,-1.58002 -4.67001,-4.12 -13.08002,-7.62c-15.41,-6.41998 -35.32001,-10.09003 -35.32001,-10.09003s11.43002,4.72003 17.02002,8.07001c4.91,2.93999 25.97,11.00001 31.07001,12.93999c-0.17001,1.75 -0.34003,3.47998 -0.5,5.16998c-1.74002,-1.84998 -5.76001,-5.40997 -12.68002,-7.81c-9.70999,-3.38 -26.94,2.57001 -26.94,2.57001s16.56003,-3.27997 21.93002,-0.70996c5.37,2.56996 4.92999,4.63995 9.03,6.03998c2.76999,0.95001 6.38998,1.73999 8.44,2.15997c-0.19,1.97003 -0.31,2.81 -0.49002,4.65002c-2.59,-1.92999 -9.75,-4.37 -15.97998,-4.21002c-7.99002,0.21002 -12.36002,3.5 -12.36002,3.5s6.05002,-0.08997 12.07001,1.70001c4.81,1.42999 13.01001,1.19 16.10001,1.04004c-1.33002,13.53998 -2.33002,23.13995 -2.33002,23.13995l4.70001,-2.83998c0,0 0.91,-8.57001 2.17999,-22.72002c2.77002,1.39 10.07001,4.81 17,5.84003c8.78,1.29999 24.55005,-0.39001 24.55005,-0.39001s-12.64008,-0.20001 -17.73004,-1.28998c-5.14001,-1.20001 -8.73001,-3.95001 -14.56,-5.33002z" class="st7"/>
   </g>
   <g id="svg_36">
    <path id="svg_37" fill="#74AA9F" d="m136.10992,148.28998c1.97,-0.46002 3.67999,-0.67999 4.60001,-0.77002c-0.08002,-0.84998 -0.15002,-1.73999 -0.23001,-2.65997c-2.21997,-0.07001 -9.38998,-0.39 -12.5,-1.46002c-3.70999,-1.27997 -15.18999,-5.82996 -15.18999,-5.82996s8.07001,0.64996 12.42,1.32996c3.57999,0.56001 12.16998,3.19 15.10999,4.11006c-0.07999,-0.98004 -0.16998,-1.99005 -0.24997,-3.03003c-2.85004,-0.52002 -10.52,-1.98999 -13.90999,-3.36c-4.20999,-1.69 -10.42999,-6.35004 -10.42999,-6.35004s6.84001,4.25 10.37001,4.37c3.53,0.13 6.11002,-0.16997 9.43996,1.25c2.07005,0.89001 3.55003,1.63 4.37001,2.06001c-0.09998,-1.26997 -0.20998,-2.57997 -0.31,-3.92999c-2.28,-0.03998 -8.92,-0.22998 -11.97002,-1.27997c-3.70999,-1.27002 -15.22998,-5.03004 -15.22998,-5.03004s6.5,1.08002 11.28,1.07001c4.03,0 13.06,2.71002 15.79001,3.56c-0.05002,-0.64996 -0.10001,-1.29999 -0.14,-1.96997c-2.15997,-0.25 -9.20999,-1.16003 -12.42001,-2.48999c-3.81995,-1.58002 -16.45996,-7.78003 -16.45996,-7.78003s6.85999,1.81 11.85001,2.33002c4.24002,0.45001 14.06,4.78999 16.89999,6.08002c-0.07999,-1.07001 -0.14999,-2.16003 -0.23001,-3.27001c-1.43997,-0.34003 -6.06998,-1.45001 -8.70999,-2.47003c-3.15997,-1.21997 -7.47998,-2.95996 -10.95001,-3.63c-3.46997,-0.66998 -9.30997,-1.38995 -9.30997,-1.38995s14.30997,-0.09003 19.10999,1.55005c3.80002,1.28998 8.13998,3.8999 9.80002,4.92993c-0.10004,-1.41992 -0.18999,-2.85999 -0.28003,-4.33002c-2.06,-0.33997 -8.43997,-1.53998 -12.48999,-3.81c-4.87999,-2.73999 -15.27002,-11.27997 -15.27002,-11.27997s6.19,3.88995 10.90002,6c4.14996,1.84998 14.38,6.76001 16.77997,7.90997c-0.06998,-1.09998 -0.13998,-2.20001 -0.19998,-3.32001c-2.45999,-0.62 -10.60001,-2.79999 -14.37,-5.16998c-4.47,-2.81001 -13.39001,-8.87 -13.39001,-8.87s9.72998,3.83997 15.30002,6.14001c4.58,1.88995 10.43997,5.27998 12.37997,6.42999c-0.06,-1.10004 -0.10001,-2.16003 -0.13998,-3.19c-1.40999,-0.76001 -8.25,-4.48999 -11.87999,-7.29004c-4.07002,-3.13995 -11.64999,-10.66998 -11.64999,-10.66998s8.24002,4.92999 13.25,8.48999c4.22,2.99004 8.88,6.98003 10.25,8.17004c-0.04001,-1.55005 -0.04001,-3.03003 -0.03,-4.42004c-1.53,-0.69 -5.66,-2.70996 -9.26001,-5.76997c-4.51001,-3.84003 -9.44,-8.98999 -9.44,-8.98999s6.34003,3.39996 10.58002,6.72998c3.10999,2.45001 6.54999,5.39001 8.16,6.77002c0.03,-1.11005 0.06998,-2.17004 0.12,-3.18999c-1.44,-0.94 -5.49002,-3.68005 -8.19,-6.31001c-3.32999,-3.25 -7.69997,-8.53003 -7.69997,-8.53003s3.44997,3.10999 7.57996,5.71002c3.31003,2.07996 7.05002,6.29999 8.39,7.88c0.08,-1.18999 0.17999,-2.30005 0.29002,-3.34003c-1.24002,-0.84998 -5.25,-3.67999 -6.51999,-5.46002c-1.51003,-2.12 -6.23999,-8.57001 -6.23999,-8.57001s5.09,4.66003 7.62996,6.99005c1.84,1.67999 4.11003,4.60999 5.22,6.09998c0.11002,-0.91998 0.22998,-1.78998 0.35999,-2.59003c-1.56998,-1.07996 -6.41997,-4.46997 -7.10999,-5.87994c-0.81998,-1.68999 -5.34,-7.60004 -5.34,-7.60004s4.01999,4.37 6.86002,7.02002c2.03998,1.90997 4.52997,4.26001 5.75998,5.44c0.13,-0.72003 0.26001,-1.38 0.39001,-2.01001c-0.79001,-0.85999 -3.76001,-4.07001 -5.22003,-5.53003c-1.68997,-1.69995 -4.70999,-5.92999 -4.70999,-5.92999s2.73999,2.60004 4.59003,4.5c1.5,1.54004 4.45999,4.92004 5.51999,6.14001c0.12001,-0.5 0.23999,-0.96997 0.36003,-1.40002c-0.76004,-0.70996 -3.89001,-3.64996 -5.09004,-5.38995c-1.37,-2 -3.62999,-6.52002 -3.62999,-6.52002s2.76001,3.12 4.89,5.95001c1.66,2.20996 3.34999,4.39001 4.03001,5.25c0.12,-0.41003 0.24002,-0.79004 0.36002,-1.13c-0.57001,-0.63 -1.97003,-2.31001 -2.83002,-4.37c-1.09001,-2.62 -2.56001,-6.22998 -2.56001,-6.22998s2.5,2 3.97998,5.16998c1,2.14996 1.41003,4.01001 1.57005,4.97998c0.42995,-1.21002 0.78998,-1.90997 0.93996,-2.17999c-0.28,-0.38 -1.12,-1.67999 -1.46996,-3.71997c-0.42004,-2.45001 -0.51001,-5.19 -0.51001,-5.19s2.04999,1.72998 2.03,3.47998c-0.03,1.75 0.07001,2.66998 0.07001,2.66998s0.22,-1.90997 1.22,-3.85999c0.98999,-1.95 3.41997,-3.57001 3.41997,-3.57001s-1.35999,4.85999 -2.29001,6.27002c-0.76999,1.15997 -1.54999,2.54999 -2,3.35999c0.38,-0.40997 1.05,-1.06001 1.99002,-1.78999c1.53998,-1.2 3.46002,-1.85004 3.46002,-1.85004s-1,1.84003 -2.62999,2.81c-1.64001,0.98004 -1.74002,0.89001 -2.98001,1.62c-0.11003,0.70001 -0.68002,2.42004 -0.85002,3.71002c0.61,-0.87 1.90997,-2.56001 3.59001,-3.83002c2.36002,-1.76996 6.37999,-4.45 6.37999,-4.45s-3.94,4.47002 -6.07001,5.72002c-1.62003,0.95001 -3.25998,2.26001 -3.94,2.83002c-0.09,0.63995 -0.18002,1.35999 -0.26999,2.12c0.84,-0.98999 2.29999,-2.62 3.60999,-3.59003c1.97,-1.45001 2.20999,-1.27997 4.67001,-3.01001c2.47,-1.72998 5.22,-4.51996 5.22,-4.51996s-1.71002,4.38995 -3.52002,5.34998c-1.81,0.95001 -3.14996,2.84998 -5.60999,4.14001c-1.70001,0.89001 -3.53998,2.16998 -4.53,2.88c-0.07999,0.71997 -0.17001,1.47998 -0.25,2.26996c1.18002,-1.00995 3.68002,-3.06 5.92001,-4.35999c3.06,-1.77998 10.09,-4.98999 10.09,-4.98999s-5.98001,4.81 -8.26001,6.12c-1.92001,1.09998 -6.5,3.84003 -7.88,4.66998c-0.08997,0.99005 -0.17996,2.02002 -0.25998,3.09003c1.41,-1.41998 4.47998,-4.45 6.77002,-6.10999c3.06,-2.22003 9.89996,-6.40002 9.89996,-6.40002s-5.70001,6.45001 -9.04999,8.59998c-2.66,1.71002 -6.31,4.23004 -7.70999,5.21002c-0.07999,1.16998 -0.13998,2.38 -0.19,3.60999c1.26999,-1.47998 5.48001,-6.29999 7.63,-7.92999c2.56,-1.94 10.04999,-6.45996 10.04999,-6.45996s-6.50998,6.83997 -9.01999,8.66998c-2.17999,1.58997 -7.36,5.89001 -8.69998,7.01001c-0.04004,1.13995 -0.06003,2.28999 -0.07004,3.45996c1.79001,-1.44995 6.74002,-5.47998 8.44,-7.47998c2.09998,-2.46001 2.62,-1.78998 5.16997,-3.97998c2.55002,-2.18999 6.04001,-5.79004 6.04001,-5.79004s-2.46999,5.12 -4.50998,6.60004c-2.03998,1.47998 -2.98001,4.28998 -5.37999,6.14996c-3.79999,2.94 -8.03998,5.11005 -9.76001,5.92999c0,1.15002 0.03003,2.31006 0.07004,3.47003c1.51999,-1.42999 7.12997,-6.63 9.35999,-8.23999c2.59,-1.85999 11.45999,-7.08002 11.45999,-7.08002s-4.52002,3.64001 -6.48999,5.53003c-1.97,1.88995 -2.48004,4.42999 -5.73004,6.37c-2.52997,1.51001 -6.78,3.77997 -8.53998,4.71997c0.03003,0.63 0.07001,1.26001 0.11002,1.89001c0.03998,0.63 0.09001,1.27998 0.13998,1.95001c1.22003,-1.07001 3.86002,-3.28003 6.67001,-5.06c3.84998,-2.42999 6.35001,-2.26001 9.36002,-4.63c3,-2.37 6.54999,-6.51001 6.54999,-6.51001s-2.47,5.81001 -5.39999,7.46002c-2.93001,1.64996 -6.14998,2.78998 -7.70003,4.42999c-1.54999,1.63995 -2.46997,2.85999 -4.73999,3.72998c-1.58003,0.60999 -3.59001,1.21001 -4.65997,1.52002c0.12,1.56 0.25,3.21997 0.38998,4.93999c1.31998,-1.35004 6.25,-6.34003 9.31998,-8.48003c3.57004,-2.5 13.35004,-6.67999 13.35004,-6.67999s-6.31,4.41998 -9.10001,6.88c-2.80002,2.46002 -4.79001,4.97003 -7.51001,6.27002c-2.01001,0.95996 -4.69998,2.33002 -5.97998,2.97998c0.09,1.10999 0.18997,2.23999 0.28998,3.39001c1.81998,-1.56001 6.79999,-5.83002 9.44998,-7.90002c3.28003,-2.56 13.10004,-8.92999 13.10004,-8.92999s-6.58002,5.29999 -8.01001,7.23999c-1.42999,1.93999 -4.23999,5.28003 -7.42001,7.18999c-2.40997,1.45001 -5.59998,3.10004 -7,3.81c0.12004,1.34003 0.24002,2.70001 0.37004,4.07001c1.37,-1.35999 5.29999,-5.14996 8.73999,-7.37999c4.25,-2.76001 15.42998,-6.69 15.42998,-6.69s-5.27002,2.37 -8.20001,5.14001c-2.93996,2.78003 -7.42998,6.92999 -10.40996,8.25001c-2,0.87999 -4.20001,1.76001 -5.42001,2.23999c0.08002,0.85004 0.16,1.7 0.23999,2.54004c1.39999,-1 4.69,-3.31 8,-5.17004c4.36002,-2.44995 18.09,-9.27997 18.09,-9.27997s-8.64001,6.98999 -12.34,9.76996c-3.70999,2.78003 -5.92001,3.58002 -13.61002,6.19c0.10004,1.04004 0.2,2.08002 0.29004,3.10004c0.65996,-0.79999 2.35999,-2.08002 6.62,-3.85999c7.79999,-3.25 17.87,-5.11006 17.87,-5.11006s-5.77998,2.39001 -8.60999,4.08003c-2.48004,1.48999 -13.14001,5.56 -15.70998,6.53998c0.09,0.89 0.16998,1.76001 0.25,2.61005c0.87996,-0.94 2.91,-2.73999 6.40997,-3.95001c4.90999,-1.71002 13.62999,1.29999 13.62999,1.29999s-8.37996,-1.65997 -11.09003,-0.35999c-2.72,1.29999 -2.48999,2.34998 -4.56998,3.04999c-1.40002,0.47998 -3.22998,0.88 -4.26999,1.09003c0.10001,1 0.14999,1.41998 0.25,2.34999c1.31,-0.96997 4.92999,-2.21002 8.07999,-2.13c4.04001,0.10999 6.25,1.77002 6.25,1.77002s-3.06,-0.04004 -6.10001,0.85999c-2.43997,0.71997 -6.57999,0.59999 -8.13998,0.52002c0.68002,6.84999 1.17999,11.70996 1.17999,11.70996l-2.38,-1.44c0,0 -0.45999,-4.33997 -1.09998,-11.48999c-1.39999,0.70001 -5.09003,2.42999 -8.60001,2.95001c-4.44,0.65997 -12.41998,-0.20001 -12.41998,-0.20001s6.38998,-0.09998 8.96997,-0.64995c2.53,-0.51001 4.35001,-1.90002 7.30002,-2.59004l-0.00006,0l-0.00008,-0.00002z" class="st4"/>
   </g>
  </g>
 </g>
</svg>