<svg width="40" height="40" xmlns="http://www.w3.org/2000/svg" data-name="Слой 1">

 <g>
  <title>Layer 1</title>
  <g id="svg_12">
   <path id="svg_1" fill="#222221" d="m17.80851,24.09c-4.34,0 -7.74,-1.51 -7.74,-3.42s3.41,-3.42 7.74,-3.42s7.73,1.5 7.73,3.42s-3.39,3.42 -7.73,3.42zm0,-6.2c-4.25,0 -7.1,1.43 -7.1,2.78s2.86,2.78 7.1,2.78s7.09,-1.44 7.09,-2.78s-2.84,-2.78 -7.09,-2.78z" class="cls-1"/>
   <path id="svg_2" fill="#222221" d="m18.62851,30.25l-1.63,0a8.37,8.37 0 0 1 -8.36,-8.36l0,-1.22c0,-2.69 4,-4.79 9.18,-4.79s9.17,2.1 9.17,4.79l0,1.22a8.37,8.37 0 0 1 -8.36,8.36zm-0.82,-13.62c-4.57,0 -8.43,1.85 -8.43,4l0,1.22a7.63,7.63 0 0 0 7.61,7.61l1.63,0a7.62,7.62 0 0 0 7.61,-7.61l0,-1.18c0.01,-2.19 -3.85,-4.04 -8.42,-4.04z" class="cls-1"/>
   <path id="svg_3" fill="#222221" d="m25.04851,27.19l-0.15,0l0,-0.75a6.47,6.47 0 0 0 4.72,-2a3.51,3.51 0 0 0 0.94,-2.83a2.34,2.34 0 0 0 -1,-1.73a4.57,4.57 0 0 0 -3.24,-0.13l-0.23,-0.72a5.31,5.31 0 0 1 3.88,0.23a3.06,3.06 0 0 1 1.36,2.26a4.23,4.23 0 0 1 -1.13,3.44a7.24,7.24 0 0 1 -5.15,2.23z" class="cls-1"/>
   <path id="svg_4" fill="#222221" d="m26.62851,24.27l-0.32,0l0.08,-0.63a1.55,1.55 0 0 0 1.42,-0.54a1.13,1.13 0 0 0 0.3,-0.94c-0.19,-0.68 -1.44,-0.39 -1.45,-0.39l-0.15,-0.62c0.69,-0.17 1.94,-0.18 2.21,0.85a1.7,1.7 0 0 1 -0.43,1.52a2.21,2.21 0 0 1 -1.66,0.75z" class="cls-1"/>
   <path id="svg_5" fill="#222221" d="m12.51851,20.54a2.34,2.34 0 0 1 1.39,-1.11a7.75,7.75 0 0 1 1.77,-0.43a20.81,20.81 0 0 1 3.62,-0.16a11.3,11.3 0 0 1 1.81,0.27a4.69,4.69 0 0 1 1.75,0.74a1.36,1.36 0 0 1 0.36,0.42a0.79,0.79 0 0 1 0,0.64a1.42,1.42 0 0 1 -0.77,0.69a5.58,5.58 0 0 1 -1.78,0.39a7.58,7.58 0 0 0 1.61,-0.72a1,1 0 0 0 0.53,-0.52c0,-0.15 -0.08,-0.3 -0.29,-0.45a8.5,8.5 0 0 0 -3.28,-0.85a19.7,19.7 0 0 0 -3.52,-0.09a10,10 0 0 0 -1.74,0.26a2.4,2.4 0 0 0 -1.46,0.92z" class="cls-1"/>
   <path id="svg_6" fill="#222221" d="m14.94851,9.75a1.84,1.84 0 0 1 0.95,1.25a1.92,1.92 0 0 1 -0.49,1.6a2,2 0 0 0 -0.54,1.14a2.21,2.21 0 0 0 0.35,1.32a1.74,1.74 0 0 1 -0.85,-1.31a2.13,2.13 0 0 1 0.55,-1.56a1.76,1.76 0 0 0 0.48,-1.14a2.37,2.37 0 0 0 -0.45,-1.3z" class="cls-1"/>
   <path id="svg_7" fill="#222221" d="m17.61851,9.75a1.82,1.82 0 0 1 1,1.25a2,2 0 0 1 -0.49,1.6a2.1,2.1 0 0 0 -0.55,1.14a2.3,2.3 0 0 0 0.36,1.32a1.75,1.75 0 0 1 -0.9,-1.31a2.13,2.13 0 0 1 0.56,-1.56a1.76,1.76 0 0 0 0.48,-1.14a2.39,2.39 0 0 0 -0.46,-1.3z" class="cls-1"/>
   <path id="svg_8" fill="#222221" d="m20.29851,9.75a1.79,1.79 0 0 1 0.95,1.25a1.92,1.92 0 0 1 -0.44,1.55a2,2 0 0 0 -0.54,1.14a2.22,2.22 0 0 0 0.36,1.32a1.72,1.72 0 0 1 -0.91,-1.26a2.09,2.09 0 0 1 0.56,-1.56a1.82,1.82 0 0 0 0.53,-1.19a2.47,2.47 0 0 0 -0.51,-1.25z" class="cls-1"/>
   <path id="svg_9" fill="#222221" d="m20.58851,21.16a6.11,6.11 0 0 1 -3,0.69a6,6 0 0 1 -3,-0.69c2.07,0.07 3.95,0.07 6,0z" class="cls-1"/>
   <path id="svg_10" fill="#222221" d="m24.29851,23.27a2,2 0 0 1 -1,1.59a6.63,6.63 0 0 1 -1.74,0.83a12.79,12.79 0 0 1 -7.55,0a6.63,6.63 0 0 1 -1.74,-0.83a2,2 0 0 1 -1,-1.59a2,2 0 0 0 1.12,1.36a6.79,6.79 0 0 0 1.71,0.65a14,14 0 0 0 3.71,0.47a14,14 0 0 0 3.65,-0.42a6.43,6.43 0 0 0 1.71,-0.65a2,2 0 0 0 1.13,-1.41z" class="cls-1"/>
   <path id="svg_11" fill="#222221" d="m10.80851,24.2a7.18,7.18 0 0 0 2.82,3.12a6.84,6.84 0 0 0 4,0.94a9.79,9.79 0 0 0 2.18,-0.11a6.94,6.94 0 0 0 2,-0.71a7.15,7.15 0 0 0 2.92,-3a6.48,6.48 0 0 1 -2.71,3.38a7.47,7.47 0 0 1 -4.29,1a7.09,7.09 0 0 1 -4.26,-1.13a6.47,6.47 0 0 1 -2.66,-3.49z" class="cls-1"/>
  </g>
 </g>
</svg>