<svg width="40" height="40" xmlns="http://www.w3.org/2000/svg" data-name="Слой 1">

 <g>
  <title>Layer 1</title>
  <g id="svg_12">
   <path id="svg_1" fill="#222221" d="m25.335,13.42a0.84,0.84 0 0 1 -0.35,0.65a3.31,3.31 0 0 1 -0.64,0.41a7.46,7.46 0 0 1 -1.42,0.49a13.85,13.85 0 0 1 -5.92,0a7,7 0 0 1 -1.42,-0.49a3,3 0 0 1 -0.64,-0.41a0.81,0.81 0 0 1 -0.35,-0.65c0.14,0.48 0.67,0.63 1.1,0.77a9.67,9.67 0 0 0 1.4,0.29a22.91,22.91 0 0 0 2.87,0.17a21.16,21.16 0 0 0 2.87,-0.17a9.67,9.67 0 0 0 1.42,-0.29c0.41,-0.14 0.94,-0.29 1.08,-0.77z" class="cls-1"/>
   <path id="svg_2" fill="#222221" d="m23.185,17.54c0,0.34 -0.33,0.54 -0.57,0.7a3.73,3.73 0 0 1 -0.86,0.33a7.08,7.08 0 0 1 -3.58,0a3.73,3.73 0 0 1 -0.86,-0.33c-0.24,-0.16 -0.6,-0.36 -0.57,-0.7c0.11,0.28 0.42,0.34 0.68,0.41a8.13,8.13 0 0 0 0.84,0.13c0.56,0.05 1.13,0.08 1.7,0.08a16,16 0 0 0 1.7,-0.08a5.74,5.74 0 0 0 0.83,-0.13c0.27,-0.07 0.58,-0.16 0.69,-0.41z" class="cls-1"/>
   <path id="svg_3" fill="#222221" d="m19.965,34.21c-3.2,0 -6.43,-0.72 -6.43,-2.09c0,-2.74 12.86,-2.74 12.86,0c0,1.37 -3.24,2.09 -6.43,2.09zm0,-3.54c-3.54,0 -5.79,0.86 -5.79,1.45s2.25,1.45 5.79,1.45s5.79,-0.86 5.79,-1.45s-2.26,-1.45 -5.79,-1.45z" class="cls-1"/>
   <path id="svg_4" fill="#222221" d="m25.525,31.48a0.86,0.86 0 0 1 -0.37,0.67a3.46,3.46 0 0 1 -0.66,0.41a7.93,7.93 0 0 1 -1.47,0.49a14.35,14.35 0 0 1 -6.12,0a8.42,8.42 0 0 1 -1.47,-0.48a4.1,4.1 0 0 1 -0.66,-0.42a0.86,0.86 0 0 1 -0.37,-0.67c0.14,0.51 0.69,0.67 1.14,0.82a7.69,7.69 0 0 0 1.44,0.31a23.39,23.39 0 0 0 5.95,0a7.79,7.79 0 0 0 1.45,-0.31c0.45,-0.15 1,-0.31 1.14,-0.82z" class="cls-1"/>
   <path id="svg_5" fill="#222221" d="m20.915,26.15l-0.66,0c0,-5.64 1.19,-6.56 2.14,-7.3a4.47,4.47 0 0 0 0.41,-0.35a3.55,3.55 0 0 0 1.26,-2.52a2.7,2.7 0 0 1 0.05,-0.41c0.09,-0.57 0.45,-0.78 0.91,-1.05a6.67,6.67 0 0 0 1.43,-1.06a5.79,5.79 0 0 0 1.83,-4.09l0.64,0a6.44,6.44 0 0 1 -2,4.59a8.24,8.24 0 0 1 -1.56,1.15c-0.43,0.25 -0.56,0.33 -0.6,0.59s0,0.24 0,0.37a4.1,4.1 0 0 1 -1.51,2.89a6.08,6.08 0 0 1 -0.47,0.39c-0.82,0.66 -1.87,1.44 -1.87,6.8z" class="cls-1"/>
   <path id="svg_6" fill="#222221" d="m19.655,26.15l-0.64,0c0,-5.33 -1.05,-6.14 -1.89,-6.8a6.08,6.08 0 0 1 -0.47,-0.39a4.1,4.1 0 0 1 -1.4,-2.92c0,-0.13 0,-0.25 -0.05,-0.37s-0.17,-0.34 -0.6,-0.59a8.24,8.24 0 0 1 -1.56,-1.15a6.44,6.44 0 0 1 -2,-4.59l0.64,0a5.84,5.84 0 0 0 1.83,4.09a6.67,6.67 0 0 0 1.43,1.06c0.46,0.27 0.82,0.48 0.91,1.05a2.7,2.7 0 0 1 0.05,0.41a3.51,3.51 0 0 0 1.26,2.52a4.47,4.47 0 0 0 0.41,0.35c0.89,0.77 2.08,1.69 2.08,7.33z" class="cls-1"/>
   <path id="svg_7" fill="#222221" d="m23.045,18.73a9.37,9.37 0 0 1 -0.71,0.7a3.43,3.43 0 0 0 -0.57,0.76a5.7,5.7 0 0 0 -0.58,1.82a21.87,21.87 0 0 0 -0.27,3.89a7.69,7.69 0 0 0 0.7,3.72a4.07,4.07 0 0 0 3,2.16a3.88,3.88 0 0 1 -3.42,-1.92a7.45,7.45 0 0 1 -0.91,-4a18.07,18.07 0 0 1 0.42,-4a5.77,5.77 0 0 1 0.8,-1.88a5.72,5.72 0 0 1 1.54,-1.25z" class="cls-1"/>
   <path id="svg_8" fill="#222221" d="m16.885,18.73a5.72,5.72 0 0 1 1.54,1.29a5.77,5.77 0 0 1 0.8,1.88a18.07,18.07 0 0 1 0.42,4a7.45,7.45 0 0 1 -0.91,4a3.88,3.88 0 0 1 -3.42,1.89a4.07,4.07 0 0 0 3,-2.16a7.57,7.57 0 0 0 0.69,-3.72a21,21 0 0 0 -0.26,-3.89a5.7,5.7 0 0 0 -0.58,-1.82a3.43,3.43 0 0 0 -0.57,-0.76a9.37,9.37 0 0 1 -0.71,-0.71z" class="cls-1"/>
   <path id="svg_9" fill="#222221" d="m19.965,13.79a4,4 0 1 1 4,-4a4,4 0 0 1 -4,4zm0,-7.39a3.38,3.38 0 1 0 3.37,3.37a3.37,3.37 0 0 0 -3.37,-3.42l0,0.05z" class="cls-1"/>
   <path id="svg_10" fill="#222221" d="m19.965,12.18c-4.35,0 -9,-1 -9,-2.83l0.64,0c0,1 3.57,2.19 8.34,2.19s8.34,-1.15 8.34,-2.19l0.64,0c0.02,1.84 -4.61,2.83 -8.96,2.83z" class="cls-1"/>
   <path id="svg_11" fill="#222221" d="m21.895,6.59a3.56,3.56 0 0 1 0.84,0.71c3.31,0.33 5.57,1.23 5.57,2c0,1 -3.57,2.19 -8.34,2.19s-8.34,-1.15 -8.34,-2.19c0,-0.82 2.25,-1.72 5.57,-2a3.56,3.56 0 0 1 0.84,-0.71c-3.69,0.25 -7,1.2 -7,2.76c0,1.84 4.63,2.83 9,2.83s9,-1 9,-2.83c-0.09,-1.56 -3.45,-2.51 -7.14,-2.76z" class="cls-1"/>
  </g>
 </g>
</svg>