<svg width="40" height="40" xmlns="http://www.w3.org/2000/svg" data-name="Слой 1">

 <g>
  <title>Layer 1</title>
  <g id="svg_5">
   <path id="svg_1" fill="#222221" d="m27.2,21.21723l0,-12c0,-1 -1.17,-2 -2.11,-2.54a2.81,2.81 0 0 0 -1.95,-0.77a1.61,1.61 0 0 0 -0.26,-0.62a2.68,2.68 0 0 0 -0.78,-0.68a3.72,3.72 0 0 0 -2,-0.47a3.37,3.37 0 0 0 -1.94,0.65a2.38,2.38 0 0 0 -0.68,0.77a1.08,1.08 0 0 0 -0.08,0.19l0.09,-0.33a2.94,2.94 0 0 0 -3.44,1.92a2.82,2.82 0 0 0 -1.25,1.88l0,12a6.57,6.57 0 0 0 6.54,6.56a5,5 0 0 1 -0.11,0.53c-0.08,0.3 -0.13,0.62 -0.23,0.92a8.8,8.8 0 0 1 -0.7,1.72a8.06,8.06 0 0 1 -0.95,1.38c-1.79,0.27 -3.15,0.82 -3.15,1.67c0,1.23 2.9,1.87 5.77,1.87s5.77,-0.64 5.77,-1.87c0,-0.85 -1.36,-1.4 -3.14,-1.67a7.59,7.59 0 0 1 -1,-1.38a8.8,8.8 0 0 1 -0.68,-1.72c-0.1,-0.3 -0.15,-0.62 -0.23,-0.92s-0.07,-0.35 -0.11,-0.53a6.57,6.57 0 0 0 6.62,-6.56zm-12.08,-14.64a2.35,2.35 0 0 1 2.25,-0.66a1.55,1.55 0 0 0 -0.06,0.64a2.11,2.11 0 0 1 1,-1.49a3.68,3.68 0 0 1 1.77,-0.49a4.07,4.07 0 0 1 1.82,0.34a2.11,2.11 0 0 1 1.1,1a2.88,2.88 0 0 0 -1.89,0.81a3.3,3.3 0 0 0 -1.49,-0.44a4.27,4.27 0 0 0 -2.5,0.63a3.72,3.72 0 0 0 -1.37,2.1a4.65,4.65 0 0 1 1.6,-1.74a4.31,4.31 0 0 1 2.25,-0.44a3.15,3.15 0 0 1 2.06,0.85a3.47,3.47 0 0 1 1.05,2.09a3,3 0 0 0 -0.7,-2.33a2.59,2.59 0 0 0 -0.42,-0.39a2.35,2.35 0 0 1 3.87,2.22l0,0c0,1 -2.19,2.13 -5.45,2.13s-5.45,-1.11 -5.45,-2.13l0,0a2.59,2.59 0 0 1 0.56,-2.7zm10.08,27.42c0,0.53 -2,1.3 -5.19,1.3s-5.19,-0.77 -5.19,-1.3c0,-0.11 0.08,-0.23 0.25,-0.35a0.85,0.85 0 0 0 0.28,0.37a2.85,2.85 0 0 0 0.6,0.37a6.82,6.82 0 0 0 1.32,0.44a12.66,12.66 0 0 0 5.48,0a6.82,6.82 0 0 0 1.32,-0.44a2.85,2.85 0 0 0 0.6,-0.37a0.85,0.85 0 0 0 0.28,-0.37c0.17,0.12 0.25,0.24 0.25,0.35zm-1,-0.31a6.37,6.37 0 0 1 -0.86,-0.67a5,5 0 0 1 1.59,0.6a1.11,1.11 0 0 1 -0.32,0.29a2.7,2.7 0 0 1 -0.61,0.25a8.13,8.13 0 0 1 -1.3,0.28a21.05,21.05 0 0 1 -5.4,0.01a8.13,8.13 0 0 1 -1.3,-0.28a3.26,3.26 0 0 1 -0.61,-0.25a1.11,1.11 0 0 1 -0.32,-0.29a5,5 0 0 1 1.59,-0.6a6.37,6.37 0 0 1 -0.86,0.67a4,4 0 0 0 1.63,-0.81a17.07,17.07 0 0 1 5.08,0a4,4 0 0 0 1.67,0.8l0.02,0zm-3,-2.47a5.53,5.53 0 0 0 0.72,1a19.58,19.58 0 0 0 -3.75,0a6,6 0 0 0 0.71,-1a6.4,6.4 0 0 0 0.61,-1.9a6.5,6.5 0 0 0 0.07,-1c0,-0.18 0,-0.36 -0.05,-0.55l1.06,0c0,0.19 0,0.37 -0.05,0.55a8.09,8.09 0 0 0 0.07,1a6.4,6.4 0 0 0 0.58,1.9l0.03,0zm-0.53,-4.29l-1.29,0a5.72,5.72 0 0 1 -5.71,-5.71l0,-12a1,1 0 0 1 0.25,-0.62a3.68,3.68 0 0 0 0.16,0.83l0,0c0.23,1.37 2.75,2.42 5.93,2.42s5.71,-1.06 5.93,-2.44l0,0a2.87,2.87 0 0 0 0,-0.92a1.21,1.21 0 0 1 0.36,0.73l0,12a5.72,5.72 0 0 1 -5.66,5.71l0.03,0z" class="cls-1"/>
   <path id="svg_2" fill="#222221" d="m25.78,15.65723c-0.07,-1.49 -0.12,-3 -0.21,-4.48c-0.1,1.49 -0.14,3 -0.21,4.48l-0.12,4.48a6.3,6.3 0 0 1 -0.27,2.11a4.51,4.51 0 0 1 -1.08,1.74a4.62,4.62 0 0 1 -1.71,1.1a4.19,4.19 0 0 1 -1,0.23a9.13,9.13 0 0 1 -1.07,0a9.22,9.22 0 0 1 -1.07,0a4.31,4.31 0 0 1 -1,-0.23a4.64,4.64 0 0 1 -2.74,-2.84a6.3,6.3 0 0 1 -0.27,-2.11l-0.12,-4.48c-0.07,-1.49 -0.11,-3 -0.21,-4.48c-0.09,1.49 -0.13,3 -0.2,4.48l-0.12,4.48a6.45,6.45 0 0 0 0.18,2.31a5.41,5.41 0 0 0 1.21,2.07a5.21,5.21 0 0 0 2,1.33a5.36,5.36 0 0 0 1.18,0.29a9.56,9.56 0 0 0 1.17,0a9.56,9.56 0 0 0 1.17,0a5.27,5.27 0 0 0 4.39,-3.69a6.46,6.46 0 0 0 0.22,-2.33l-0.12,-4.46z" class="cls-1"/>
   <path id="svg_3" fill="#222221" d="m17.03,19.55723a6.42,6.42 0 0 0 3.09,0.62a6.42,6.42 0 0 0 3.09,-0.62a4,4 0 0 0 1.25,-1a2.11,2.11 0 0 0 0.47,-1.49a2.13,2.13 0 0 1 -0.69,1.29a3.71,3.71 0 0 1 -1.22,0.77a7.26,7.26 0 0 1 -2.9,0.44a7.18,7.18 0 0 1 -2.89,-0.44a3.65,3.65 0 0 1 -1.23,-0.77a2.13,2.13 0 0 1 -0.7,-1.28a2.11,2.11 0 0 0 0.47,1.49a4,4 0 0 0 1.26,0.99z" class="cls-1"/>
   <path id="svg_4" fill="#222221" d="m17.03,14.75723a6.2,6.2 0 0 0 3.09,0.62a6.3,6.3 0 0 0 3.09,-0.61a4,4 0 0 0 1.25,-1a2.09,2.09 0 0 0 0.47,-1.48a2.16,2.16 0 0 1 -0.69,1.29a3.88,3.88 0 0 1 -1.22,0.77a7.08,7.08 0 0 1 -2.9,0.43a7,7 0 0 1 -2.89,-0.43a3.65,3.65 0 0 1 -1.23,-0.77a2.16,2.16 0 0 1 -0.7,-1.29a2.09,2.09 0 0 0 0.47,1.48a4,4 0 0 0 1.26,0.99z" class="cls-1"/>
  </g>
 </g>
</svg>