<?xml version="1.0" encoding="utf-8"?>
<!-- Generator: Adobe Illustrator 24.1.2, SVG Export Plug-In . SVG Version: 6.00 Build 0)  -->
<svg version="1.1" id="Слой_1" xmlns="http://www.w3.org/2000/svg" xmlns:xlink="http://www.w3.org/1999/xlink" x="0px" y="0px"
	 viewBox="0 0 2267.7 2267.7" style="enable-background:new 0 0 2267.7 2267.7;" xml:space="preserve">
<style type="text/css">
	.st0{fill:#020203;}
	.st1{fill:none;}
	.st2{enable-background:new    ;}
</style>
<g id="_x31_.Черный">
	<path class="st0" d="M1133.9,1961c-540.6,0-980.5-439.9-980.5-980.5S593.2,0,1133.9,0s980.5,439.9,980.5,980.5
		S1674.5,1961,1133.9,1961z M1133.9,41.9c-517.5,0-938.9,421.1-938.9,938.9s421.1,938.9,938.9,938.9s938.9-421.4,938.9-939.2
		S1651.7,41.9,1133.9,41.9z"/>
	<path class="st0" d="M857.5,331.5c-345.6,130.9-519.4,517.2-388.4,862.8c67.2,177.1,201.5,309.3,363.2,378.3
		c23.7,10.8,39.7-25,16-35.4c-152.5-64.7-279.4-189.4-342.5-356.4c-123.2-325.3,40.4-689.4,366-812.6
		c167.3-63.5,344.4-50.8,494.1,20.3c23.7,10.8,39.7-25,16-35.4C1222.6,277.2,1034.7,264.3,857.5,331.5z"/>
	<path class="st0" d="M1572.8,1218.6c-46.8,20-100.1,22.5-150.3,20.6c-53-1.8-105.4-9.5-157.4-19.4c-23.4-4.3-46.8-10.5-70.2-12.9
		c-25.3-2.8-51.1-0.3-76.1,5.2c-46.5,10.2-90.6,31.1-130.6,56.4c-16.9,10.8-33.3,22.5-49,35.1c-7.4,5.9-14.8,11.7-20.3,19.4
		c2.2-2.2,4-4,6.2-6.2l0,0c3.1-0.9,5.9-1.5,8.6-2.5l0,0c3.1,0.9,5.9,1.5,8.6,2.5c1.8,0.9,6.8,8.3,4.3,3.7c-1.2-2.5,1.5,4.6,0.6,1.2
		c-0.3-0.9-0.6-1.8-0.9-2.8c-2.2-5.9-3.7-11.7-4.9-17.9c-4-16.9-5.9-32.3-6.5-49.9c-0.6-18.8,0.9-37.6,6.8-55.8
		c5.2-16.9,15.1-33,25.6-46.8c20.6-27.4,50.5-49,82.6-61.3c40.4-15.7,84.4-16.3,124.5-33c34.5-14.5,60.7-39.7,64.4-78.6
		c2.8-29-11.7-55.1-26.2-79.2c-18.5-30.2-35.7-60.4-44.4-94.9c-2.2-9.2-4.3-18.8-5.2-28.3c-0.3-3.7-0.3-7.1-0.3-10.8
		c0-1.8,0-3.7,0.3-5.5c0-0.6,0.9-7.1,0.3-4.6c2.2-15.4,7.7-30.8,13.6-43.4c26.2-54.8,70.5-101.7,117.7-139.9
		c0.9-0.9,7.4-5.5,3.1-2.5c1.5-1.2,3.4-2.5,4.9-3.7c2.8-1.8,5.5-3.7,8-5.5l2.5-1.2c-1.2,0.6-2.5,0.9-3.7,1.5
		c8-2.2,3.1-6.5-14.8-12.9c0,0,0,5.2,0,1.8c-0.9,10.8-4.3,21.6-5.5,32.3c-4,33.9,12.9,68.4,39.1,89.6c27.4,22.2,62.5,28.3,96.4,18.8
		c25-7.1,48.7-20.3,69.3-35.7c58.8-43.4,102.3-106.6,119.2-178c20-84.7,0.9-169.4-35.7-246.4c-25.6-53.9-58.8-104.4-97.3-150
		c-2.2-2.5-4-4.9-6.2-7.1c-15.1-16.6-39.4,8-24.6,24.6c4,4.3,7.7,8.9,11.4,13.6c1.8,2.2,3.4,4.3,5.2,6.5c0.9,1.2,2.2,2.8,3.1,4
		c0.6,0.6,0.9,1.5,1.5,2.2c1.2,1.5-1.8-2.2,0.3,0.3c5.2,6.8,10.2,13.6,15.1,20.6c27.4,38.5,52.1,79.8,70.2,123.5
		c20.9,49.6,33.9,103.2,29.9,157.1c-3.7,50.2-21.6,98.3-50.8,139.2c-23.1,32.7-53,59.8-87.8,78.9c-3.4,1.8-6.8,3.7-10.5,5.2
		c-1.8,0.9-3.7,1.5-5.5,2.5c-3.7,1.5,1.5-0.6-3.1,1.2c-6.5,2.5-12.9,4.6-19.7,6.2c-2.2,0.6-10.8,1.8-5.2,1.2
		c-6.5,0.6-12.9,0.9-19.4,0.3c-10.5-1.2-20-4.9-29-10.8c-3.7-2.5-6.5-4.6-9.9-8c-3.4-3.4-7.4-8-9.2-10.8c-2.8-4-5.5-8.3-7.7-12.9
		c-1.5-3.4-2.8-5.9-4.3-11.1c-0.6-1.8-0.9-3.7-1.2-5.5c-0.3-0.9-0.3-2.2-0.6-3.1c0.6,3.7,0,0.9,0,0.3c0-6.2,0.3-12.3,1.2-18.5
		c2.2-12,7.7-26.5,4-38.5c-6.2-20.9-28.3-15.4-41.6-6.2c-12,8.6-23.7,18.2-34.8,28c-32.3,29-61.9,61.3-85.9,97.7
		c-24.3,37-43.1,80.7-37,125.7c4,28.6,12.6,55.8,25.3,81.6c9.2,19.1,20.9,37,31.7,55.4c2.5,4,4.6,8,6.8,12c1.8,3.4,4.9,9.5,5.5,11.1
		c-0.6-0.9,1.2,3.7,1.5,4.6c0.6,1.8,1.2,4,1.8,5.9c0.6,1.5,0.9,3.4,1.2,5.2c0.3,0.9,0.3,1.8,0.6,3.1c0.9,4.9,0-3.4,0,1.5
		c0.9,19.1-4.3,33-18.2,45c-15.4,13.2-40.4,20.3-61.9,25c-28.6,6.2-57,10.2-84.4,20.9c-48.1,18.8-88.7,51.1-114.9,95.8
		c-27.4,46.8-29.3,101-18.5,153.1c2.5,12.3,5.2,31.1,14.8,40.4c5.5,5.5,14.5,7.1,21.6,3.1c3.1-1.8,4-4.3,6.5-6.5
		c0.9-0.9-4,4-1.8,2.5c2.8-2.2,5.2-4.9,7.7-7.1c4.6-4,9.5-8,14.2-11.7c-3.1,2.5,1.2-0.9,2.2-1.5c1.5-1.2,3.4-2.5,4.9-3.7
		c4-2.8,7.7-5.5,11.7-8.3c18.2-12.6,37-24,56.7-33.9c44.1-22.5,93.3-38.8,143.2-35.1c23.4,1.5,46.5,8.3,69.6,12.6
		c27.4,5.2,55.1,9.5,82.9,13.2c57.6,7.4,116.1,10.8,173.7,2.5c26.5-3.7,52.1-10.5,76.7-20.9c8.6-3.7,10.5-16.3,6.2-23.7
		C1591.3,1215.9,1581.4,1214.9,1572.8,1218.6L1572.8,1218.6z"/>
	<path class="st0" d="M1605.5,163.9c4.3,4.6,8.6,9.5,12.9,14.5c4.9,5.5,9.5,11.4,14.2,16.9c2.8,3.4,5.5,6.8,8,10.2
		c1.5,1.8,3.1,4,4.6,5.9c2.2,2.8,2.8,3.4,3.7,4.6c32,41.9,61.3,86.3,85.3,133.4c25.6,49.9,46.2,105.7,47.1,162.3
		c0.6,26.2-3.7,52.1-13.9,76.4c-7.7,18.5-19.7,36.3-33.9,50.5c-14.8,15.4-26.5,24-45.6,34.5c-3.7,2.2-7.7,4-11.4,5.9
		c-0.9,0.3-6.2,2.8-3.4,1.5c2.5-0.9-2.5,0.9-3.1,1.2c-4.9,1.8-9.9,3.7-15.1,4.6c-9.2,1.8-14.5,12.6-12,21.3c2.5,9.5,12,13.9,21.3,12
		c30.2-6.2,59.1-25.3,81.9-45c38.8-33.9,62.2-81,68.1-132.2c7.4-62.2-11.7-125.4-36.7-181.7c-23.4-52.4-53.9-101.3-87.8-147.2
		c-18.8-25.6-38.5-50.8-60.1-73.9C1614.7,122.9,1590.1,147.6,1605.5,163.9L1605.5,163.9z"/>
	<path class="st0" d="M1614.4,172.8c79.5,51.4,155.9,107.5,220.6,177.4c42.2,45.3,81.9,96.7,105,154.6
		c20.6,52.1,28.3,107.8,22.5,163.6c-2.2,20.9-6.8,42.5-12.9,62.8c-2.8,8.9-5.5,17.6-8.9,26.2c-0.6,1.5-1.2,3.4-2.2,5.2
		c-0.9,2.5,0.9-2.5,0,0c-0.3,0.9-0.9,1.8-1.2,2.8c-2.2,4.9-4.6,10.2-7.1,14.8c-21.6,40-57.9,62.8-101,72.7
		c-40.4,9.2-84.7,7.7-127.8,7.7c-51.1-0.3-102.3-3.1-153.4-5.9c-41.9-2.5-84.4-4.3-126.3-1.2c-26.2,1.8-53.6,5.9-77,18.8
		c-24.3,13.6-39.4,37.9-49.3,63.5c-4.3,11.1-7.1,22.5-8.9,34.5c-1.2,9.2,2.2,18.5,12,21.3c8,2.2,20-2.8,21.3-12
		c3.1-23.1,11.1-48.4,27.4-65.6c15.7-16.9,40.7-22.2,62.8-24.6c42.8-4.6,87.2-2.5,130-0.3c50.8,2.8,101.7,5.5,152.8,6.2
		c45.6,0.6,92.1,1.8,137.1-7.1c47.4-9.2,90.3-33,118.9-73c24-33.9,37-77.6,43.7-118c9.5-54.8,7.4-111.5-7.7-165.4
		c-17.9-64.7-54.5-121.1-96.7-172.5c-66.2-80.7-148.8-145.7-235.7-202.7c-7.1-4.6-14.5-9.2-21.6-13.9
		C1613.2,130.6,1595.9,160.8,1614.4,172.8L1614.4,172.8z"/>
	<path class="st0" d="M2047.5,741.2c1.2,11.1,1.5,22.5,1.5,33.9c0,12.6-0.3,25.3-1.2,37.9c-0.6,7.4-1.2,14.8-2.2,22.2
		c-0.3,2.2-0.6,4-0.6,6.2c-0.3,1.8-0.6,5.5-0.3,1.5c-0.6,4.3-1.2,8.6-1.8,12.9c-12.9,80.7-44.4,154.6-102.6,210.7
		c-41.6,40-94.9,67.2-151.9,82.6c-21.6,5.9-12.3,39.4,9.2,33.6c55.1-14.8,106.9-39.7,150.6-76.7c35.4-29.9,64.7-67.8,85.6-109
		c33-65,48.4-138.6,49.3-211.3c0.3-14.8,0.3-29.6-1.5-44.1c-0.9-9.2-7.1-17.3-17.3-17.3C2056.5,723.6,2046.6,731.6,2047.5,741.2
		L2047.5,741.2z"/>
	<path class="st0" d="M1193.6,1928c-16.6-15.1-31.7-32.7-45.9-50.2c-8-9.9-10.8-13.6-18.5-24c-7.7-10.8-15.4-21.6-22.5-32.7
		c-16.3-25.3-30.8-51.1-43.1-78.2c-29.3-63.5-47.1-132.8-49-202.7c-0.9-33.9,4-66.2,16.9-98c11.7-29,29.3-55.8,49.9-79.2
		c37.6-43.1,87.8-80.1,141.7-94.3c5.2-1.2,10.5-2.5,15.7-3.4c4.9-0.9-2.2,0.3,0.6,0c1.2,0,2.5-0.3,3.7-0.3c2.8-0.3,5.9-0.3,8.6-0.6
		c13.2-0.3,25,1.2,36,3.1c31.4,5.2,62.5,14.5,92.7,24.3c64.4,20.9,126.9,47.4,190.1,71.8c53.9,20.9,109,39.1,167.6,39.1
		c36,0,72.1-6.5,106.9-15.4c39.4-10.2,80.1-22.2,114.9-44.4c62.5-40,104.1-105.7,126.6-175.3c5.5-16.3,9.5-33.3,12.9-50.2
		c1.8-9.2-2.5-18.8-12-21.3c-8.6-2.5-19.4,2.8-21.3,12c-13.6,69-43.7,137.1-97,184.5c-29.3,26.2-63.1,40.4-100.1,51.8
		c-35.4,11.1-72.1,20.3-109.4,23.1c-59.1,4.3-112.7-11.4-168.5-32.3c-63.1-24-125.1-50.2-188.8-72.1c-31.4-10.8-63.1-20.3-95.5-26.8
		c-26.5-5.2-53-8.3-79.8-3.4c-57,10.2-110.3,46.2-151.2,85.6c-49.3,47.7-85.6,110-94.3,178.7c-4.9,37.6-0.9,76.7,5.2,114
		c5.9,35.7,15.4,70.9,28,104.7c21.3,56.4,50.5,109.7,86.3,158c19.7,26.5,40.7,52.4,64.7,75.5c0.9,0.9,2.2,2.2,3.1,3.1
		C1185.6,1967.5,1210.3,1942.8,1193.6,1928L1193.6,1928z"/>
	<path class="st0" d="M1423.7,1896c-2.5-5.2-4.9-10.8-7.4-16c-2.2-4.6,0.3,0.6-0.6-1.2c-0.6-1.2-1.2-2.8-1.5-4
		c-1.5-3.7-3.1-7.4-4.3-11.1c-3.1-8-6.2-16-8.9-24c-15.1-44.4-26.2-90.6-29.3-136.2c-3.4-51.4,2.5-103.2,29.3-147.9
		c16.9-27.7,41.6-51.1,66.5-71.8s53-37.9,82.6-50.5c61.9-26.2,129.4-31.1,195.9-31.1c22.5,0,22.5-34.8,0-34.8
		c-63.1,0-127.2,4.3-187.3,25.6c-67.8,24-130.9,68.7-174.7,125.7c-67.8,88.4-53.3,212.9-22.2,312.7c8.6,27.7,18.8,55.8,31.7,81.9
		C1403.7,1933.6,1433.6,1916,1423.7,1896L1423.7,1896z"/>
	<path class="st0" d="M1456.4,1054.1c-74.2,0-134.9-65.3-134.9-146c0-7.7,4-14.5,8.3-21.6c1.2-2.2,3.1-4.9,3.4-6.2
		c0,0-0.3,0.6-0.6,1.8l34.8,4.6c-0.9,6.2-4,11.7-7.7,17.6c-0.9,1.5-2.5,4.3-3.4,5.9c0.9,60.4,45.6,109,100.1,109
		c55.8,0,102.9-50.8,102.9-111.2c0-13.9-1.8-23.4-5.5-29l29-19.1c9.9,15.1,11.1,34.8,11.1,48.1
		C1594.1,988.8,1532.2,1054.1,1456.4,1054.1z"/>
	
		<ellipse transform="matrix(0.1446 -0.9895 0.9895 0.1446 257.5906 2184.3711)" class="st0" cx="1392.2" cy="943.2" rx="70.2" ry="50.5"/>
</g>
<rect x="461.4" y="2014.9" class="st1" width="1344.9" height="251.7"/>
<g class="st2">
	<path class="st0" d="M304.2,2157.5c-6.1,0-12.5-4.8-12.5-12c0-6.5,6.4-12,12.5-12h18.3l5.8-32.4H312c-16.3,0-16.3-24.1,0-24.1h20.3
		l9.5-57.8c1-6.9,4.7-11,12.5-11c8.8,0,11.2,5.5,10.2,12.4l-8.5,56.4h45.1l9.8-58.2c1.4-7.6,6.1-10.7,11.2-10.7
		c6.8,0,12.9,5.5,11.5,14.1l-9.5,54.7h15.2c15.6,0,16.3,24.1,0,24.1h-19l-5.4,32.4h16.6c6.1,0,12.5,4.1,12.5,12
		c0,7.2-5.1,12-12.5,12H411l-9.5,58.2c-1.7,7.9-7.5,11.4-12.5,11.4c-6.4,0-11.9-4.8-10.5-13.8l9.1-55.8h-45.1l-9.8,58.9
		c-1.4,7.2-5.8,10.7-11.5,10.7c-7.1,0-13.2-5.5-11.9-14.1l9.1-55.4H304.2z M393,2134.5l5.8-34.4H351l-6.1,34.4H393z"/>
	<path class="st0" d="M623.8,2063.2v152.1c0,7.6-6.1,11.4-12.2,11.4c-6.4,0-12.5-3.8-12.5-11.4v-52.8H553l-49.1,59
		c-11.2,14.1-30.5-1.7-17.6-16.6l38-44.1c-31.2-5.9-45.1-23.1-45.1-49.7c0-32.1,23.7-59,70.5-59h62
		C617.7,2052.2,623.8,2056,623.8,2063.2z M599.1,2073.6h-49.8c-31.2,0-45.4,15.2-45.4,38.6c0,20,10.5,29.7,45.4,29.7h49.8V2073.6z"
		/>
	<path class="st0" d="M733.5,2227.1h-70.1c-5.1,0-9.8-4.5-9.8-10v-154.8c0-5.5,4.7-10,9.8-10h64c25.1,0,63.7,8.6,63.7,47.7
		c0,14.2-6.4,27-20.7,32.5c19.7,6.6,33.2,20.4,33.2,42.9C803.6,2216,767.4,2227.1,733.5,2227.1z M678.3,2123.7h49.8
		c23.4,0,38-3.8,38-23.8c0-23.8-22-25.2-38.6-25.2h-49.1V2123.7z M733.5,2204.2c23.7,0,45.4-1.4,45.4-29c0-21.8-13.9-28.3-37.3-28.3
		h-63.4v57.4H733.5z"/>
	<path class="st0" d="M980.6,2067v148.2c0,8.2-6.4,11.9-12.5,11.9c-6.4,0-12.5-3.8-12.5-11.9v-138.3h-97.9v138.3
		c0,8.2-6.1,11.9-12.5,11.9c-6.1,0-12.5-3.8-12.5-11.9V2067c0-8.2,3.7-12.6,12.9-12.6h122.3C976.8,2054.3,980.6,2058.8,980.6,2067z"
		/>
	<path class="st0" d="M1151.9,2075.6v-11.2c0-7.1,4.4-12.2,12.2-12.2c7.5,0,12.5,5.1,12.5,12.2l0,151.5c0,7.5-5.1,11.1-12.5,11.1
		c-7.8,0-12.2-3.7-12.2-11.1v-19c-9.8,19.7-34.9,30.2-54.9,30.2c-49.1,0-86.7-33.9-86.7-90.1c0-57.9,40-88.1,88.1-88.1
		C1117.7,2048.8,1139.7,2055.6,1151.9,2075.6z M1151.9,2151.5v-26.8c0-33.5-23.4-51.2-53.9-52.5c-41-0.7-63,30.2-63,64.7
		c0,49.5,40.3,66.8,62.3,66.8C1127.2,2202.6,1151.9,2184.3,1151.9,2151.5z"/>
	<path class="st0" d="M1357.5,2064.6v149.6c0,8.3-6.4,12.8-12.9,12.8c-5.8,0-11.5-4.1-11.5-12.8v-68.8h-102.3v68.8
		c0,8.6-5.8,12.8-11.5,12.8c-6.4,0-12.9-4.5-12.9-12.8v-149.6c0-8.3,5.8-12.4,11.9-12.4c6.1,0,12.5,4.5,12.5,12.4v59.1h102.3v-59.1
		c0-7.9,6.4-12.4,12.5-12.4C1351.7,2052.2,1357.5,2056.3,1357.5,2064.6z"/>
	<path class="st0" d="M1530.7,2075.6v-11.2c0-7.1,4.4-12.2,12.2-12.2c7.5,0,12.5,5.1,12.5,12.2v151.5c0,7.5-5.1,11.1-12.5,11.1
		c-7.8,0-12.2-3.7-12.2-11.1v-19c-9.8,19.7-34.9,30.2-54.9,30.2c-49.1,0-86.7-33.9-86.7-90.1c0-57.9,40-88.1,88.1-88.1
		C1496.4,2048.8,1518.5,2055.6,1530.7,2075.6z M1530.7,2151.5v-26.8c0-33.5-23.4-51.2-53.9-52.5c-41-0.7-63,30.2-63,64.7
		c0,49.5,40.3,66.8,62.3,66.8C1505.9,2202.6,1530.7,2184.3,1530.7,2151.5z"/>
	<path class="st0" d="M1768.4,2215.6c0,7.6-6.1,11.4-12.2,11.4c-6.4,0-12.5-3.8-12.5-11.4V2102l-11.5,18l-39.6,56.7
		c-8.1,11.7-21.3,11.7-29.5,0l-40.7-58.4l-10.8-16.9v114.4c0,7.6-6.1,11.4-12.2,11.4c-6.4,0-12.5-3.8-12.5-11.4v-152.1
		c0-7.6,6.4-11.4,12.5-11.4c5.8,0,9.1,3.5,11.2,6.6l67.4,95l66.4-94c3-4.5,6.4-7.6,11.9-7.6s11.9,4.5,12.2,11.4V2215.6z"/>
	<path class="st0" d="M1959.4,2152.5h-133.8c4.4,27.8,28.1,51.8,62,51.8c15.6,0,31.9-4.1,45.1-14.2c11.9-10.8,29.5,3.1,16.3,16.6
		c-15.6,14.6-38.3,20.7-60.3,20.3c-53.5,0-88.1-38.6-88.1-89.8c0-57.3,43-88.4,86.4-88.4c45.7,0,88.1,26.8,89.1,88.1
		C1976,2144.4,1973.3,2152.5,1959.4,2152.5z M1952.3,2131.8c-3.4-40.7-35.2-60-63.7-60c-31.9,0-61,19.3-64,60H1952.3z"/>
</g>
</svg>
