<svg width="40" height="40" xmlns="http://www.w3.org/2000/svg" data-name="Слой 1">

 <g>
  <title>Layer 1</title>
  <g id="svg_17">
   <path id="svg_1" fill="#222221" d="m20.22496,34.50685c-5,0 -10.36,-1.09 -10.36,-3.1l0.75,0c0,1 3.65,2.35 9.61,2.35s9.61,-1.37 9.61,-2.35l0.75,0c0,2.01 -5.34,3.1 -10.36,3.1z" class="cls-1"/>
   <path id="svg_2" fill="#222221" d="m20.22496,22.25685c-2.84,0 -5.89,-0.59 -5.89,-1.88s3.05,-1.88 5.89,-1.88s5.89,0.58 5.89,1.88s-3.05,1.88 -5.89,1.88zm0,-3c-3.39,0 -5.14,0.79 -5.14,1.13s1.75,1.12 5.14,1.12s5.14,-0.79 5.14,-1.12s-1.75,-1.14 -5.14,-1.14l0,0.01z" class="cls-1"/>
   <path id="svg_3" fill="#222221" d="m33.23495,18.45685c-1.07,0 -2.7,-1 -4.07,-2.18c-1.81,-1.62 -3.21,-3.74 -2.39,-4.66c0.27,-0.31 0.86,-0.55 2.13,0a10.89,10.89 0 0 1 2.77,1.87c1.81,1.62 3.21,3.74 2.39,4.66l0,0a1.08,1.08 0 0 1 -0.83,0.31zm-5.61,-6.45a0.41,0.41 0 0 0 -0.29,0.08c-0.25,0.28 0.34,1.81 2.33,3.6s3.59,2.2 3.84,1.92s-0.34,-1.82 -2.33,-3.6a10.05,10.05 0 0 0 -2.57,-1.74a2.6,2.6 0 0 0 -0.98,-0.26z" class="cls-1"/>
   <path id="svg_4" fill="#222221" d="m7.69496,21.83685c-1,0 -2,-0.37 -2,-1.08c0,-1.41 4,-1.41 4,0c0.02,0.71 -0.99,1.08 -2,1.08zm0,-1.4a1.81,1.81 0 0 0 -1.26,0.34a2.12,2.12 0 0 0 1.26,0.3a2,2 0 0 0 1.26,-0.32a2,2 0 0 0 -1.26,-0.32z" class="cls-1"/>
   <path id="svg_5" fill="#222221" d="m9.86496,31.43685c0,-0.31 -0.54,-7.72 5,-11.9l0.46,0.6c-5.19,3.93 -4.7,11.17 -4.69,11.24l-0.77,0.06z" class="cls-1"/>
   <path id="svg_6" fill="#222221" d="m30.56495,31.43685l-0.78,-0.06c0,-0.07 0.5,-7.31 -4.69,-11.24l0.46,-0.6c5.54,4.18 5.03,11.59 5.01,11.9z" class="cls-1"/>
   <polygon id="svg_7" fill="#222221" points="10.024955749511719,28.866851806640625 5.8449554443359375,21.15685272216797 6.504955291748047,20.796852111816406 10.684955596923828,28.506851196289062 10.024955749511719,28.866851806640625 " class="cls-1"/>
   <rect id="svg_8" fill="#222221" transform="rotate(-50.94 -33.945 13.7569)" height="3.9" width="0.75" y="51.54685" x="-12.35504" class="cls-1"/>
   <path id="svg_9" fill="#222221" d="m17.41496,14.11685a0.38,0.38 0 0 1 -0.36,-0.26a4.57,4.57 0 0 0 -1.69,-2.59l-8.79,-5.07a0.39,0.39 0 0 1 -0.14,-0.52a0.38,0.38 0 0 1 0.52,-0.13l8.77,5.06a5.11,5.11 0 0 1 2,3a0.38,0.38 0 0 1 -0.23,0.48l-0.08,0.03z" class="cls-1"/>
   <path id="svg_10" fill="#222221" d="m20.55496,16.12685a3.8,3.8 0 0 1 -1.9,-0.53a3.73,3.73 0 0 1 -1.59,-1.71a0.37,0.37 0 0 1 0.2,-0.49a0.36,0.36 0 0 1 0.49,0.19a3.07,3.07 0 0 0 1.27,1.36c1.18,0.68 2.52,0.56 3,-0.27a1.5,1.5 0 0 0 0,-1.37a3,3 0 0 0 -1.24,-1.36a2.78,2.78 0 0 0 -2.24,-0.32a0.37,0.37 0 0 1 -0.48,-0.23a0.38,0.38 0 0 1 0.23,-0.48a3.54,3.54 0 0 1 2.87,0.38a3.76,3.76 0 0 1 1.55,1.71a2.24,2.24 0 0 1 0,2a2.37,2.37 0 0 1 -2.16,1.12z" class="cls-1"/>
   <path id="svg_11" fill="#222221" d="m18.26496,20.28685a0.38,0.38 0 0 1 -0.37,-0.38l0,-2.83a0.38,0.38 0 1 1 0.75,0l0,2.83a0.38,0.38 0 0 1 -0.38,0.38z" class="cls-1"/>
   <path id="svg_12" fill="#222221" d="m20.17496,21.08685a0.38,0.38 0 0 1 -0.38,-0.37l0,-2.84a0.38,0.38 0 1 1 0.76,0l0,2.84a0.38,0.38 0 0 1 -0.38,0.37z" class="cls-1"/>
   <path id="svg_13" fill="#222221" d="m22.17496,20.28685a0.38,0.38 0 0 1 -0.39,-0.38l0,-2.83a0.38,0.38 0 1 1 0.76,0l0,2.83a0.38,0.38 0 0 1 -0.37,0.38z" class="cls-1"/>
   <path id="svg_14" fill="#222221" d="m32.03496,14.35685a1.36,1.36 0 1 1 1.36,-1.35a1.36,1.36 0 0 1 -1.36,1.35zm0,-2a0.6,0.6 0 1 0 0.61,0.6a0.6,0.6 0 0 0 -0.61,-0.56l0,-0.04z" class="cls-1"/>
   <path id="svg_15" fill="#222221" d="m30.32496,28.00685a2.77,2.77 0 0 1 -0.49,0l0.1,-0.74a3.21,3.21 0 0 0 2.21,-5.67c-2.35,-1.65 -4.38,0.51 -4.47,0.6l-0.55,-0.51s2.58,-2.73 5.46,-0.71a3.76,3.76 0 0 1 1.2,4.45a3.82,3.82 0 0 1 -3.46,2.58z" class="cls-1"/>
   <path id="svg_16" fill="#222221" d="m29.93496,26.54685a1.84,1.84 0 0 1 -0.33,0l0.1,-0.74a1.76,1.76 0 0 0 1.83,-1.14a1.38,1.38 0 0 0 -0.46,-1.7c-1.24,-0.87 -2.36,0.44 -2.41,0.5l-0.58,-0.46a2.53,2.53 0 0 1 3.43,-0.63a2.1,2.1 0 0 1 0.72,2.58a2.52,2.52 0 0 1 -2.3,1.59z" class="cls-1"/>
  </g>
 </g>
</svg>