<svg width="40" height="40" xmlns="http://www.w3.org/2000/svg" data-name="Слой 1">

 <g>
  <title>Layer 1</title>
  <g id="svg_7">
   <path id="svg_1" fill="#222221" d="m17.80851,21.025c-4.34,0 -7.74,-1.51 -7.74,-3.42s3.41,-3.42 7.74,-3.42s7.73,1.5 7.73,3.42s-3.39,3.42 -7.73,3.42zm0,-6.2c-4.25,0 -7.1,1.43 -7.1,2.78s2.86,2.78 7.1,2.78s7.09,-1.44 7.09,-2.78s-2.84,-2.78 -7.09,-2.78z" class="cls-1"/>
   <path id="svg_2" fill="#222221" d="m18.62851,27.185l-1.63,0a8.37,8.37 0 0 1 -8.36,-8.36l0,-1.22c0,-2.69 4,-4.79 9.18,-4.79s9.17,2.1 9.17,4.79l0,1.22a8.37,8.37 0 0 1 -8.36,8.36zm-0.82,-13.62c-4.57,0 -8.43,1.85 -8.43,4l0,1.22a7.63,7.63 0 0 0 7.61,7.61l1.63,0a7.62,7.62 0 0 0 7.61,-7.61l0,-1.18c0.01,-2.19 -3.85,-4.04 -8.42,-4.04z" class="cls-1"/>
   <path id="svg_3" fill="#222221" d="m25.04852,24.125l-0.15,0l0,-0.75a6.49,6.49 0 0 0 4.72,-2a3.51,3.51 0 0 0 0.94,-2.83a2.34,2.34 0 0 0 -1,-1.73a4.57,4.57 0 0 0 -3.24,-0.13l-0.23,-0.72a5.31,5.31 0 0 1 3.88,0.23a3.06,3.06 0 0 1 1.36,2.26a4.23,4.23 0 0 1 -1.13,3.44a7.24,7.24 0 0 1 -5.15,2.23z" class="cls-1"/>
   <path id="svg_4" fill="#222221" d="m26.62851,21.205l-0.32,0l0.08,-0.63a1.55,1.55 0 0 0 1.42,-0.54a1.13,1.13 0 0 0 0.3,-0.94c-0.19,-0.68 -1.44,-0.39 -1.45,-0.39l-0.15,-0.62c0.69,-0.17 1.94,-0.18 2.21,0.85a1.7,1.7 0 0 1 -0.43,1.52a2.21,2.21 0 0 1 -1.66,0.75z" class="cls-1"/>
   <path id="svg_5" fill="#222221" d="m12.51851,17.475a2.34,2.34 0 0 1 1.39,-1.11a7.75,7.75 0 0 1 1.77,-0.43a20.81,20.81 0 0 1 3.62,-0.16a11.3,11.3 0 0 1 1.81,0.27a4.69,4.69 0 0 1 1.75,0.74a1.36,1.36 0 0 1 0.36,0.42a0.79,0.79 0 0 1 0,0.64a1.42,1.42 0 0 1 -0.77,0.69a5.58,5.58 0 0 1 -1.78,0.39a7.58,7.58 0 0 0 1.61,-0.72a1,1 0 0 0 0.53,-0.52c0,-0.15 -0.08,-0.3 -0.29,-0.45a8.5,8.5 0 0 0 -3.28,-0.85a19.7,19.7 0 0 0 -3.52,-0.09a10,10 0 0 0 -1.74,0.26a2.4,2.4 0 0 0 -1.46,0.92z" class="cls-1"/>
   <path id="svg_6" fill="#222221" d="m20.58851,18.095a6.11,6.11 0 0 1 -3,0.69a6,6 0 0 1 -3,-0.69c2.07,0.07 3.95,0.07 6,0z" class="cls-1"/>
  </g>
 </g>
</svg>