<svg width="40" height="40" xmlns="http://www.w3.org/2000/svg" data-name="Слой 1">

 <g>
  <title>Layer 1</title>
  <g id="svg_25">
   <path id="svg_1" fill="#222221" d="m17.54226,10.625c-3.41,0 -7,-0.84 -7,-2.4s3.62,-2.39 7,-2.39s7,0.84 7,2.39s-3.59,2.4 -7,2.4zm0,-4.16c-4,0 -6.39,1 -6.39,1.76s2.43,1.79 6.39,1.79s6.39,-1 6.39,-1.76s-2.43,-1.79 -6.39,-1.79z" class="cls-1"/>
   <path id="svg_2" fill="#222221" d="m17.54226,24.405a14.77,14.77 0 0 1 3,0.16a8,8 0 0 1 1.49,0.4a3.41,3.41 0 0 1 0.7,0.38a1,1 0 0 1 0.48,0.77a1.08,1.08 0 0 1 -0.45,0.79a2.94,2.94 0 0 1 -0.71,0.4a7.78,7.78 0 0 1 -1.49,0.46a15.26,15.26 0 0 1 -6.12,0a8.11,8.11 0 0 1 -1.5,-0.46a3.08,3.08 0 0 1 -0.7,-0.4a1.08,1.08 0 0 1 -0.45,-0.79a1.07,1.07 0 0 1 0.47,-0.77a3.76,3.76 0 0 1 0.71,-0.38a7.82,7.82 0 0 1 1.49,-0.4a14.77,14.77 0 0 1 3,-0.16a16.55,16.55 0 0 0 -3,0.4a8,8 0 0 0 -1.41,0.46c-0.43,0.19 -0.92,0.5 -0.92,0.85s0.52,0.61 0.94,0.79a7.16,7.16 0 0 0 1.41,0.4a17.09,17.09 0 0 0 5.94,0a7.57,7.57 0 0 0 1.41,-0.4c0.42,-0.18 0.91,-0.46 0.93,-0.79s-0.49,-0.66 -0.91,-0.85a8,8 0 0 0 -1.41,-0.46a16.55,16.55 0 0 0 -2.9,-0.4z" class="cls-1"/>
   <path id="svg_3" fill="#222221" d="m17.54226,34.165c-3,0 -6,-0.71 -6,-2.07l0,-0.87l0.63,0l0,0.87c0,0.59 2.09,1.43 5.35,1.43s5.34,-0.84 5.34,-1.43l0,-0.87l0.64,0l0,0.87c0.02,1.36 -2.99,2.07 -5.96,2.07z" class="cls-1"/>
   <path id="svg_4" fill="#222221" d="m17.54226,32.735c-3.41,0 -7,-0.84 -7,-2.4l0,-0.08l1.76,-6.64a7.13,7.13 0 0 0 0.24,-1.83l0,-1.6l0.64,0l0,1.6a7.88,7.88 0 0 1 -0.26,2l-1.75,6.6c0.07,0.73 2.49,1.72 6.39,1.72s6.32,-1 6.39,-1.72l-1.75,-6.6a7.45,7.45 0 0 1 -0.26,-2l0,-2.08l0.63,0l0,2.08a7.53,7.53 0 0 0 0.22,1.83l1.78,6.72c0,1.56 -3.62,2.4 -7.03,2.4z" class="cls-1"/>
   <path id="svg_5" fill="#222221" d="m17.54226,18.515c-1,0 -2.17,-0.23 -2.27,-0.84l-4.43,-8.66l0.57,-0.29l4.49,8.89a3.59,3.59 0 0 0 1.64,0.29a2.86,2.86 0 0 0 1.65,-0.34l0,-0.1l4.6,-8.95l0.57,0.29l-4.57,8.87c-0.09,0.62 -1.25,0.84 -2.25,0.84z" class="cls-1"/>
   <path id="svg_6" fill="#222221" d="m21.23226,14.655l-0.24,-0.39c1.22,-0.78 4.42,-3.06 4.47,-4.17c0,-0.35 -0.12,-0.44 -0.17,-0.47c-0.33,-0.23 -1.15,0 -1.59,0.21l-0.19,-0.41c0.14,-0.07 1.39,-0.62 2,-0.18a0.92,0.92 0 0 1 0.37,0.87c-0.03,1.54 -4.17,4.24 -4.65,4.54z" class="cls-1"/>
   <path id="svg_7" fill="#222221" d="m22.01226,13.165l-0.22,-0.37c1.89,-1.39 3,-2.55 3,-3.16a0.78,0.78 0 0 0 0,-0.27l0.44,-0.12a1.73,1.73 0 0 1 0,0.41c-0.05,0.79 -1.13,1.97 -3.22,3.51z" class="cls-1"/>
   <path id="svg_8" fill="#222221" d="m25.37226,9.675a3,3 0 0 0 -0.91,-0.58a1.16,1.16 0 0 0 -0.43,0l-0.05,-0.45a1.51,1.51 0 0 1 0.61,0c0.17,0.05 1.11,0.51 1.22,0.9l-0.44,0.13z" class="cls-1"/>
   <path id="svg_9" fill="#222221" d="m23.15226,25.115l-0.62,-0.18s1.09,-3.92 1.26,-4.68a2.46,2.46 0 0 1 1.57,-1.76a1.22,1.22 0 0 1 1.55,0.68l1.63,4.91c0.09,0 0.23,0 0.25,-0.09s-0.92,-3.09 -1.62,-4.9a1.55,1.55 0 0 0 -0.82,-1a1.59,1.59 0 0 0 -1.1,0l-1.92,0.92l-0.26,-0.59l1.91,-0.86a2.21,2.21 0 0 1 1.61,0a2.18,2.18 0 0 1 1.2,1.3c0.71,1.83 1.63,4.91 1.64,4.94a0.69,0.69 0 0 1 -0.48,0.85a0.72,0.72 0 0 1 -1,-0.28l-1.64,-5s-0.29,-0.52 -0.7,-0.33a1.78,1.78 0 0 0 -1.2,1.3c-0.17,0.84 -1.22,4.61 -1.26,4.77z" class="cls-1"/>
   <path id="svg_10" fill="#222221" d="m26.95226,18.645a2.44,2.44 0 0 0 -1.57,-1.2a1.67,1.67 0 0 0 -0.88,0.09l-1.17,0.53l-0.26,-0.58l1.17,-0.53a2.26,2.26 0 0 1 1.26,-0.14a3.08,3.08 0 0 1 2,1.6l-0.55,0.23z" class="cls-1"/>
   <path id="svg_11" fill="#222221" d="m17.54226,19.935c-3,0 -6,-0.71 -6,-2.07s2.32,-1.71 3.32,-1.87l0.1,0.63c-2,0.33 -2.79,0.92 -2.79,1.24c0,0.58 2.09,1.43 5.35,1.43s5.34,-0.85 5.34,-1.43c0,-0.32 -0.74,-0.91 -2.77,-1.24l0.1,-0.63c1,0.16 3.31,0.66 3.31,1.87s-2.99,2.07 -5.96,2.07z" class="cls-1"/>
   <path id="svg_12" fill="#222221" d="m18.46226,16.735a0.64,0.64 0 0 1 -0.63,-0.64a0.63,0.63 0 0 1 0.63,-0.63a0.64,0.64 0 0 1 0.64,0.63a0.64,0.64 0 0 1 -0.64,0.64zm0,-0.82a0.18,0.18 0 1 0 0.18,0.18a0.18,0.18 0 0 0 -0.18,-0.18z" class="cls-1"/>
   <path id="svg_13" fill="#222221" d="m16.57226,16.735a0.64,0.64 0 0 1 -0.63,-0.64a0.64,0.64 0 0 1 1.27,0a0.64,0.64 0 0 1 -0.64,0.64zm0,-0.82a0.18,0.18 0 0 0 0,0.36a0.18,0.18 0 0 0 0,-0.36z" class="cls-1"/>
   <path id="svg_14" fill="#222221" d="m19.33226,15.325a0.64,0.64 0 1 1 0.64,-0.64a0.64,0.64 0 0 1 -0.64,0.64zm0,-0.82a0.18,0.18 0 1 0 0.18,0.18a0.18,0.18 0 0 0 -0.18,-0.18z" class="cls-1"/>
   <path id="svg_15" fill="#222221" d="m15.79226,15.325a0.64,0.64 0 1 1 0.64,-0.64a0.64,0.64 0 0 1 -0.64,0.64zm0,-0.82a0.18,0.18 0 1 0 0.18,0.18a0.18,0.18 0 0 0 -0.18,-0.18z" class="cls-1"/>
   <path id="svg_16" fill="#222221" d="m17.54226,15.485a0.64,0.64 0 1 1 0.64,-0.64a0.64,0.64 0 0 1 -0.64,0.64zm0,-0.82a0.18,0.18 0 1 0 0.18,0.18a0.18,0.18 0 0 0 -0.18,-0.18z" class="cls-1"/>
   <path id="svg_17" fill="#222221" d="m20.15226,13.865a0.64,0.64 0 1 1 0.64,-0.64a0.64,0.64 0 0 1 -0.64,0.64zm0,-0.82a0.18,0.18 0 1 0 0.18,0.18a0.18,0.18 0 0 0 -0.18,-0.21l0,0.03z" class="cls-1"/>
   <path id="svg_18" fill="#222221" d="m18.36226,14.075a0.64,0.64 0 0 1 -0.64,-0.63a0.64,0.64 0 0 1 0.64,-0.64a0.64,0.64 0 0 1 0.63,0.64a0.63,0.63 0 0 1 -0.63,0.63zm0,-0.81a0.18,0.18 0 1 0 0.18,0.18a0.18,0.18 0 0 0 -0.18,-0.18z" class="cls-1"/>
   <path id="svg_19" fill="#222221" d="m14.86226,13.865a0.64,0.64 0 1 1 0.64,-0.64a0.64,0.64 0 0 1 -0.64,0.64zm0,-0.82a0.18,0.18 0 1 0 0.18,0.18a0.18,0.18 0 0 0 -0.18,-0.21l0,0.03z" class="cls-1"/>
   <path id="svg_20" fill="#222221" d="m16.63226,14.075a0.64,0.64 0 0 1 -0.64,-0.63a0.64,0.64 0 0 1 0.64,-0.64a0.64,0.64 0 0 1 0.63,0.64a0.63,0.63 0 0 1 -0.63,0.63zm0,-0.81a0.18,0.18 0 1 0 0.18,0.18a0.18,0.18 0 0 0 -0.18,-0.18z" class="cls-1"/>
   <path id="svg_21" fill="#222221" d="m17.54226,10.535c-2.83,0 -5.84,-0.65 -5.84,-1.83s3,-1.84 5.84,-1.84s5.84,0.65 5.84,1.84s-3.01,1.83 -5.84,1.83zm0,-3.21c-3.34,0 -5.39,0.8 -5.39,1.38s2.05,1.37 5.39,1.37s5.38,-0.8 5.38,-1.37s-2.05,-1.38 -5.38,-1.38z" class="cls-1"/>
   <path id="svg_22" fill="#222221" d="m12.21226,20.925l-0.11,0a0.58,0.58 0 0 1 -0.36,-0.23c-0.06,-0.09 -0.25,-0.38 0,-1.37a0.53,0.53 0 0 0 0,-0.16a0.94,0.94 0 0 1 -0.1,-0.43l0,-0.86l0.63,0l0,0.86a0.37,0.37 0 0 0 0,0.14a1,1 0 0 1 0.09,0.58a2,2 0 0 0 -0.06,0.82a0.88,0.88 0 0 0 0.23,-0.17a1.45,1.45 0 0 1 1.12,-0.43l0,0.06l0,-0.06l0.09,0a14.19,14.19 0 0 0 3.82,0.47c3.26,0 5.34,-0.85 5.34,-1.44l0,-0.86l0.64,0l0,0.86c0,1.37 -3,2.08 -6,2.08a14.78,14.78 0 0 1 -4,-0.5a0.85,0.85 0 0 0 -0.63,0.29a1.15,1.15 0 0 1 -0.7,0.35z" class="cls-1"/>
   <path id="svg_23" fill="#222221" d="m17.54226,23.375a1,1 0 0 1 0,-1.94a1,1 0 0 1 0,1.94zm0,-1.43a0.47,0.47 0 0 0 -0.46,0.46a0.46,0.46 0 0 0 0.92,0a0.47,0.47 0 0 0 -0.46,-0.46z" class="cls-1"/>
   <path id="svg_24" fill="#222221" d="m17.54226,26.015a1,1 0 1 1 1,-1a1,1 0 0 1 -1,1zm0,-1.43a0.46,0.46 0 1 0 0.46,0.46a0.47,0.47 0 0 0 -0.46,-0.48l0,0.02z" class="cls-1"/>
  </g>
 </g>
</svg>