<svg width="40" height="40" xmlns="http://www.w3.org/2000/svg" data-name="Слой 1">

 <g>
  <title>Layer 1</title>
  <g id="svg_10">
   <path id="svg_1" fill="#222221" d="m6.27878,19.18955c0,0.21 -0.06,0.42 -0.07,0.64c-0.04,-0.22 0,-0.43 0.07,-0.64z" class="cls-1"/>
   <path id="svg_2" fill="#222221" d="m9.42878,20.99956c0,-0.07 0,-0.14 0,-0.21s0,0.08 0,0.12l0,0.09z" class="cls-1"/>
   <path id="svg_3" fill="#222221" d="m9.60878,19.09955a11.52,11.52 0 0 0 -0.17,1.7a13.79,13.79 0 0 1 0.17,-1.7z" class="cls-1"/>
   <path id="svg_4" fill="#222221" d="m6.11878,20.32956l0,0.07c0,-0.19 0,-0.38 0,-0.57c0.02,0.17 0.01,0.33 0,0.5z" class="cls-1"/>
   <path id="svg_5" fill="#222221" d="m9.42878,21.14956c0,0.08 0,0.2 0,0.34c0,-0.16 0,-0.32 0,-0.48l0,0.14z" class="cls-1"/>
   <path id="svg_6" fill="#222221" d="m22.60878,18.99956c-4.34,0 -7.74,1.5 -7.74,3.42s3.4,3.42 7.74,3.42s7.73,-1.51 7.73,-3.42s-3.39,-3.42 -7.73,-3.42zm0,6.2c-4.25,0 -7.1,-1.44 -7.1,-2.78s2.85,-2.78 7.1,-2.78s7.1,1.44 7.1,2.78s-2.86,2.75 -7.1,2.75l0,0.03z" class="cls-1"/>
   <path id="svg_7" fill="#222221" d="m36.11878,23.19956a3,3 0 0 0 -1.36,-2.26a5,5 0 0 0 -3.6,-0.31c-1.15,-1.55 -3.77,-2.69 -7,-3a7.72,7.72 0 0 0 -1.17,-2.56a4.17,4.17 0 0 0 -3.06,-1.92a0.44,0.44 0 0 1 -0.22,-0.14a6.14,6.14 0 0 0 -0.5,-0.52a3.8,3.8 0 0 0 -2.46,-0.69c-0.39,0 -0.77,0.08 -1.16,0.12c0,-0.31 0,-0.63 0,-0.95c0,-1.19 1.32,-0.27 1.37,-0.65s0,-1 0,-1.53a0.51,0.51 0 0 0 -0.35,-0.55a2.66,2.66 0 0 0 -3.35,1a3.06,3.06 0 0 0 -0.4,1.8c0,0.3 0,0.61 0,0.93l-0.14,0a4.52,4.52 0 0 0 -2.07,0a2.84,2.84 0 0 0 -1.93,1.18a0.24,0.24 0 0 1 -0.17,0.07a3.78,3.78 0 0 0 -1.4,0.37a5,5 0 0 0 -2,1.91a8.88,8.88 0 0 0 -1.27,4.15a10.57,10.57 0 0 0 0.23,3.22a7.29,7.29 0 0 0 2.17,3.81a3.56,3.56 0 0 0 2.46,1a0.82,0.82 0 0 1 0.45,0.12a3.21,3.21 0 0 0 3.14,0.29a0.26,0.26 0 0 1 0.21,0c0.23,0.11 0.44,0.27 0.67,0.36a6.29,6.29 0 0 0 0.74,0.22l0.57,0a3.83,3.83 0 0 0 0.58,-0.16a8.34,8.34 0 0 0 6.69,3.49l1.63,0a8.33,8.33 0 0 0 6.46,-3.06a7.19,7.19 0 0 0 5.11,-2.28a4.18,4.18 0 0 0 1.13,-3.46zm-4.34,0.25c0.39,-0.05 1,0 1.15,0.44a1.14,1.14 0 0 1 -0.3,0.94a1.57,1.57 0 0 1 -1,0.5a8.16,8.16 0 0 0 0.18,-1.72l-0.03,-0.16zm-9.89,-8.39a6.66,6.66 0 0 1 1.32,2.56l-0.6,0l-0.78,0a8.8,8.8 0 0 0 -1.23,-2.73c-0.22,-0.31 -0.5,-0.59 -0.75,-0.88l-0.13,-0.14a3.12,3.12 0 0 1 2.17,1.19zm-2.18,-0.38a6.24,6.24 0 0 1 2,2.94a17.48,17.48 0 0 0 -3.12,0.45a8.58,8.58 0 0 0 -1.58,-3.37c-0.17,-0.22 -0.37,-0.42 -0.58,-0.65a3.42,3.42 0 0 1 3.28,0.63zm-3.63,-1.88a3.53,3.53 0 0 1 2.51,0.3a3.21,3.21 0 0 1 0.3,0.21a3.75,3.75 0 0 0 -2.6,0.09c-0.14,0.05 -0.28,0.13 -0.43,0.19s-0.31,0 -0.3,-0.17c0.02,-0.55 -0.15,-0.42 0.52,-0.62zm-2.35,-2.45a1.83,1.83 0 0 1 1.46,-1.58a2.42,2.42 0 0 1 1.13,0.11c0,0.23 0,0.56 0,0.79c-1.24,-0.31 -1.53,0.42 -1.62,1a8.16,8.16 0 0 0 -0.04,1.33c0,0.5 0,1 0,1.51l-0.92,0c-0.01,-1.11 -0.03,-2.14 -0.01,-3.16zm-2.75,2.37a8.87,8.87 0 0 1 1.54,0.11c0.36,0.05 0.35,0.09 0.36,0.45c0,0.14 0,0.29 -0.17,0.32a0.48,0.48 0 0 1 -0.29,0a3.72,3.72 0 0 0 -1.93,-0.43c-0.33,0 -0.65,0.1 -1,0.16a2.82,2.82 0 0 1 1.49,-0.61zm3.3,15.22a3.19,3.19 0 0 1 -1.63,-0.38a5.35,5.35 0 0 1 -2.21,-2.33a8.27,8.27 0 0 1 -1,-3.16c0,-0.21 0,-0.41 0,-0.58a11.41,11.41 0 0 0 0.28,2.17a8.65,8.65 0 0 0 1,2.51a15.43,15.43 0 0 0 0.9,1.27l0.08,0.12a3.22,3.22 0 0 1 -2.17,-0.18a4.81,4.81 0 0 1 -2,-1.74a7.28,7.28 0 0 1 -1.25,-3.2a12.72,12.72 0 0 1 -0.14,-2c0,0.36 0,0.73 0,1.11a10.36,10.36 0 0 0 1.34,4.72c0.11,0.19 0.23,0.37 0.37,0.59a2.9,2.9 0 0 1 -1,-0.63a6.44,6.44 0 0 1 -1.73,-3a10.29,10.29 0 0 1 -0.31,-3.71a8.69,8.69 0 0 1 0.82,-3a4.68,4.68 0 0 1 1.83,-2.15a2.57,2.57 0 0 1 1.18,-0.38c-0.24,0.27 -0.48,0.52 -0.69,0.8a8.2,8.2 0 0 0 -1.39,2.9a11.05,11.05 0 0 0 -0.28,1.5a7.49,7.49 0 0 1 1.68,-3.79a4,4 0 0 1 2.32,-1.46a2.89,2.89 0 0 1 1.66,0.12c-0.29,0.35 -0.61,0.7 -0.86,1.07a8,8 0 0 0 -1.35,3.25c0,0.24 -0.07,0.48 -0.1,0.72a8.15,8.15 0 0 1 1.14,-3a5,5 0 0 1 1.68,-1.7a3.3,3.3 0 0 1 3.73,0.14a6,6 0 0 1 1.93,2.46a7.41,7.41 0 0 1 0.4,1.08c-3,0.78 -5.08,2.39 -5.08,4.3l0,1.22a8.26,8.26 0 0 0 1.2,4.29c-0.11,0.02 -0.22,0.05 -0.35,0.05zm9.12,3.28l-1.61,0a7.6,7.6 0 0 1 -6.06,-3c-0.12,-0.16 -0.23,-0.32 -0.34,-0.49a7.53,7.53 0 0 1 -1.21,-4.09l0,-1.25c0,-2.08 3.49,-3.85 7.76,-4l0.08,0l0.59,0l0.79,0l0.91,0.07c3.78,0.39 6.72,2 6.72,3.95l0,1.22a7.62,7.62 0 0 1 -7.61,7.59l-0.02,0zm7,-3.1a8.59,8.59 0 0 0 1,-2.13a2.27,2.27 0 0 0 1.68,-0.74a1.72,1.72 0 0 0 0.43,-1.53c-0.22,-0.83 -1.07,-1 -1.76,-0.92l0,-0.41a2.72,2.72 0 0 0 -0.23,-1.08a4.1,4.1 0 0 1 2.81,0.27a2.3,2.3 0 0 1 1,1.72a3.47,3.47 0 0 1 -0.94,2.83a6.48,6.48 0 0 1 -3.94,1.99l-0.05,0z" class="cls-1"/>
   <path id="svg_8" fill="#222221" d="m27.64878,21.56956a4.69,4.69 0 0 0 -1.75,-0.74a10.26,10.26 0 0 0 -1.81,-0.26a19.87,19.87 0 0 0 -3.62,0.15a7.75,7.75 0 0 0 -1.77,0.43a2.38,2.38 0 0 0 -1.42,1.11a2.37,2.37 0 0 1 1.46,-0.91a9.14,9.14 0 0 1 1.74,-0.27a19.7,19.7 0 0 1 3.52,0.09a8.5,8.5 0 0 1 3.28,0.83c0.21,0.15 0.34,0.3 0.29,0.45a1.1,1.1 0 0 1 -0.49,0.53a8.1,8.1 0 0 1 -1.61,0.71a5.58,5.58 0 0 0 1.81,-0.37a1.42,1.42 0 0 0 0.77,-0.69a0.75,0.75 0 0 0 0,-0.64a1.36,1.36 0 0 0 -0.4,-0.42z" class="cls-1"/>
   <path id="svg_9" fill="#222221" d="m19.39878,22.87956a6,6 0 0 0 3,0.69a6.11,6.11 0 0 0 3,-0.69c-2.07,0.12 -3.95,0.12 -6,0z" class="cls-1"/>
  </g>
 </g>
</svg>