<svg width="40" height="40" xmlns="http://www.w3.org/2000/svg" data-name="Слой 1">

 <g>
  <title>Layer 1</title>
  <g id="svg_4">
   <path id="svg_1" fill="#222221" d="m18.15,17.56073a4.13,4.13 0 0 0 1.95,0.39a4.16,4.16 0 0 0 2,-0.39a2.82,2.82 0 0 0 0.79,-0.63a1.35,1.35 0 0 0 0.29,-0.94a1.75,1.75 0 0 1 -1.21,1.3a4.43,4.43 0 0 1 -1.82,0.28a4.51,4.51 0 0 1 -1.87,-0.28a1.76,1.76 0 0 1 -1.2,-1.3a1.31,1.31 0 0 0 0.29,0.94a2.56,2.56 0 0 0 0.78,0.63z" class="cls-1"/>
   <path id="svg_2" fill="#222221" d="m22.61,32.06073a7.53,7.53 0 0 1 -0.95,-1.38a9.51,9.51 0 0 1 -0.69,-1.72c-0.09,-0.3 -0.14,-0.62 -0.23,-0.92s-0.07,-0.37 -0.1,-0.55c1,0 2.66,-1 4.7,-9.37c1.11,-4.5 1.8,-9.06 1.81,-9.17a3,3 0 0 0 -2.35,-2.72a2.8,2.8 0 0 0 -1.05,-0.48a3.14,3.14 0 0 0 -0.68,-0.07a1.39,1.39 0 0 0 -0.31,-0.45a2.9,2.9 0 0 0 -0.8,-0.5a4.6,4.6 0 0 0 -1.83,-0.33a4.19,4.19 0 0 0 -1.81,0.43a2.51,2.51 0 0 0 -0.75,0.59s0,0 0,0a3,3 0 0 0 -2.88,0.76a2.66,2.66 0 0 0 -0.39,0.51a2.83,2.83 0 0 0 -1.45,2.3s0.7,4.6 1.8,9.1c2,8.33 3.66,9.35 4.71,9.37c0,0.18 -0.07,0.37 -0.11,0.55s-0.13,0.62 -0.23,0.92a9.47,9.47 0 0 1 -0.74,1.75a8.12,8.12 0 0 1 -1,1.38c-1.78,0.27 -3.14,0.82 -3.14,1.67c0,1.23 2.9,1.87 5.77,1.87s5.76,-0.64 5.76,-1.87c0.08,-0.85 -1.27,-1.4 -3.06,-1.67zm-7.63,-25.54a2.58,2.58 0 0 1 2.36,-0.67a0.94,0.94 0 0 0 0,0.44a1.65,1.65 0 0 1 1.15,-1.19a4.5,4.5 0 0 1 1.7,-0.32a5.57,5.57 0 0 1 1.72,0.22a2.67,2.67 0 0 1 0.78,0.37a1.4,1.4 0 0 1 0.33,0.31a2.85,2.85 0 0 0 -1.75,0.74a4.32,4.32 0 0 0 -1.7,-0.36a5.44,5.44 0 0 0 -2.21,0.4a3.08,3.08 0 0 0 -1.54,1.6a3.56,3.56 0 0 1 1.68,-1.26a6.21,6.21 0 0 1 2.07,-0.28a4.15,4.15 0 0 1 2,0.48a2.2,2.2 0 0 1 1.23,1.6a2.09,2.09 0 0 0 -1,-1.91l-0.07,0a2.4,2.4 0 0 1 2,-0.47a2.37,2.37 0 0 1 1.5,1.06a2.34,2.34 0 0 1 0.32,1.71l0,0c0,1.18 -2.51,2.17 -5.48,2.17s-5.48,-1 -5.48,-2.17l0,0a2.36,2.36 0 0 1 0.39,-2.47zm-1.35,2.43a1.77,1.77 0 0 1 0.29,-0.88a3.75,3.75 0 0 0 0.16,1.11l0,0c0.2,1.38 2.71,2.43 5.9,2.43s5.69,-1.05 5.9,-2.42l0,0a2.73,2.73 0 0 0 -0.08,-1.5a1.63,1.63 0 0 1 0.54,1.25c-2,13 -4.56,17.79 -5.74,17.79l-1.24,0c-1.17,-0.05 -3.77,-4.88 -5.73,-17.78zm5.2,22a6.4,6.4 0 0 0 0.61,-1.9a8.09,8.09 0 0 0 0.07,-1c0,-0.19 0,-0.38 -0.05,-0.57l1.06,0c0,0.19 0,0.38 -0.05,0.57a6.5,6.5 0 0 0 0.07,1a5.87,5.87 0 0 0 0.61,1.9a6,6 0 0 0 0.71,1a19.58,19.58 0 0 0 -3.75,0a5.53,5.53 0 0 0 0.72,-1zm-2.15,1.8a7.07,7.07 0 0 1 -0.86,0.67a4,4 0 0 0 1.63,-0.81001a17.07,17.07 0 0 1 5.08,0a4,4 0 0 0 1.63,0.81001a7.18,7.18 0 0 1 -0.87,-0.67a5,5 0 0 1 1.6,0.59999a1.11,1.11 0 0 1 -0.32,0.29a2.9,2.9 0 0 1 -0.61,0.25a8.13,8.13 0 0 1 -1.3,0.28001a21.75,21.75 0 0 1 -2.67,0.17a21.51,21.51 0 0 1 -2.71,-0.16a8.13,8.13 0 0 1 -1.3,-0.28a3.26,3.26 0 0 1 -0.61,-0.25a1.11,1.11 0 0 1 -0.32,-0.29a4.88,4.88 0 0 1 1.63,-0.61zm3.31,2.28c-3.17,0 -5.2,-0.77 -5.2,-1.3c0,-0.11 0.09,-0.23 0.25,-0.35a1,1 0 0 0 0.29,0.37a2.78,2.78 0 0 0 0.59,0.37a7.3,7.3 0 0 0 1.32,0.44a12.71,12.71 0 0 0 5.49,0a6.82,6.82 0 0 0 1.32,-0.44a3.13,3.13 0 0 0 0.6,-0.37a1,1 0 0 0 0.28,-0.37c0.16,0.12 0.25,0.24 0.25,0.35c0,0.53 -2.02,1.3 -5.19,1.3z" class="cls-1"/>
   <path id="svg_3" fill="#222221" d="m19.99,25.77073a1.64,1.64 0 0 0 0.58,-0.09a1.75,1.75 0 0 0 0.49,-0.33a4.15,4.15 0 0 0 0.62,-0.86a12.24,12.24 0 0 0 0.82,-1.86a35,35 0 0 0 1.09,-3.85a75.12,75.12 0 0 0 1.32,-7.87c-0.51,2.61 -1,5.21 -1.7,7.77c-0.34,1.28 -0.68,2.56 -1.14,3.79a10.64,10.64 0 0 1 -0.79,1.78c-0.33,0.54 -0.7,1.1 -1.27,1c-0.57,0.09 -0.95,-0.47 -1.28,-1a11.48,11.48 0 0 1 -0.8,-1.78c-0.46,-1.23 -0.8,-2.51 -1.15,-3.79c-0.66,-2.56 -1.19,-5.16 -1.69,-7.77a72.59,72.59 0 0 0 1.32,7.87a33,33 0 0 0 1.09,3.85a12.24,12.24 0 0 0 0.78,1.86a4.15,4.15 0 0 0 0.62,0.86a1.75,1.75 0 0 0 0.49,0.33a1.61,1.61 0 0 0 0.6,0.09z" class="cls-1"/>
  </g>
 </g>
</svg>