<svg width="40" height="40" xmlns="http://www.w3.org/2000/svg" data-name="Слой 1">

 <g>
  <title>Layer 1</title>
  <g id="svg_10">
   <path id="svg_1" fill="#222221" d="m17.81351,18.945c-4.34,0 -7.74,-1.5 -7.74,-3.41s3.4,-3.42 7.74,-3.42s7.74,1.5 7.74,3.42s-3.4,3.41 -7.74,3.41zm0,-6.2c-4.25,0 -7.1,1.44 -7.1,2.79s2.85,2.78 7.1,2.78s7.1,-1.44 7.1,-2.78s-2.86,-2.79 -7.1,-2.79z" class="cls-1"/>
   <path id="svg_2" fill="#222221" d="m18.6235,35.435l-1.62,0c-4.62,0 -8.37,-2.52 -8.37,-7.13l0,-12.77c0,-2.69 4,-4.79 9.18,-4.79s9.17,2.1 9.17,4.79l0,12.77c0,4.61 -3.71,7.13 -8.36,7.13zm-0.81,-23.94c-4.57,0 -8.42,1.85 -8.42,4l0,12.81c0,4.2 3.41,6.38 7.61,6.38l1.62,0c4.2,0 7.61,-2.18 7.61,-6.38l0,-12.77c0.04,-2.19 -3.86,-4.04 -8.42,-4.04z" class="cls-1"/>
   <path id="svg_3" fill="#222221" d="m26.6335,23.215l-0.33,0l0.08,-0.64a1.58,1.58 0 0 0 1.45,-0.5a25.8,25.8 0 0 0 0.3,-5c-0.19,-0.69 -1.44,-0.39 -1.45,-0.39l-0.15,-0.62c0.69,-0.17 1.94,-0.18 2.22,0.85c0.13,0.48 0,5.15 -0.44,5.61a2.2,2.2 0 0 1 -1.68,0.69z" class="cls-1"/>
   <path id="svg_4" fill="#222221" d="m12.5235,15.395a2.3,2.3 0 0 1 1.39,-1.1a8.25,8.25 0 0 1 1.76,-0.44a21.84,21.84 0 0 1 3.6,-0.15a11.3,11.3 0 0 1 1.81,0.27a4.54,4.54 0 0 1 1.75,0.74a1.36,1.36 0 0 1 0.36,0.42a0.74,0.74 0 0 1 0.05,0.63a1.4,1.4 0 0 1 -0.77,0.69a5.43,5.43 0 0 1 -1.79,0.39a7.09,7.09 0 0 0 1.59,-0.71a1.13,1.13 0 0 0 0.49,-0.52c0,-0.15 -0.08,-0.3 -0.29,-0.45a8.45,8.45 0 0 0 -3.2,-0.85a19.81,19.81 0 0 0 -3.53,-0.09a9.25,9.25 0 0 0 -1.74,0.26a2.41,2.41 0 0 0 -1.48,0.91z" class="cls-1"/>
   <path id="svg_5" fill="#222221" d="m14.9435,4.565a1.79,1.79 0 0 1 0.95,1.25a1.94,1.94 0 0 1 -0.49,1.6a2,2 0 0 0 -0.54,1.14a2.24,2.24 0 0 0 0.41,1.32a1.72,1.72 0 0 1 -0.86,-1.31a2.08,2.08 0 0 1 0.56,-1.56a1.82,1.82 0 0 0 0.48,-1.14a2.44,2.44 0 0 0 -0.51,-1.3z" class="cls-1"/>
   <path id="svg_6" fill="#222221" d="m17.6135,4.565a1.82,1.82 0 0 1 1,1.25a2,2 0 0 1 -0.49,1.6a2,2 0 0 0 -0.54,1.14a2.23,2.23 0 0 0 0.35,1.32a1.74,1.74 0 0 1 -0.85,-1.31a2.11,2.11 0 0 1 0.55,-1.56a1.76,1.76 0 0 0 0.48,-1.14a2.36,2.36 0 0 0 -0.5,-1.3z" class="cls-1"/>
   <path id="svg_7" fill="#222221" d="m20.2735,4.565a1.82,1.82 0 0 1 1,1.25a2,2 0 0 1 -0.49,1.6a2.07,2.07 0 0 0 -0.55,1.14a2.24,2.24 0 0 0 0.36,1.32a1.75,1.75 0 0 1 -0.86,-1.31a2.12,2.12 0 0 1 0.54,-1.56a1.82,1.82 0 0 0 0.48,-1.14a2.36,2.36 0 0 0 -0.48,-1.3z" class="cls-1"/>
   <path id="svg_8" fill="#222221" d="m20.58351,16.025a6.11,6.11 0 0 1 -3,0.69a5.94,5.94 0 0 1 -3,-0.69c2.07,0.07 3.95,0.07 6,0z" class="cls-1"/>
   <path id="svg_9" fill="#222221" d="m31.3235,16.335a3,3 0 0 0 -1.36,-2.26a5.28,5.28 0 0 0 -3.87,-0.23l0.23,0.72a4.57,4.57 0 0 1 3.25,0.15a2.3,2.3 0 0 1 1,1.73c0.19,1.25 -0.41,6.71 -0.94,7.31a6.43,6.43 0 0 1 -3,1.81l0,0.78a7.14,7.14 0 0 0 3.61,-2.09c0.87,-1.03 1.26,-6.7 1.08,-7.92z" class="cls-1"/>
  </g>
 </g>
</svg>