<svg width="45" height="45" xmlns="http://www.w3.org/2000/svg" data-name="Слой 1">

 <g>
  <title>Layer 1</title>
  <g id="svg_19">
   <path id="svg_1" fill="#222221" d="m20.55365,10.3109a1.36,1.36 0 1 1 1.36,-1.35a1.36,1.36 0 0 1 -1.36,1.35zm0,-2a0.61,0.61 0 1 0 0.61,0.61a0.6,0.6 0 0 0 -0.61,-0.57l0,-0.04z" class="cls-1"/>
   <path id="svg_2" fill="#222221" d="m28.29365,36.9109c-4.33,0 -7.73,-1.51 -7.73,-3.42s3.41,-3.42 7.73,-3.42s7.74,1.5 7.74,3.42s-3.39,3.42 -7.74,3.42zm0,-6.2c-4.24,0 -7.09,1.43 -7.09,2.78s2.86,2.78 7.09,2.78s7.1,-1.44 7.1,-2.78s-2.84,-2.78 -7.1,-2.78z" class="cls-1"/>
   <path id="svg_3" fill="#222221" d="m29.12365,43.0709l-1.63,0a8.37,8.37 0 0 1 -8.36,-8.36l0,-1.22c0,-2.69 4,-4.79 9.17,-4.79s9.18,2.1 9.18,4.79l0,1.22a8.37,8.37 0 0 1 -8.36,8.36zm-0.83,-13.62c-4.56,0 -8.42,1.85 -8.42,4l0,1.22a7.62,7.62 0 0 0 7.61,7.61l1.63,0a7.63,7.63 0 0 0 7.61,-7.61l0,-1.18c0.01,-2.19 -3.85,-4.04 -8.43,-4.04z" class="cls-1"/>
   <path id="svg_4" fill="#222221" d="m35.54365,40.0109l-0.15,0l0,-0.75a6.53,6.53 0 0 0 4.72,-2a3.51,3.51 0 0 0 0.94,-2.83a2.34,2.34 0 0 0 -1,-1.73a4.57,4.57 0 0 0 -3.24,-0.13l-0.23,-0.72a5.31,5.31 0 0 1 3.88,0.23a3,3 0 0 1 1.35,2.26a4.18,4.18 0 0 1 -1.12,3.44a7.26,7.26 0 0 1 -5.15,2.23z" class="cls-1"/>
   <path id="svg_5" fill="#222221" d="m37.12365,37.0909l-0.32,0l0.08,-0.63a1.55,1.55 0 0 0 1.41,-0.54a1.13,1.13 0 0 0 0.3,-0.94c-0.19,-0.68 -1.44,-0.39 -1.45,-0.39l-0.15,-0.62c0.69,-0.17 1.94,-0.18 2.21,0.85a1.7,1.7 0 0 1 -0.43,1.52a2.21,2.21 0 0 1 -1.65,0.75z" class="cls-1"/>
   <path id="svg_6" fill="#222221" d="m23.01365,33.3609a2.31,2.31 0 0 1 1.39,-1.11a7.75,7.75 0 0 1 1.77,-0.43a20.74,20.74 0 0 1 3.61,-0.16a11.26,11.26 0 0 1 1.82,0.27a4.65,4.65 0 0 1 1.74,0.74a1.38,1.38 0 0 1 0.37,0.42a0.79,0.79 0 0 1 0,0.64a1.42,1.42 0 0 1 -0.77,0.69a5.58,5.58 0 0 1 -1.78,0.39a7.82,7.82 0 0 0 1.61,-0.72a1,1 0 0 0 0.52,-0.52c0,-0.15 -0.08,-0.3 -0.29,-0.45a8.5,8.5 0 0 0 -3.28,-0.85a19.79,19.79 0 0 0 -3.53,-0.09a10,10 0 0 0 -1.73001,0.26a2.38,2.38 0 0 0 -1.45,0.92z" class="cls-1"/>
   <path id="svg_7" fill="#222221" d="m31.07365,33.9809a6.8,6.8 0 0 1 -6,0c2.08,0.07 3.96,0.07 6,0z" class="cls-1"/>
   <path id="svg_8" fill="#222221" d="m16.79365,26.0609c-1.95,0 -5.53,-2.69 -8.41,-5.75c-3.44,-3.66 -6.31,-8.29 -4.84,-9.67l0.51,0.55c-0.71,0.67 0.8,4.27 4.88,8.61s7.58,6.05 8.29,5.38l0.52,0.55a1.31,1.31 0 0 1 -0.95,0.33z" class="cls-1"/>
   <path id="svg_9" fill="#222221" d="m22.06365,15.1509l0,0c-1,0 -2.93,-1.33 -4.72,-3.24c-1.94,-2.06 -3.61,-4.69 -2.67,-5.58l0,0c0.95,-0.88 3.47,0.94 5.41,3a16,16 0 0 1 2.37,3.24c0.61,1.15 0.7,1.94 0.26,2.35a0.9,0.9 0 0 1 -0.65,0.23zm-6.91,-8.27c-0.25,0.23 0.38,2.05 2.7,4.52c1.83,1.94 3.49,3 4.19,3a0.18,0.18 0 0 0 0.15,0c0.06,-0.05 0.14,-0.44 -0.4,-1.46a15.16,15.16 0 0 0 -2.3,-3.06c-2.32,-2.5 -4.1,-3.23 -4.34,-3z" class="cls-1"/>
   <path id="svg_10" fill="#222221" d="m17.72365,25.7509l-0.43,-0.59c0.05,0 5.66,-4.65 5,-11.12l0.75,-0.08c0.67,6.89 -5.08,11.61 -5.32,11.79z" class="cls-1"/>
   <path id="svg_11" fill="#222221" d="m4.09365,11.1809l-0.56,-0.5c0.21,-0.23 5.25,-5.68 12.08,-4.53l-0.13,0.74c-6.42,-1.08 -11.35,4.24 -11.39,4.29z" class="cls-1"/>
   <rect id="svg_12" fill="#222221" transform="rotate(-15.37 -15.9664 0.280899)" height="0.75" width="8.81" y="31.6709" x="11.97365" class="cls-1"/>
   <rect id="svg_13" fill="#222221" transform="rotate(-81.15 -8.37635 46.8709)" height="4.23" width="0.75" y="72.7109" x="24.28365" class="cls-1"/>
   <path id="svg_14" fill="#222221" d="m6.58365,8.8109a3.74,3.74 0 0 1 -0.88,-4.58a3.73,3.73 0 0 1 4.12,-2.24c3.44,0.71 3.22,4.42 3.22,4.46l-0.75,-0.06c0,-0.12 0.17,-3.09 -2.63,-3.67a3,3 0 0 0 -3.28,1.85a3,3 0 0 0 0.67,3.67l-0.47,0.57z" class="cls-1"/>
   <path id="svg_15" fill="#222221" d="m7.85365,7.9609a2.5,2.5 0 0 1 -0.64,-3a2.12,2.12 0 0 1 2.39,-1.24a2.51,2.51 0 0 1 1.88,2.92l-0.74,-0.1c0,-0.07 0.19,-1.78 -1.3,-2.09a1.4,1.4 0 0 0 -1.55,0.83a1.76,1.76 0 0 0 0.4,2.1l-0.44,0.58z" class="cls-1"/>
   <path id="svg_16" fill="#222221" d="m27.76365,21.5709a2.43,2.43 0 0 1 -1.54,-0.86a3.35,3.35 0 0 1 -0.67,-1a0.83,0.83 0 0 1 1.18,-1.14a3,3 0 0 1 1,0.73c0.65,0.68 1,1.61 0.55,2.08a0.74,0.74 0 0 1 -0.52,0.19zm-1.55,-2.37a1.85,1.85 0 0 0 0.56,1c0.48,0.51 0.91,0.64 1,0.61a2.17,2.17 0 0 0 -0.59,-1a1.77,1.77 0 0 0 -0.97,-0.61z" class="cls-1"/>
   <path id="svg_17" fill="#222221" d="m28.29365,24.9609a1,1 0 1 1 1,-1a1,1 0 0 1 -1,1zm0,-1.39a0.46,0.46 0 0 0 0,0.92a0.46,0.46 0 0 0 0,-0.92z" class="cls-1"/>
   <path id="svg_18" fill="#222221" d="m28.29365,27.5709a1,1 0 0 1 0,-1.94a1,1 0 0 1 0,1.94zm0,-1.43a0.46,0.46 0 0 0 -0.46,0.46a0.47,0.47 0 0 0 0.46,0.46a0.46,0.46 0 0 0 0.46,-0.46a0.45,0.45 0 0 0 -0.46,-0.45l0,-0.01z" class="cls-1"/>
  </g>
 </g>
</svg>